<mxfile host="Electron" modified="2024-04-28T15:22:29.709Z" agent="Mozilla/5.0 (Windows NT 10.0; Win64; x64) AppleWebKit/537.36 (KHTML, like Gecko) draw.io/22.1.18 Chrome/120.0.6099.199 Electron/28.1.2 Safari/537.36" etag="4yYf3VcQcKbpxI_iAsFI" version="22.1.18" type="device">
  <diagram id="C5RBs43oDa-KdzZeNtuy" name="Page-1">
    <mxGraphModel dx="7840" dy="4140" grid="1" gridSize="10" guides="1" tooltips="1" connect="1" arrows="1" fold="1" page="1" pageScale="1" pageWidth="827" pageHeight="1169" math="0" shadow="0">
      <root>
        <mxCell id="WIyWlLk6GJQsqaUBKTNV-0" />
        <mxCell id="WIyWlLk6GJQsqaUBKTNV-1" parent="WIyWlLk6GJQsqaUBKTNV-0" />
        <mxCell id="r9GU1ullkdQJTktmOcHx-1" value="" style="shape=image;verticalLabelPosition=bottom;labelBackgroundColor=default;verticalAlign=top;aspect=fixed;imageAspect=0;image=data:image/png,iVBORw0KGgoAAAANSUhEUgAACqQAAAYKCAYAAAC73JhhAAAAAXNSR0IArs4c6QAAAARnQU1BAACxjwv8YQUAAAAJcEhZcwAAEnQAABJ0Ad5mH3gAAP+lSURBVHhe7N1pkFzlnSfqCsfEhKOjP3iiP3R0x3ywI2Yi3J+8XbfbwEWSBb7cuWPGu7vpbiNjI7SCwTZMuwEbgdgEiM2mMUZgLBYJgVpIYECGBhsYdhCrbYzZETtCEloR7z3n5MnMk6cyqyrrzarMrHyeiL+NsrJECfLHe/I9vzxnKAAAAAAAAAAAAABABIVUAAAAAAAAAAAAAKIopAIAAAAAAAAAAAAQRSEVAAAAAAAAAAAAgCgKqQAAAAAAAAAAAABEUUgFAAAAAAAAAAAAIIpCKgAAAAAAAAAAAABRFFIBAAAAAAAAAAAAiKKQCgAAAAAAAAAAAEAUhVQAAAAAAAAAAAAAoiikAgAAAAAAAAAAABBFIRUAAAAAAAAAAACAKB0vpG7cuDGsWrUqHHPMMeGoo44KBx10UPjc5z5nzKRM+npLX3fpXHHFFeG5557LX5n9RY5MN0eOjIkfOTImfuTImPiZKjkCAACgwj6D6ebYrzMmfuTImPiRI2PiZ6Jz1LFC6lNPPZWFJP2BzzvvvHDXXXeF+++/P7zw3B/D1k0vFeblEWZjfd5pPu++88oo82p4d3Orea3lbNv8eti2ZaR5Y4R5M2zb2nq2b31rhHk7bH93pNk08mxL553a7Bg2m1vP9i2jzNaG2VmdHem8O8psaz4709neMLuazo7hs6s4O5vOxo0vZ6+7dC688MIwa9asMHv27PDwww/nr9TeJketp3l+qtMsO8Up5aY8ctQwcpROkhU5Kk0pN+WRo4aRo3SSrMhRaUq5KY8cNYwcpZNkRY5KU8pNeeSoYfo9RwAAAFTYZ2g9zfcXqtNsb6E4pX2F8kTtM6TTbH+hOlNjn2HBggX260rTPDvFaZaf6jTPUDpy1GzkaLLJUetpnp/qNMtOcUq5KY8cNYwcpZNkRY5KU8pNeeSoYSY6Rx0ppF566aXh0EMPzUKy+a3nw+vP3RVefOya8PwjVyZzVT4rwvOPrggvPLoymavDC4+lsyqb9LkvPp7OtfmsDi8+sTq89MS/V+bJNbV5+cnrwsu/S2dtPuvCy79fFzb+/vp8bggb/5DOr8Irf7gxvPJUOjflc3N45Y83h1f/uD6fX4dXn07nlvDa07eG1/6Uzn/kc1t47ZnbwuvP3J7Pb8Lrz6bz22zeeO6OZO7M567wxvN3hTef/z/53B3efCGde7J564V7w1sv3pfP/eGtl+4Pb7/0QD4PhrdfTuehbDa9/HDYtDGdDZV55ZF8Hs3mnVcfy+fxyryWzhOVef3JsPn13+Xz+7D5jXT+kM2WN54KW95M54/5PB22vvWnfJ4JW99O59ls3n37ufDupnSez+eF5D9EL4Rt77yYzEvJf1zSeTmb7Zs3hu1b0nkln1eT/wi8GnZsfa0y776ezBvZ7Hz3zbBzWzpv5fN2EsC3w67tm+qz451sdu/YHHbvTGdLPlvD7l1bw3u73s1nW3hvdzrbw57dO8Ke99LZmc+usGdPMu/tDrt37wpPPvlkOPLII8OJJ56YBHRn/qrtPXIkR3IUT47GkqNqluRIjpqTIzmSo3gDmaNn5UiOAAAAmAj2GXpkn+G19vYZtrxV3WuYwH2Grd3fZ9iwYUO2z7B06dLB3q8rZEmO5EiO5EiO5KiV9nOUjBz1aY6SGeAcRRVSt2zZkrW2ly1blrWHX01edM9tuCKb5zekYZnCb4QU6cYWmC6ecH1/z+5s9ux5LwvO+vXrszZ3+rrtJXIkR3IUT47aydEkHMDJkRzJkRzJ0eDlSCFVjgAAAOgo+ww9ts+gADTiPsPq1auzAsPA7tcVsiRHciRHciRHclQ2/hwlI0d9mqNkBjhHUYXUo446Ktx+++1h02t/yBaT5zZcPjELTx6WngqMIt3YAtMDJ1zfTwLz/vtpaHZnVwNKT7r20ici5EiO5CieHLWTo0k4gJMjOZIjOZKjwcuRQqocAQAA0FH2GXpsn0EBaNR9hvSqWgO7X1fIkhzJkRzJkRzJUdn4c5SMHPVpjpIZ4ByNu5B60UUXheXLl2dhee7h5cmkYRmgN0KKdGMLTA+dcH3//T3J4+9lVwKaPXt2/kruLjmSIzmKJ0c9eAAnR3IkR3IkR4OXI4VUOQIAAKBj6vsMv7fP0Cv7DApAfbfPMKk5KmRJjuRIjuRIjuSoKC5HychRn+YomQHO0bgKqU899VQ49NBDw/Z338le/AP5RkiRbmyB6bETrumkTe5jjz02/PVf/3X40Y9+lL+qJ58cyZEcxZOj8eRoEg7g5EiO5EiO5GjwcqSQKkcAAAB0RHGfId07sM/QI/sMCkBt7TN8+MMf7pn9uknJUSFLciRHciRHciRHVfE5SkaO+jRHyQxwjsZVSE0vJXz//fcnL75f52EZwDdCinRjC0wPnnBN509/+lM44IADwgc+8IHw0Y9+NH9lTy45kiM5iidH48nRJBzAyZEcyZEcydHg5UghtX9ztKc3cgQAAEBFcZ/h2Yd/aZ+hV/YZFIDGtc/w8Y9/PH9lT65Jz1EhS3IkR3IkR3IkR1XxOUpGjvo0R8kMcI7aLqQ+99xzYdasWWHzm8+EZx+qhmUA3wgp0o0tMB054bo1bNu2LWzfngRkhMDs3rUje96OHcljIwQmhPeTr+8JRx99dPiLv/iLMDQ0FD70oQ9VXuCTRI7kaLJztGvHFjmSo8k7gLMeyZEcyZEcDV6OFFL7N0fvdz9HAAAAVJT3GRRSe2ifYYoWgDp+/qgH9hm6kqNCluRIjuRIjuRIjlKdyVEyctSnOUpmgHPUdiH10ksvDcuWLQuvJi+ogT7hqkg3tsBEn3CtnGzdtGlTeOeddwqhaQzM7l3bw9atW7Pnbd68OQtNy8CE95P/fz9cf/314dOf/nQWmHTSSwxPFjmSIzmKJ0fjzdEkHMDJkRzJkRzJ0eDlSCG1f3OUZKjbOQIAAKCivM+gkNpD+wxTsgA0NfcZupKjQpbkSI7kSI7kSI5SnclRMnLUpzlKZoBz1HYh9Zhjjgl33XVXFo6BPuGqSDe2wESecE3DsmXLlnDyySeH0047Lbz11lthe/LY7p31wOzeWQnLQw89FBYtWhSuvvrq7Pt21kJTCkx4P3stP/2HDWH//fevBSadL37xi9nXJpocyZEcxZOj8eZoEg7g5EiO5EiO5GjwcqSQ2r85er/7OQIAAKCivM+gkNpD+wxTsAA0VfcZupKjQpbkSI7kSI7kSI5SnclRMnLUpzlKZoBz1HYhdfbs2eGpp55KwnJZFphKWMYYmGVfaPjhstl7bri7H98IKdKNLTCRJ1zTcKSBOeuss8IXvvCFcPrpp4c33nijEppd6WzPvp6G5bvf/W44+OCDw9q1a7PA7Nq5o3lg8uLCay8/NSww6UwGOYrJ0XXhnGmlP38+M8+8vsdytCIckf9sR6yTo07rXo4Whzn598y9LDZHy8PSfUs/Rz4zTrlqgnI03gO4i8PC/GdbeK31SI56KUfdWI/GmyPHdXLUyRz12HGdQmr/5ijfUOhmjgAAAKgo7zO0VVwo7jPsPSfcPdbiQlv7DKeGufnfY+7yidhnODfMz3//+Ssmap/h54W97jb2GUYtLtwWzp+R//MvzRFrJ2ifIbK4MFX3GTqWo+qMZb+ukKX2c/SLcNY+pb9nPvOWT7H9uilYpJOjbuVoMve9zy+sTbE5uj6cO730zyafypokR3I0VXPU7nrUuhe0cNVkrke3j3B8N1qOkhngHLWdsgMPPDC7tGt7J1zPC6fv1fhD1WasJ1xvWRCmp8/fZ0G4txcCo5A6tsBEnnDdvXNL9uJPX3NLly7NGtZLliwJr732WvZ4MSyzZs0K1113Xfb4zlpYmgQmLy5seu334XOf+9yw1+QBBxyQfX0idS1H1YWnlqeFSZ76LUetF5500lJq7+SoNwqpctTpHE1OITWdSim10zmqZqnd9ahJIfWBRWFm+tiMReEx65EcpdOVHHVjPRpvjhzXyVEnc5Qf1422oXDrEflx3xHh/k7m6I6jw4z09512THgwzZFCav/mKN9Q6GaOAAAAqCjvM7RTXFgxq/h+7mNhyc2RhdRbFuZ7CoeH+2r7dX1WSL3n+Moe9vTjwyO1fYbJL6Sms9+5d3Z+nyGyuNDOPkNaWuiXfYbx5Shyv66QpU4WUtOZccry8e17K6TKUYSu5ajXekGTWEhNZ+ZZN8mRHHVuPeqVXlCHC6npRPeCOlBITSc9vmudo2QGOEdtF1LTv8Hu3btrgamEZeTAFN8ATTvhp4VLc18QlnxrbCdc7znpk5XfQyG1dWCm5AnXrVkAXnrppfDMM8+Es88+O3zlK18JZ5xxRvZYGpYjjzwyO9l6zTXXZI+9/vrrYfv2bWHPe7uaB2aU4sIHP/jB7OsTqVs5qs69tTz1dyF15hnr8hz9rLZ5kG4qPCpHo+boy1/+shyNO0cTU0itbygsDfPy339o3++HBzqeo2qW4tejx5buXfk5B6KQaj3q3Rx1Yz3qXI4c18lR7HHdaBvc9y3+VOXv1eFC6oOn/m3l91VI7f8cjbKhMBk5AgAAoKK8zzD2Qurx4bDsfdzHwrS9K+/npi26IMQUUuvnkiazkBpTXBi+z/DIGXtV/gwNhdRx7jO0UUjd7+zf5AWg34afzKw8NjTztPBEp/cZoosLE3D+qAf2GcaTo+j9ukKWYgqp0xcvH3b+aGjfo8IDXcxRR/frpmSRTo46maOe6wV1PEf1QurMM3+V5+jGekl1+gnhUTmSo/xnrOSoesv+9tejnukFRRZS672gQqE7thc0jkLqfuf8Ns/RHQ3Hd0+2zFEyA5yjSSikVt8ApWE5vxKW2sJT/2Teym81/tBDQ58IZ/y6EparDyl/LTkYO+ni2sKz6tuNX5u7vBiYxk8UTT/5yFrRp3iJ+wdO+XTtOdns+4PwQC0wZ9c/8XBV/sm8aQeF+dU29uzz64FZ8Y/57/GPYU1DYNJFxwnXdgOThiVtaS9evDgsWrQou5x1Gpqvfe1r4Yc//GFDWO64445w/PHHh6uvvjr7vp07tjcPzCjFhXQm2kTlKF14WmYpX3Sa52lZw8JzzbBMFRee5eGswhUdZ5x8VD1Tl9cXnuGZOjo8WFt4ip9wzT9RNO1fwkPPXxvOrubqsJ/WF56V/5T/Pv8c1jZdeB4Ma+fm31daeNZVH8+nfqvxZeHw/LHDV68P5xU+1bDf0lsacvT42fvUvpbNjJPD48UcrT208etDs8ONWY564wqpctR+ju5e9InGP8/e88M9tYO35kW62gFddfY5ItxXO4A7rbC5sKTy1/seGR5oWki9Naw+NP89SoXU2uP5zL8qOYDLinTFT+YVcpTMjCWrGw7gNiz5bO1r2Uw/LjxSXI9WfbPx60MHh3XZetR4hdR184rPqczMpb+urUePLy3nZnF4vLYeLa/nb83llZzMPDQcUT1wW3hVfT1aNzv/PQ4LN1qPOm5q5Ch5E7T8a43fN/T1sLr6RuiKb5S+9g9hdfmNkEKqHEXojRz9PJxZeM8z97LKcV35mC6d6Yt/UTuuu/Y7jV+rvj+qrzefDkt/W9lQeOCUvIA69LdhRpOre884bZUc9WuORtlQSAcAAIDJUd5nGHMh9eL8tq7prfqXHZj/dVpaqO8zZKWF9fPCtOy9Xv08bO1qdEOfDGfeUinSrWp2LmnxJaGxSNd4Dnbu8sbiwgMnl88Tpfvd1eJC/cIM86/Mz8NOOzo82OwKqbVzr9VJz8FW9hnWHFZ8PJ3PhnPuqewzrJ1T/lq1/NP8CqmPnpVfgKE6DRdiuLRwTumWhitlHb6mus/QrJD6p/DEOfvmz50dfvX2s+HGhfXvrcy08NPHxrnPEFlcaGef4c477+ybfYb2cxTfZ3jpiZPqe3W/WFzJSa0AtKxh72764iMKOWrsM9QLqcUMfS2sfvqWYeeI0n26pXcUC0Arw9Li+aHTjinkqb5fV87NgpWTuF83BYt0ctS5HPVmL+iY8FCLK6QOz1IhRyv/ueFrQ0PfDGuzHDUrpG5I1qD8AxRDs8K6JEfDz8PuHc57oJijxrVov7MXF8691nN0w4L6c9I5Yq0cFWeidSZHyTQ5fzTimtT3vaB/atkLeuTMala+GdYl61G5DzQ0tFc49/7ienRzQxdo5tITC8d09fXo+vn152Rfq+WoWSH1mfDEudPy584ONyY5an58l2RpgHPUdsLKgamEZYTAXPw/8x/iY+H0m1a0WHguCEvyT+s1zpfC1aMsPM3eEKUzd3m68DQuOuUZfsK1PN8Iq0sLT22ShWfNaZ/Jf5288SkdwJULQJWDNydc2w1M2sTeunVruPDCC7Mr/5x44onhySefDOecc052eeE0LKtWrcrCsnDhwjBnzpywfv365Pu2Fy4rXApMPxYXxpSjdOEZIUtZcWH0hadZcSGducvTReeXI2cqX3haZ+ofwurSwlObbOG5Kzx8eiFXpQ2FmUuuSzLUZOGp3nIlfaxwae7hi09lDl+dZqheSG02lcVn+MJTn++EG9IcDSujptNbhVQ5ai9Hww/eqlPN0fAiXau1aGjoK+GaUpGuNq0Kqb/5fuUWyNlj9Vv2t8rV/BWNhdRmk24mpFlaO2xzrjrJm6B0PRpWRk2n/ULqupa5+Xa4IVuP6oXU2sw8JfyqtDGXrkfVg7f9zr3LejQBpkSOhpVR08kLqcPKqOkopMpRZ/VCjobPl8M1oxRSy2XU6sy7PH2PdEX9CgyHLi2dJBr+AYl0FFL7OEcKqQAAAD2jvM8w1kJq9Wpa2ZW0bppTK52mt+2vFhc6XUgdPl8L1+ZFutUt9h2yc6+lQmptmhVSVxzU+JxsqueP1jRcnKE+/xzWvtReIbXV+aShoW+Fddk+Q72QOnyq+97NCqlX1M4TVa6Qemf4afXCDA1zWLhxPPsMkcWFqbrP0HaOOtBnKBZSa5MXUlvvfVfLP80KqWfUM5JdIbWwX9cw1T7DyhZfr0y1kDq8xF2ZhiKdQqocJbqRo17tBTUrpI6YpWFl1HRGKqTWz8FWrpB6U0OBrj6H5GtSYxm1PNUiXbmMWp0j1spRdSZaZ3KUTOn80Yi9oDEWUnu7F7QmWYvGcufkX9WvmNowlWJ3uYxanmohtVUn6PA16VrUrJB6ZcPx3ZObWh3fzQk3DnCO2k5YOTCVsLQOzF0//lj+Q3whrHi09QnX2huhbOoHbHMurYSl6aW5b1lYf4N0a6XBXbsl5bdPC6/c9t3869XQ3BxeKZQWsoXnN0fVij/zrqg0uF/7baEMdOrKxoWnekvKYVekSxeen4QF2a8/E86+u3zCVSF1PIHZvXNL8uJ/N2zevDn87Gc/y5rbaWgeffTRcOmllw4Ly80335yHpdrebhKYPiwujC9H6aW5C1n6RaWQmk7LS3PfeniemU+FM2+rfKLo/mqmvrMkydSRtUzNW55fmruYqXThKeRn3hX5lR3vOLqeqdOSTBUXnmn/OzmIKxYXqjlKD9jSHF2Q//qz4Zy70wzVF55hU7zlyn0/ykuq6ScgKjmqfbp13rIkP4VC6rxL8hz9ur4gzb8sbH5wcdgvf07tE64P1x9LNxRqn2ydeWp4YliOeqOQKkdt5OjmuflmXJKZS/Ic/Xp+7XU//aSfNxSAsiJdbS1Kf51/oqiWpXTz4NLGIt0+R4b7a5e4L9xypTy1T4snObrjB3mG0k+7Vop0D56WX6lu9rkN69HQYefn5Z/VhU8WXRDevPtfa8XtBSvz9eie4+pl7jOur3+iqOkl7hsLqela1PSW/Q+cWPs9q8XuzQ8Vc3NbsgYVCqkzTglP1Naj+sFb+mbo3berGZoWfvqo9WgiTIUc1T4lnm3KVT7hWr1VRO1TeQ2fcE1HIVWOOqcXcjR0yOLK+6PLvpz/3k3eHxVv2V87pvtUOOv20hUXDj2zkqPLv57/Xp8O8w6tfm1pLUdu2T+FcqSQCgAA0DPK+wxjK6RWr6b1sbDkpnSfoV5SSG/bP55CarrPUD+X1PyW/dm52HSfYflXK7+u7jPcXjj3mn3wtdmFGAqF1JZX0rozPFS9ONC0fwkPj7rPUD2fNBQWXl3ZZ2h+y/5SIfX+Hxf2tPN9hgcW1ffOswsxFAqp6fmjdJ9hzbcrvx7aJ5z/ULrHUC+kNpvmBaD6eaTvrhvHPkNkcWGq7jO0m6OO9BmKhdSmfYZ07zvP0WVfyf9+yWOlQmqzqeWo4RbJjR8gL56LTe+ul+17X1UvdGeF1Lv+JX/OZ8LZd1Vy9HD1rnqHXTA5+3VT8lbjctS5HLW4ZX83e0HZvnepF1TMUt4LqmVpzgX1u1XW7lJZzFHhluNNJj0HOzxHl9TWoMNXJzl64KR6h2F1nqPampT2GpIcPXxy/px9w/kbKjmq9RqKd6qUownVmRwlM2KOSr2gvGPX372gdD0aoReUzMJVzdajUp+hcDx3+Op8PVp9SO33yLoMD1bzlB7PVdaj2h2UFyxP1qJ6IbXZHLG2WY5Whu/mX//u9YObo7YTVg5MJSwjvBEa4xWAht2OMp8RC6m1E65NJj3hWnsD9NVwbXZJ4bS4UC//ZAvP5XlosuJP9QDuP+pN7kPPblh4agdweXFhzez8eWkBqHrLiGk/DA8PeyOUHrw54TqewFRDs2nTpnDRRReFv//7vw8nnXRS+P3vf980LLt27gh79uxqHZgpfCWtdOFpmaWxFFILb4CGTVr+qWXqa2F1uuhkU8hUuvBckZcXWt1qfPY5wzYUysWF2ieK0stzVy/LPe1fw4YsQy0WnnwzoZajaw4e/pzqpOW5hlv213P0WPU24+mGwur8wK3hVuNP1T9NtODyprfrr17ZsZcKqXI0xhzVbmU0L9xdO4BbXf8E0SGLkwyVinTVtWifw8O9+SeK0ql9qih9I9Rwq/HqejRCIbXh1kVJjq5sdpXHfFp8Mi+d2ieL0kLqsCxV1qPap8Tn/Kz17fqbHcAla1HTQmr1IG7GSeHxwnpU+2TR/PTArXjL/sb16FfVy9knb4beXZvfrn/m6eFJ69GEmBI5GnaF1K+H1dWNuaa361dIlaPO6pkcZcd0+e3AssdKG3PFQmrtmK7JZOXuygZ346db00+J14vdCqlTKEcKqQAAAD2jvM8wpkJqba/hC2Flvs9w96K80JDdtr9QXOhgIbVSpEum/MHX6n5d6QPk9XOvw+/GUt+vK50/GnaF1PSulfV9hloBqDRtFVKvnZU/54TwWGGfoXaXsHmXhsZb9lf3GS4r7HOnewytCqmHhl8V9hmerN3itXG6VUidivsMbedojOdhR+wzNNyyv56jep+hckejSo4urd3Cf+RCano+Ns1QJUfDboucT5ahK/8h/3V6Vbp83/vZVbULl2SF1GqXodlk544mYb9uihZS5ahTOWpRSO1mL6hZIXW0LDW7Xf+ohdT0io71HNXOwZYmK6TWCnWHhOtrOaqvQdmatOY7te8ZNtkVu+UonYnWmRwlU8rRiL2gsRRSe74XlK5HrQqp6dWG6+vRo7Vb+DdO1mdY/a38198K62rrUf0iddkxXaGgOmxmnBweb1lILfaCnmt9fDfJhdReylHbCSsHphKWEQJz4+za1X2mnXB+84WnesI1fc6if0vCM7y93WzhqYWn4QAubW+XGtzZVbSqC8+S2hucdOGpXzlrfIXUN+7833nD+x/DgjwsC1Y0O+GaHrw54TrewOzeuTULzVtvvZWF5qCDDgrf+973GsKybdu2sHPH9rDnvV0jB6YfiwtjyVG68FxSzNLP2r5C6n2Lq5lKb49cydEr1eJCkqFaprJbjVcXnjPrmUoWnsZMjW/hqX+qqJCr7FYRaYbKl+a+sLZxUNxQqC88B+cHb+UcNS+k1m41Pv+y8Hi1nDpSITXLUOGWK9lMCz99JM1QbxVS5Wj0HNUO3NooANXzFFdIrdyy/6zCp8KrpdTbwgPV0k/LW403L6TWD+IuqG/MjVRIzdaji+qZymavcO596Xo0tkJq/bHxFVK3PnJq/imk2eGIvJx6xDrr0USZGjlK16LC7Yuy+XRY+tvqcV359l/1Kw035qjJepRNs+O6SdiYc1wnR+lzJqiQWjumK9xKrzL1De7hhdQ0OwqpUzJHCqkAAAA9o7zPMJZCavV2/c0nvW3/5BZSW93RqH7utY1CarbPULhDWDb5FemqxYVkKrd2Hd8VUh89q/qczhVS67fsL+0zVC/CkD7n3LtCL1whdSruM7Sdo070GVoUUseWo2a37C/t19XuZjT8KsNphup7dUdne3XZvndDnu4KDxVvj9yt/bopXEiVo07kqHkhtZajbvSCmhRSm91qfHiOLqytSZXZK5x7b5qjZrfsL+Wo+kGJ9DlL1yc5arxCau0CW9m52GqOiudenwqPn51fDXXo0HCDHPV5jpIp5mi0XtAYCqm93wtKp9wLarIerapfpG7mmTcm+WnsMzR0GWrrUeMxXa0TNPTtcH3T9ajZLftLOVpXPL67O8lR966Q2ks5ajth5cBUwjLSG6Hzwul71X+QaSf8tLDwnBAO23tuWFk94fqtRfmbofm1kI1USC1+EmL64ktqC899i78SzrwtCUzhyj/jvTR35U3QCIXUZGpXSc2m1QFcuug44RoTmF15aN54443w85//PHzjG9+ohWX79mpYdo4emH4sLowhR+knXGvlhSxLqxtu7druFVLT2yNXF577F381nHVbkqFCpsZ7ae75V7XaUGgsLtSKdNn8U1hby1GTheee4+u3Tjnz+kqOCldInXlWuvhUcvToWbPCeQ+kGWp2y/764rPf0ltGvWX/sCLd28XbjacZ6r1CqhzVf76mORrlFsmVHJUKQKPcanzu8jRHYy2k3tLk1kWNV0jNbhmRF+kePO0fwtl3Nr4Rqt+yv36Z+xlL1ox6y/6FV5fXo8Km3DXpetSZW/ZXNuZGKKQm61HtKqnZzA43Wo8mzNTIUfWNULoxV3gzVD2uyyZdj5bW154rqxvcCqlyFK9ncpQd07V/hdTpJyfrT56jB07+Wlj6m/xEUW2T+xthXnUDYd8fhAcVUqdejhRSAQAAekZ5n2H0Qmr1dv0jTHbOKC+kPr6otp8w/cSLGss/nbpC6ii37J93ReOHyEcvpFb3GRpv7TrsVuN3H1vY767sM3Tilv3Z1eg6VEh9onr1rIUrKnsMj55e2zvvdiF1Ku0ztJ+jDvQZRr1Can2/bqRb9rcqpNaKP1mhu0mfoXaF1OTX1T5D+Zb9has6zjh9dW2/7uEl/5TfHnkS9uumeCFVjuo/3/hyNPoVUie9FzTKFVJnLEmzVNn33lDLUjFH9YtrLVyV5mj0QuqjZ+XnX+ctq2SovCY13HI8z1H5lv2FK6Tud85vajl64txDw08ekaPqTLTO5KhaSM3PH43WCxpDIbX3e0HpjF5IrV2kbu7FlRwVjukar5CaZiVfj8q37C/8er+zb6utR4+f/Z1w/sPpWjR6IbV2ddTs+C7J0WNL6sd3XSqk9kKO2k5YOTCVsIwUmKsaWtzDprjwNJlaWH7xpYbHp590cRKWi2uXs2+cT1UWnj+0urx9ZbKFJzmAa7zyT2FqJ1xHLqQ2XN7+sJ+0OOGaLjpOuMYEZveureG9Xduy0Lz++uvh6quvDuvXr8/CsmtnNSxjCExfFhdGz1HDwtNkioXUl4flaVll4fn9JS0zlS08T/1y5EylC8+fylfTKsy+6afyxrbwNFzqPt1MGKmQmuRo7dz8uUPfDOuyHP2qxeXu9x5eSB026eXtKzmqXdWxPNnluZ8OT5xT/XRRcUa6Qurd4aczK4/td/69lRxdPzf/vrnhpixHD4QL9st/ryNWy1ELE5Wjld9q8rXs6/PDPVmGhheAVh1Sem519jki3JcdwLVRSG24It03wuqsSLei9rzG+dvhhdRhk346r7IerW04oCvM9OPCI0mOHml6SfvWV0gtHsSlM3Ppr7P1qHal4fJkVxtO16KRC6nFT4nXNuasRxNiKuSodsWFhqlcIbW2SdcwrpAqR53VSzlqVkgt33pl+uJfjHBMl2QnK6TWr9idfThi2MZc4yZ39rzTVslRv+ZIIRUAAKBnlPcZRi0ujHCL5PrewoFhZa2Q+m9hyd7193uN01hILd8iuVICGkMh9Y/rw+rv1L+vYWp3BhtbIfWh06pXoStO5QqprW7Xn061kPr21d9seLxS/ikVUl95JKyrnWMqTXYxhnSfocOF1CZTL6TeE36anyPa//z7KvsMN1TPI80LN2X7DMXzSGvsM5S0naNO9BlaFVIL+3XNpu1CapOpZGhli/NIlckKqc9fW7uFf+N8ViHVft0w3clRMr3WC2pWSH1+9YhZ2tB0fRr7FVJrhdQmU/mQxC219abZVNakVrcZ37fnC6lyNPr5oxF7QYVCav/2gtJpo5DaZCp9hptrt+dvNpVjulZ52qf9QmqTqRdS760du+1//v2VHN0wL39eenyX5ujBhuO7fs9R2wkrB6YSllECk82KpreMmLbogvDiYxcU3vx8IixZ3/xywrVbVCZTWXgqDe5V1du5VufbpxYuKVwvL1TeCDVemju7xP3TtwwPSvrpovySwqMWUu+sXkY4vV1/qxOu6cGbE67xgXk3+et3w/Zt72aXEE7DsnPHtiQkO8YemH4tLoyao3QzoZSlXxeyVCykPnldQ/GnvvBUigu1WyRX5zunJVlKF550lhQy9emw9PbGS3OnC0/6iaLhmUovc998Q6HpwnPXD+u5WlnMUauF52e1DYSh6T8Kj+Y5GraJMDf9JFGaoeIt++uXuc8WlgcbczSslLogveV4JUfDC6nTsoO4So56tZAqRyPnqEkJ6JCTKm+Csgw1KwA1KdNla1H1EvftFVIbbjGevAl6oHyJ++rMPjdfj4pvhM4v3AIiv3VRYT2q3aK/OnMurOVoeCE1L6Nm61GTQmoytdsWJVMtpKbr0bDczF9eWI9GKaQ+clrtU0NHrLMeTaSpkKPhhdS0UFdZj4Zv0qVl1OIGt0KqHMXrrRw1KaT+/oaGY7tKIbVyXHdt+eTQd85M1qL62jQ09PWwOjtJVDy2q+dodeFOEQqpfZwjhVQAAICeUd5nGLm4ULiK1l6HhbsebSykvlC4NfKcS6qF1MYr0g0NfSlc3eKW/eX9unYKqU1LqdUrO0YVUj8Tzr6rus+wplAISktAw2/Zn+4z1C9o0rqQmu4xDDuflN1dr7rP0KFb9r99Z+0cUXZxk+Tf2fBb9nezkDo19hnay9FY9+tG6TO0LKSmc0rh3Gq6bzeOW/Y/fUVhzy69IEM5Q+mcU8tP5YImxTzV9+sar0aXTEMBaIL36waikCpH489RZe+7p3pBTQuplX3vpllKcjS8kPrZcO491RyN4Zb9r9xUKNGlF9tqvGV/JUf1NSjrNzzUeMv+ao5uWFB9Tj4Lr5Sjwky0icnRKL2gYiG1b3tB6YxeSN30cvEidXuFc+9v1mcoXqguzVP5mK6yHrXuBI3hlv2bSsd3jzW7ZX83CqndzVHbCSsHphKWsQXm+fIbocdWZVM94Vp7I5ReUviJ1ZUFp3bCtR6YxgO4/JLCeWDSE6714kL+RqgWmJsLJ12/FlbXDuCqBaBKYCqTX1I4W3iKb4SGFxdqb4am/Ut4OAtNsxOu6cGbE66dCEwlNNvCjiQsO9Kw7E7D0kZg+ry40As5Kr4Rqm8ofD2sjshReeF5+PRqrv41PDwhOSoWUuVIjrqbo/qGwnjXo+ZvhPq1AFT7lPjM08KTcjSh5EghVY7iyVFxY06O+jJHCqkAAAA9o7zP0E5xwT7DBO8zDEiRbirsM3QlR4Us9UqO1tQ+TH5QWCNHctSmfs9Rx3pBfbIe1ct03wk3yNEUy1EyPbAeRfWCRshR817QxOWofrGt6l2TJ3I9SmaAc9R2wsqBqYSlV98Itb4094yTl0cdwKXFhfpBXGUWZFdHbbXwpGGZ4IVngE64ppcWfm93OtvbD4ziQsTC0/rS3DNOuWJcOSovPOVPEqWfgpiYHCmkylG3cjT8AC6+SDc1Cqm/Kn1K74i1cjTR5Kj1etSvObIeyVHXcqSQ2r85UkgFAADoGeV9BoXUHtpnGKAiXb/vM3QlR4UsdSdHrW/ZP+O0a+RIjtrWXzmawF5QT65HrW/Zv9/Zt8nRlMtRMpO+HnW4F9QkRyP3gjqVo9a37J+59JZJWI+SGeActZ2wcmAqYenVN0LNFp5PhaW3d+CNUKmQOnoBKA3LBC88TriOLTCKCx1eeNJbI48/RyMtPAtWTmSOFFLlqFs5itlQaJWjqVdIPWKtHKUz0eSo9XrUrzmyHslR13KkkNq/OVJIBQAA6BnlfQaF1B7aZ1Ck65t9hq7kqJCl7uSoWSE1vW2/HMnR+PRXjiawF9Q3hdT0tv1yNDVzlMykr0cd7gWNUkgd3gvqVI6aFVLT2/ZP1nqUzADnqO2ElQNTCcsAvhFqu7iQhmWCFx4nXMcWGMUFOZIjORroHHXqAE6O5EiO5EiOUnLUekNBjvokRwqpAAAAPaO8z6CQ2kP7DIp0fbPP0JUcFbIkR3IkR3IkR3KU6kyOkpGjPs1RMgOco7YTVg5MJSwD+EZIkW5sgVFcaEqO5EiO4snReHM0CQdwciRHciRHcjR4OVJI7d8cKaQCAAD0jPI+g0JqD+0zKAD1zT5DV3JUyJIcyZEcyZEcyVGqMzlKRo76NEfJDHCO2k5YOTCVsAzgGyFFurEFRnGhKTmSIzmKJ0fjzdEkHMDJkRzJkRzJ0eDlSCG1f3OkkAoAANAzyvsMCqk9tM+gANQ3+wxdyVEhS3IkR3IkR3IkR6nO5CgZOerTHCUzwDlqO2HlwFTCMoBvhBTpxhYYxYWm5EiO5CieHI03R5NwACdHciRHciRHg5cjhdT+zZFCKgAAQM8o7zMopPbQPoMCUN/sM3QlR4UsyZEcyZEcyZEcpTqTo2TkqE9zlMwA56jthJUDUwnLAL4RUqQbW2AUF5qSIzmSo3hyNN4cTcIBnBzJkRzJkRwNXo4UUvs3RwqpAAAAPaO8z6CQ2kP7DApAfbPP0JUcFbIkR3IkR3IkR3KU6kyOkpGjPs1RMgOco7YTVg5MJSwD+EZIkW5sgVFcaEqO5EiO4snReHM0CQdwciRHciRHcjR4OVJI7d8cKaQCAAD0jPI+g0JqD+0zKAD1zT5DV3JUyJIcyZEcyZEcyVGqMzlKRo76NEfJDHCO2k5YOTCVsAzgGyFFurEFRnGhKTmSIzmKJ0fjzdEkHMDJkRzJkRzJ0eDlSCG1f3OkkAoAANAzyvsMCqk9tM+gANQ3+wxdyVEhS3IkR3IkR3IkR6nO5CgZOerTHCUzwDlqO2HlwFTCMoBvhBTpxhYYxYWm5EiO5CieHI03R5NwACdHciRHciRHg5cjhdT+zZFCKgAAQM8o7zMopPbQPoMCUN/sM3QlR4UsyZEcyZEcyZEcpTqTo2TkqE9zlMwA56jthJUDUwnLSIE5L5y+18fC6TfWA3P3CR9LfqiPhSU39/EbIUW6sQVGcaEpOZIjOYonR+PN0SQcwMmRHMmRHMnR4OVIIbV/c6SQCgAA0DPK+wyjFxfsM0zaPoMCUN/sM3QlR4UsyZEcyZEcyZEcpeRo0HOUzADnqO2ElQNTCUsbgVn2hTC095xwd79/Mk+RbmyBUVxoSo7kSI7iydF4czQJB3ByJEdyJEdyNHg5Ukjt3xwppAIAAPSM8j5D28UF+wwTt8+gANQ3+wxdyVEhS3IkR3IkR3IkRyk5GvQcJTPAOWo7YeXAVMIyxsCkYRn6QljZ5NLcK79V+IH3nh/uzgNzz4mfqD8+9KWwqiEwF4cz96l/3/TFl+SBubT0+C87HxhFurEFRnGhKTmSIzmKJ0fjzdEkHMDJkRzJkRzJ0eDlSCG1f3OkkAoAANAzyvsMbRUX7DNM7D6DAlDf7DPIkRzJUTw5kiM5iteZHA2/Zb8c9UuOkhngHLWdsHJgKmEZQ2AuPixMq4alxcIz55Jrw4vr54VptcBcFM44ZH64J29vX31I8uI/6ed5YCphmX7SsrzBfUo4MwtMJSzTF1+aN7hPC2dNRGAU6cYWGMWFpuRIjuQonhyNN0eTcAAnR3IkR3IkR4OXI4XU/s2RQioAAEDPKO8zjLm4YJ9h4vcZFID6Zp+hKzl6onJFOjmSIzmSIzmSo6rO5CgZOerTHCUzwDlqO2HlwFTCMlpgKj/EtBPOr4Rl2MJzQViyd7PANF5O+KVffCkMHbK4EphbFobp+ywM95YvKXzrEcnjR4T7JvqSwop0YwuM4kJTciRHchRPjsabo0k4gJMjOZIjOZKjwcuRQmr/5kghFQAAoGeU9xnGVlywz6AAZJ+hqCs5qmZJjuRIjuRIjuQo15kcJSNHfZqjZAY4R20nrByYSlhGC8zHwuk3Hh8OS36Qw5Y1W3gWhTlDnwhL1jcJzKVJSIp/mGpgLvty/telwFz2lTD07VPDxokOjCLd2AKjuNCUHMmRHMWTo/HmaBIO4ORIjuRIjuRo8HKkkNq/OVJIBQAA6BnlfYYxX0nLPsPE7zMoAPXNPoMcyZEcxZMjOZKjeJ3JUTJy1Kc5SmaAc9R2wsqBqYRlLIFZEZ6/Kb2scBqa0sJz89wkJHPD3Y+XApOGJfnr6q0iGhrcaWCaNbjTwExGg1uRbmyBUVxoSo7kSI7iydF4czQJB3ByJEdyJEdyNHg5Ukjt3xwppAIAAPSM8j7D2IsL9hkmfJ9BAahv9hm6kqO0CCRHciRHciRHclTQmRyVCqly1Ec5SmaAc9R2wsqBqYRljIF5dEV44aY5SWg+FpbcXA/Mym8NhWmLLggvlgJzz4mfSAJyUiUsyVx9SPKHqQbmd4vD3OQPNveyamBOCWcuviT5/1Mrjy+vBua0cNbiX3Y+MIp0YwuM4kJTciRHchRPjsabo0k4gJMjOZIjOZKjwcuRQmr/5kghFQAAoGeU9xnaKi7YZ5jYfQYFoL7ZZ+hKjvICkBzJkRzJkRzJUZUcDXqOkhngHLWdsHJgKmFpIzDp5YSXHZj9UIctuyAs2Tv5AbP29jXDAvPSExeFM9Kv53+IOYcUGty/W1sLTfXrcy9LW9w3hI1/qISm9vjyNCwdDowi3dgCo7jQlBzJkRzFk6Px5mgSDuDkSI7kSI7kaPBypJDavzlSSAUAAOgZ5X2GtosL9hkmbp9BAahv9hnkSI7kKJ4cyZEcxetMjr6Q/axy1I85SmaAc9R2wsqBqYRlpMBclU8hMI+m7e16g/vFx9Kw5IHJZnV4MQvMv1cm/2ReOi8/mYalGph0qg3uNCzVwKRTbXCnMwGBUaQbW2AUF5qSIzmSo3hyNN4cTcIBnBzJkRzJkRwNXo4UUvs3RwqpAAAAPaO8zzB6ccE+w6TtMygA9c0+Q1dyVMiSHMmRHMmRHMlRqjM5SkaO+jRHyQxwjtpOWDkwlbAM4BshRbqxBUZxoSk5kiM5iidH483RJBzAyZEcyZEcydHg5UghtX9zpJAKAADQM8r7DAqpPbTPoADUN/sMXclRIUtyJEdyJEdyJEepzuQoGTnq0xwlM8A5ajth5cBUwjKAb4QU6cYWGMWFpuRIjuQonhyNN0eTcAAnR3IkR3IkR4OXI4XU/s2RQioAAEDPKO8zKKT20D6DAlDf7DN0JUeFLMmRHMmRHMmRHKU6k6Nk5KhPc5TMAOeo7YSVA1MJywC+EVKkG1tgFBeakiM5kqN4cjTeHE3CAZwcyZEcyZEcDV6OFFL7N0cKqQAAAD2jvM+gkNpD+wwKQH2zz9CVHBWyJEdyJEdyJEdylOpMjpKRoz7NUTIDnKO2E1YOTCUsA/hGSJFubIFRXGhKjuRIjuLJ0XhzNAkHcHIkR3IkR3I0eDlSSO3fHCmkAgAA9IzyPoNCag/tMygA9c0+Q1dyVMiSHMmRHMmRHMlRqjM5SkaO+jRHyQxwjtpOWDkwlbAM4BshRbqxBUZxoSk5kiM5iidH483RJBzAyZEcyZEcydHg5UghtX9zpJAKAADQM8r7DAqpPbTPoADUN/sMXclRIUtyJEdyJEdyJEepzuQoGTnq0xwlM8A5ajth5cBUwjKAb4QU6cYWGMWFpuRIjuQonhyNN0eTcAAnR3IkR3IkR4OXI4XU/s2RQioAAEDPKO8zKKT20D6DAlDf7DN0JUeFLMmRHMmRHMmRHKU6k6Nk5KhPc5TMAOeo7YSVA1MJywC+EVKkG1tgFBeakiM5kqN4cjTeHE3CAZwcyZEcyZEcDV6OFFL7N0cKqQAAAD2jvM+gkNpD+wwKQH2zz9CVHBWyJEdyJEdyJEdylOpMjpKRoz7NUTIDnKO2E1YOTCUsA/hGSJFubIFRXGhKjuRIjuLJ0XhzNAkHcHIkR3IkR3I0eDlSSO3fHCmkAgAA9IzyPoNCag/tMygA9c0+Q1dyVMiSHMmRHMmRHMlRqjM5SkaO+jRHyQxwjtpOWDkwlbAM4BshRbqxBUZxoSk5kiM5iidH483RJBzAyZEcyZEcydHg5UghtX9zpJAKAADQM8r7DO0WF57dcFW4++YLws/O/n6441fnh2cfWWmfoVP7DApAfbPP0JUcFbIkR3IkR3IkR3KU6kyOfipHfZujZAY4R20nrByYSljGHhhFOidcux4YxQU5kiM5GugcTcIBnBzJkRzJkRwNXo4UUvs3RwqpAAAAPaO8z9BuceFPD14Rrr3sxPA//5/PhmO//83wm+vPCy88uso+Qyf2GRSA+mafoSs5KmRJjuRIjuRIjuQoJUeDnqNkBjhHbSesHJhKWMYeGEU6J1y7HhjFBTmSIzka6BxNwgGcHMmRHMmRHA1ejhRS+zdHCqkAAAA9o7zPMJ7iwlUX/yh86uN/E776pf83nLfkB+HOX/0kPPfI1SPsMywOcxreB34prOrAPsPq7wyFeZfH7zOsmT0U5q+o7jOsDmdPK/6sQ2HmkjWTs8+gANQ3+wxdydETJ8mRHMmRHMmRHDXoTI6Ol6O+zVEyA5yjthNWDkwlLGMPjCKdE65dD4zighzJkRwNdI4m4QBOjuRIjuRIjgYvRwqp/ZsjhVQAAICeUd5nGK248Jt1Z4f/WHNWZa47K6y/9oywdPGCsPde/1c48cRF4YzTTgjnnPq9cPf6C5vvM1z6peR93yfDGbcU9hluWRDmnnRx9D7DxBUXPhPOvru6z7AmnDOtWl6Y4H0GBaC+2WfoTo4+IUdyJEdyJEdy1KAzOZovR32bo2QGOEdtJ6wcmEpYWgdGcUGRrucCo7ggR3IkR4p0ciRHGTmSIzmKJ0fDNxTkqM9ypJAKAADQM8r7DKMVF445/O/D3EMOTOZ/ZXPYrC+EL/5//3fY67N/G9asWRNuuGFd+PGx3ws/PeN7TfYZ0ito1UsLzfcZTglzi+8Rv31qYZ/htORrXw3X3nZkmF79+neWhFf/uDws3bfwPUNfD6uzfYalYV7tsb8NS++o7jOcHeYP/UNYfefRYUb167PPDW88d03pqln/GNYMKy7cE95a+U9haM4F2T7DhiWfLTz/m2Ftwz7DRWFh7WsHh3XXHByG5l5c2GdYFg6vfX3vcN4DpX0GBaC+2WfoSo5+Xd+zk6Pq1+VIjuSoMnIkR3I0mDlKZoBz1HbCDjrooLBx48ZaYCphaR0YxYXqCVdFup4JTF5ceOf1P3Zt4ZEjOZKjeHKkSCdH8eRIjuQonhwppPZ9jvINhW7mCAAAgIr0fVk7xYXTfjw7/OjobyZzcDbHfu+fw6yD/t+wz16fCStWrAgrV14ZTjj2yHDZvx07fJ8hvYrW3vPDPS33GS4OZ+4zFOZeVt1nuCT79fTFl+b7DGlxIXnfuM+R4f5sn2FJ9ut5yyv7DI1X0royKzPMuyLfZ/jtD8KMfX8QHsz2GNLiQvL7TDs6PJjtM5yb/Xr+iso+w8hX0rqnUFy4Lpwz57iwId9nWDtnKMw84/p8n+H6cO70obBwVXWf4eJKiaFWXLgp+/rhq/N9hgcWhZkzFoXHivsMCkBt7TP0UwGoIzkq7NnJkRzJkRzJkRyl5GjQc5TMAOeo7YQtWLAgPPbYY7XAVMLSOjCKC9UTrop0PROYvLjw8vNPhs9//vNtBaZT5EiO5CieHI03RwpAclQnR3IkR/HkKM+RQmr/5ijfUOhmjgAAAKhot7jwyG9/Hh66/WfJXBQe+s1F4f5bLgwXnf2D8NnPfCIcvnB+OHnRMeGS8/81PHbXL4bvM6TFhUNOar3PcNmXw9A+h4d7i/sMtx4Rpu9zRLgv22dIiwufCmfdVt9nuPY7Q2HGycuzfYaG4sLlXw9D+34/PFDbZ1gRlu6bXk0r3WNIiwvJX99Z32dIywozTrsm22cYubhwQViQvG9dsLLJPsPV3wxDc35W2WdYlfz19OPDo8V9huKVtK6dlXz9hPBYbZ9hfThvRvVqWvk+gwJQW/sM/VQA6kiOCnt2ciRHciRHciRHKTka9BwlM8A5ajthxx13XLj99tuzE6YDfcJVkW5sgenh4sLvnngk7L///m0FplPkSI7kKJ4cjTdHTQ7g5EiO5EiO5Gjc5CjPkUJq/+Yo31DoZo4AAACoaLe4UN5n+NODV4Qrf358+L8+8TfhG185IPziguPCI7+9JPnaquH7DGMppB5ySmmf4dQwd+gr4ZpsnyEtLnw1XFvYZ7j/5E+1Li40eb85/8p0jyEtLvxDWF3YZ3jotL8dobjQ+HtUSgv5PsPKf274WkNxYe5FjfsM5eJC8fvyOXx1YZ9BAaitfYZ+KgB1JEeFPTs5ahw5kiM5SkaO5GjcOTpOjqrTdzlKZoBz1HbCbrzxxnDKKaeE15+7KwtMJSxjD4winROuXQ9MeD/5//fDsmXLwn//7/+9rcB0ihzJkRzFk6Px5qiaJTmSIzmSIznqBDnKc6SQ2r85SjLU7RwBAABQEVtceOahK8P1V50aDv6HA8JPlhwZHvrNxSPsM5wU5gx9IpxxS4t9hjFdSauN4sKhS1vsM7RbXCjd2rW6z5CWFqbVb+067EpapeLCo2fu1VhcmLts5H0GBaAx7zOk+rkANK4c/bq+ZydHciRHciRHcpTqTI5OkaO+zVEyA5yjthP25ptvhoMOOihsevPFSjiysIw9MIp0Trh2PTDh/fDee++FQw89NPz5n/95W4HpFDmSIzmKJ0fjzVE1S3IkR3IkR3LUCXKU50ghtX9z9H73cwQAAEBFbHHhuQ0rwsO/uTisuXxxePi3y0bdZ7jnxE8k7/s+WSulZvsMtywIc0+6OLz8u8VhbvKecO5l1X2GS8KZ+wyF6YsvzfcZRi8uzDgl+etsn2FpmJf8XvOuaLbPMHpxYcbp1+Z7DK2LCxuWfDYMzbmwts+wdk7ynrZaXHj5orAw+fsvXFXdZ7g4+3WtuPDKsuzXh68eYZ9BAWjM+wypfi4AjS9H9XK3HMmRHMmRHMlRqjM5+rkc9W2OkhngHI0rYT/5yU/CihUrwpsvPZSHZeyBUaRzwrXbgdmzZ092W9V99tmnaVjSmQxyJEdyFE+OFOnkKJ4cyZEcxZMjhVQ5AgAAoBNiiwvpPsPzj6wMz2y4Kjz3SGWvYdR9hl98qfF94D4Lwr21fYZTsvJC9WuV0kJ1n2Hk4sKrtx8VZmTf9/WwOt1n+O3381/ns+8PwoPZHsPIxYU37vyX/Pv+MawZ6UpaL14Xzinc9nXhnMKVtNJ9hnuPDzOrf++hg8O64q1d032G+08ofD2ZGYvCY8V9BgWgMe0zJP+TvZb7uQA0rhylt0ou/jnlqDJyJEdyJEdyFJmjFXKUTH/mKJkBztG4EpZeBWjWrFnhrTffSF6w69oOjCKdE67dDMy7774b5s+f3/LqP+lMBjmSIzmKJ0eKdHIUT47kSI7iyZFCqhwBAADQCZ0oLthnGNs+Q3pr15ln3Tj2fQYFoDHtMyT/k72W+70A1HaOClmSIzmSIzmSIzlKdSZHychRn+YomQHO0bgTdu+994ajjz46vLv5tSwAA/dGSJFubIHpsROu6X/szzzzzPDf/tt/axqU6kwWOZIjOYonRxN/ACdHciRHciRHoxv4HCmkyhEAAADRulIAGsR9hvt+HGYO7RXOvb+NfQYFoFH3GdJJ/id7LSvSyZEcyZEcyZEcKaQOdo6SGeAcRSXs8ssvD6ecckrY/M4byYvu1jYC0+bCk4elpwKjSDe2wPTICdc9yezevSssW7YsfOYzn2kakupMnz49f4VPDjmSIzmKJ0ft5KjNAzg5kiM5kiM5GrOBzpFCqhwBAAAQrSsFoIHYZ7goLGx4v7tXOPe+NvcZFIBa7jMo0jVmSY7kSI7kSI7kKNWZHCUjR32ao2QGOEfRCbvuuuvCkUceGZ5++unkB/hDFoCOLzx5WHoqMIp0YwtMD5xw3fPee+HVV18NixYtCp/85CebBqQ43SBHciRH8eRorDka7QBOjuRIjuRIjmIMbI4UUuUIAACAaF0pANlnGNs+gwJQ030GRbo8R4UsyZEcyZEcyZEcpTqTo2TkqE9zlMwA56gjCXv88cfDrFmzwnnnnRd+92TyL/ONp5MX2x21F2Nlbs3nPyqTvChfTV6U6bz2p9uT56fzm/oUXpyvJy/O6rzxbPVF2vhifSN5oVbm7vBG8mJNp/qCfTN5wVbmvvBm9qKtTuXF+1bDC7fxBfx28gKuzIbwdvICrk7xRbzplcfCptoLufBifjV5ESez+dXkhZy+mLMpvKCzqbygG17Y2SQv6nTSF3ZhKi/w/EVeeqHXXuzZFF7s1Ule9O8mL/jK1F/09dmYzfbNhRd/dWohSANQD0F93sznrbCjGoY8EDuTIKSza3slDLuSMBRn944kENVJg5HNu0lAirMt+Q91JSCV2VGbPbsLQclmd3gv+f/0ij/PPvtsdtWfAw44IPzX//pfm4ajON28+o8cyZEcxZMjOZKjeHIkR3IUbyBztFGO5AgAAIBYXSkA5aUFxQUFIAUgRTo5kqMqOZIjOYrXmRwppPZvjhRSO2bVqlVh9uzZ4aCDDgrHHntsdqLLmG5MerWftASw//77h7/5m78JH/jAB5oGozgf+tCH8ldyd8mR6ZWRI2PiR46MiR85MiZ++jlHAAAAg6QrBaC8tKC4oACkAKRIJ0dyVCVHciRH8TqTI4XU/s2RQmrHbdy4MXz4wx8OH/nIR4zpyvzlX/5l+LM/+7OmYWg2H/zgB/NXb++QI9PtkSNj4keOjIkfOTImfqZCjgAAAAZBVwpAeWlBcUEBSAFIkU6O5KhKjuRIjuJ1JkcKqf2bI4XUCfPRj3606Q9jTC9Nr1/5R45MP4wcGRM/cmRM/MiRMfHjyqgAAADd05UCUF5aUFxQAFIAUqSTIzmqkiM5kqN4ncmRQmr/5kghdcKlV1dp9kMZ0+3pJ3JkenX6iRyZXp1+IkemV6efyJHp1QEAAKC7ulIAyksLigsKQApAinRyJEdVciRHchSvMzlSSO3fHCmkTpqPf/zjTX84YyZz0itT9TM5Mr0wcmRM/MiRMfEjR8bET7/nCAAAYCo58MADwzvvvDO5BaC8tKC4oAA0VQpAXcmRApAcyZEcyZEclXQmRwqp/ZsjhVQAAAAAAAAAumjWrFnhueeem9wCUF5aUFxQAOpkceGtV58O++23X1vFhU7pSo4UgORIjuRIjuSopDM5Ukjt3xxNnULqeHKkkAoAAAAAAADQZUcddVS4//77J7cAlJcWFBcUgDpZXHj+T4+Fz3/+820VFzqlKzlSAJIjOZIjOZKjks7kSCG1f3M0dQqp48mRQioAAAAAAABAl1100UXhl7/8Zdj4h5smrwCUlxYUFxSAOllcWL9+ffi7v/u7tooLndKVHCkAyZEcyZEcyVFJZ3KkkNq/OZo6hdTx5EghFQAAAAAAAKDLHn744XDkkUeGt195QiFVAahviwt79uwJp5xySvirv/qrtooLndKVHCkAyZEcyZEcyVFJZ3KkkNq/OZoahdTx5kghFQAAAAAAAKAHzJ49Ozz5xOPhxSfWKKQqAPVlceG1114LBxxwQPjABz7QVnGhkyY9RwpAciRHciRHctREfI4UUvs3R1OjkDreHCmkAgAAAAAAAPSAO+64Ixx77LFh66aNCqkKQH1XXHhv9+5w3nnnhY985CNNSwvpTIZJz5ECkBzJkRzJkRw1EZ8jhdT+zVH/F1JjcqSQCgAAAAAAANAjjjvuuHD77beHN196YOILQHlpQXFBAagTxYUNGzaEz3/+8y2vopXOZJnUHCkAyZEcyZEcyVELcTlSSO3fHPV/ITUmRwqpAAAAAAAAAD1i586dlVu8Pvl4eP3ZOye2AJSXFhQXFIBiiwsvv/xyOPDAA8N//s//uWlhIZ0PfehD+at84k1qjhSA5EiO5EiO5KiFuBwppPZvjvq7kBqbI4VUAAAAAAAAgB6ycePGsGDBguyKWpvfei4rHUxIASgvLSguKACNt7iwe/fu7ApaaWnhz//8z5sWFqoz2SYtRwpAciRHciRHcjSC8edIIbV/c9SfhdRO5UghFQAAAAAAAKDHbNmyJbvN66JFi8LGl18Ib730YHjxiX9XSFUA6oniwp73dodNmzaF8847L8ycOXPEK2il88EPfjB/ZU+uSclRIUtyJEdyJEdyJEfNjC9HCqn9m6P+KqR2OkcKqQAAAAAAAAA96tZbbw0HHXRQOPbYY8P1118ffv/Eg2HrppeazMsjzMb6vNN83n3nlVHm1fDu5lbzWsvZtvn1sG3LSPPGCPNm2La19Wzf+tYI83bY/u5Is2nk2ZbOO7XZMWw2t57t6WwZYbY2zM7q7Ejn3VFmW/PZmc72htnVdHYMn13F2TnC7AovvPBCWL9+fVao+R//43+Ej3zkI02LCuXpNjlqPc3zU51m2SlOKTflkaMmI0dyVJ5SbsojR01GjuSoPKXclEeOmszE5UghFQAAAAAAAKCH7dy5M9xxxx1ZgWH//fcPn/vc54zpyqSvv7/7u78Lf/mXfxn+03/6T01LCuX54he/mL+Su0uOTK+MHBkTP3JkTPxMVI4UUgEAAAAAAAD6xN///d83PTlsTC/O9OnT81dub5Ej008jR8bEjxwZEz9jzZFCKgAAAAAAAECf+eAHP9j0RLExvTL9QI5Mr08/kCPT69MP5Mj0+rRDIRUAAAAAAACgD6W3zGx2wtiYbk6vXoWuFTkyvThyZEz8yJEx8TOeHCmkAgAAAAAAAEwB6QljY7oxU0mzP58xkzFTSbM/nzGTMVNJsz+fMZMxsRRSAQAAAAAAAAAAAIiikAoAAAAAAAAAAABAFIVUAAAAAAAAAAAAAKIopAIAAAAAAAAAAAAQRSEVAAAAAAAAAAAAgCgKqQAAAAAAAAAAAABEUUgFAAAAAAAAAAAAIIpCKgAAAAAAAAAAAABRFFIBAAAAAAAAAAAAiKKQCgAAAAAAAAAAAEAUhVQAAAAAAAAAAAAAoiikAgAAAAAAAAAAABBFIRUAAAAAAAAAAACAKAqpAAAAAAAAAAAAAERRSAUAAAAAAAAAAAAgikIqAAAAAAAAAAAAAFEUUgEAAAAAAAAAAACIopAKAAAAAAAAAAAAQBSFVAAAAAAAAAAAAACiKKQCAAAAAAAAAAAAEEUhFQAAAAAAAAAAAIAoCqkAAAAAAAAAAAAARFFIBQAAAAAAAAAAACCKQioAAAAAAAAAAAAAURRSAQAAAAAAAAAAAIiikAoAAAAAAAAAAABAFIVUAAAAAAAAAAAAAKIopAIAAAAAAAAAAAAQRSEVAAAAAAAAAAAAgCgKqQAAAAAAAAAAAABEUUgFAAAAAAAAAAAAIIpCKgAAAAAAAAAAAABRFFIBAAAAAAAAAAAAiKKQCgAAAAAAAAAAAEAUhVQAAAAAAAAAAAAAoiikAgAAAAAAAAAAABBFIRUAAAAAAAAAAACAKAqpAAAAAAAAAAAAAERRSAUAAAAAAAAAAAAgikIqAAAAAAAAAAAAAFEUUgEAAAAAAAAAAACIopAKAAAAAAAAAAAAQBSFVAAAAAAAAAAAAACiKKQCAAAAAAAAAAAAEEUhFQAAAAAAAAAAAIAoCqkAAAAAAAAAAAAARFFIBQAAAAAAAAAAACCKQioAAAAAAAAAAAAAURRSAQAAAAAAAAAAAIiikAoAAAAAAAAAAABAFIVUAAAAAAAAAAAAAKIopAIAAAAAAAAAAAAQRSEVAAAAAAAAAAAAgCgKqQAAAAAAAAAAAABEUUgFAAAAAAAAAAAAIIpCKgAAAAAAAAAAAABRFFIBAAAAAAAAAAAAiKKQCgAAAAAAAAAAAEAUhVQAAAAAAAAAAAAAoiikAgAAAAAAAAAAABBFIRUAAAAAAAAAAACAKAqpAAAAAAAAAAAAAERRSAUAAAAAAAAAAAAgikIqAAAAAAAAAAAAAFEUUgEAAAAAAAAAAACIopAKAAAAAAAAAAAAQBSFVAAAAAAAAAAAAACiKKQCAAAAAAAAAAAAEEUhFQAAAAAAAAAAAIAoCqkAAAAAAAAAAAAARFFIBQAAAAAAAAAAACCKQioAAAAAAAAAAAAAURRSAQAAAAAAAAAAAIiikAoAAAAAAAAAAABAFIVUAAAAAAAAAAAAAKIopAIAAAAAAAAAAAAQRSEVAAAAAAAAAAAAgCgKqQAAAAAAAAAAAABEUUgFAAAAAAAAAAAAIIpCKgAAAAAAAAAAAABRFFIBAAAAAAAAAAAAiKKQCgAAAAAAAAAAAEAUhVQAAAAAAAAAAAAAoiikAgAAAAAAAAAAABBFIRUAAAAAAAAAAACAKAqpAAAAAAAAAAAAAERRSAUAAAAAAAAAAAAgikIqAAAAAAAAAAAAAFEUUgEAAAAAAAAAAACIopAKAAAAAAAAAAAAQBSFVAAAAAAAAAAAAACiKKQCAAAAAAAAAAAAEEUhFQAAAAAAAAAAAIAoCqkAAAAAAAAAAAAARFFIBQAAAAAAAAAAACCKQioAAAAAAAAAAAAAURRSAQAAAAAAAAAAAIiikAoAAAAAAAAAAABAFIVUAAAAAAAAAAAAAKIopAIAAAAAAAAAAAAQRSEVAAAAAAAAAAAAgCgKqQAAAAAAAAAAAABEUUgFAAAAAAAAAAAAIIpCKgAAAAAAAAAAAABRFFIBAAAAAAAAAAAAiKKQCgAAAAAAAAAAAEAUhVQAAAAAAAAAAAAAoiikAgAAAAAAAAAAABBFIRUAAAAAAAAAAACAKAqpAAAAAAAAAAAAAERRSAUAAAAAAAAAAAAgikIqAAAAAAAAAAAAAFEUUgEAAAAAAAAAAACIopAKAAAAAAAAAAAAQBSFVAAAAAAAAAAAAACiKKQCAAAAAAAAAAAAEEUhFQAAAAAAAAAAAIAoCqkAAAAAAAAAAAAARFFIBQAAAAAAAAAAACCKQioAAAAAAAAAAAAAURRSAQAAAAAAAAAAAIiikAoAAAAAAAAAAABAFIVUAAAAAAAAAAAAAKIopAIAAAAAAAAAAAAQRSEVAAAAAAAAAAAAgCgKqQAAAAAAAAAAAABEUUgFAAAAAAAAAAAAIIpCKgAAAAAAAAAAAABRFFIBAAAAAAAAAAAAiKKQCgAAAAAAAAAAAEAUhVQAAAAAAAAAAAAAoiikAgAAAAAAAAAAABBFIRUAAAAAAAAAAACAKAqpAAAAAAAAAAAAAERRSAUAAAAAAAAAAAAgikIqAAAAAAAAAAAAAFEUUgEAAAAAAAAAAACIopAKAAAAAAAAAAAAQBSFVAAAAAAAAAAAAACiKKQCAAAAAAAAAAAAEEUhFQAAAAAAAAAAAIAoCqkAAAAAAAAAAAAARFFIBQAAAAAAAAAAACCKQioAAAAAAAAAAAAAURRSAQAAAAAAAAAAAIiikAoAAAAAAAAAAABAFIVUAAAAAAAAAAAAAKIopAIAAAAAAAAAAAAQRSEVAAAAAAAAAAAAgCgKqQAAAAAAAAAAAABEUUgFAAAAAAAAAAAAIIpCKgAAAAAAAAAAAABRFFIBAAAAAAAAAAAAiKKQCgAAAAAAAAAAAEAUhVQAAAAAAAAAAAAAoiikAgAAAAAAAAAAABBFIRUAAAAAAAAAAACAKAqpAAAAAAAAAAAAAERRSAUAAAAAAAAAAAAgikIqAAAAAAAAAAAAAFEUUgEAAAAAAAAAAACIopAKAAAAAAAAAAAAQBSFVAAAAAAAAAAAAACiKKQCAAAAAAAAAAAAEEUhFQAAAAAAAAAAAIAoCqkAAAAAAAAAAAAARFFIBQAAAAAAAAAAACCKQioAAAAAAAAAAAAAURRSAQAAAAAAAAAAAIiikAoAAAAAAAAAAABAFIVUAAAAAAAAAAAAAKIopAIAAAAAAAAAAAAQRSEVAAAAAAAAAAAAgCgKqQAAAAAAAAAAAABEUUgFAAAAAAAAAAAAIIpCKgAAAAAAAAAAAABRFFIBAAAAAAAAAAAAiKKQCgAAAAAAAAAAAEAUhVQAAAAAAAAAAAAAoiikAgAAAAAAAAAAABBFIRUAAAAAAAAAAACAKAqpAAAAAAAAAAAAAERRSAUAAAAAAAAAAAAgikIqAAAAAAAAAAAAAFEUUgEAAAAAAAAAAACIopAKAAAAAAAAAAAAQBSFVAAAAAAAAAAAAACiKKQCAAAAAAAAAAAAEEUhFQAAAAAAAAAAAIAoCqkAAAAAAAAAAAAARFFIBQAAAAAAAAAAACCKQioAAAAAAAAAAAAAURRSAQAAAAAAAAAAAIiikAoAAAAAAAAAAABAFIVUAAAAAAAAAAAAAKIopAIAAAAAAAAAAAAQRSEVAAAAAAAAAAAAgCgKqQAAAAAAAAAAAABEUUgFAAAAAAAAAAAAIIpCKgAAAAAAAAAAAABRFFIBAAAAAAAAAAAAiKKQCgAAAAAAAAAAAEAUhVQAAAAAAAAAAAAAoiikAgAAAAAAAAAAABBFIRUAAAAAAAAAAACAKAqpAAAAAAAAAAAAAERRSAUAAAAAAAAAAAAgikIqAAAAAAAAAAAAAFEUUgEAAAAAAAAAAACIopAKAAAAAAAAAAAAQBSFVAAAAAAAAAAAAACiKKQCAAAAAAAAAAAAEEUhFQAAAAAAAAAAAIAoCqkAAAAAAAAAAAAARFFIBQAAAAAAAAAAACCKQioAAAAAAAAAAAAAURRSAQAAAAAAAAAAAIiikAoAAAAAAAAAAABAFIVUAAAAAAAAAAAAAKIopAIAAAAAAAAAAAAQRSEVAAAAAAAAAAAAgCgKqQAAAAAAAAAAAABEUUgFAAAAAAAAAAAAIIpCKgAAAAAAAAAAAABRFFIBAAAAAAAAAAAAiKKQCgAAAAAAAAAAAEAUhVQAAAAAAAAAAAAAoiikAgAAAAAAAAAAABBFIRUAAAAAAAAAAACAKAqpAAAAAAAAAAAAAERRSAUAAAAAAAAAAAAgikIqAAAAAAAAAAAAAFEUUgEAAAAAAAAAAACIopAKAAAAAAAAAAAAQBSFVAAAAAAAAAAAAACiKKQCAAAAAAAAAAAAEEUhFQAAAAAAAAAAAIAoCqkAAAAAAAAAAAAARFFIBQAAAAAAAAAAACCKQioAAAAAAAAAAAAAURRSAQAAAAAAAAAAAIiikAoAAAAAAAAAAABAFIVUAAAAAAAAAAAAAKIopAIAAAAAAAAAAAAQRSEVAAAAAAAAAAAAgCgKqQAAAAAAAAAAAABEUUgFAAAAAAAAAAAAIIpCKgAAAAAAAAAAAABRFFIBAAAAAAAAAAAAiKKQCgAAAAAAAAAAAEAUhVQAAAAAAAAAAAAAoiikAgAAAAAAAAAAABBFIRUAAAAAAAAAAACAKAqpAAAAAAAAAAAAAERRSAUAAAAAAAAAAAAgikIqAAAAAAAAAAAAAFEUUgEAAAAAAAAAAACIopAKAAAAAAAAAAAAQBSFVAAAAAAAAAAAAACiKKQCAAAAAAAAAAAAEEUhFQAAAAAAAAAAAIAoCqkAAAAAAAAAAAAARFFIBQAAAAAAAAAAACCKQioAAAAAAAAAAAAAURRSAQAAAAAAAAAAAIiikAoAAAAAAAAAAABAFIVUAAAAAAAAAAAAAKIopAIAAAAAAAAAAAAQRSEVAAAAAAAAAAAAgCgKqQAAAAAAAAAAAABEUUgFAAAAAAAAAAAAIIpCKgAAAAAAAAAAAABRFFIBAAAAAAAAAAAAiKKQCgAAAAAAAAAAAEAUhVQAAAAAAAAAAAAAoiikAgAAAAAAAAAAABBFIRUAAAAAAAAAAACAKAqpAAAAAAAAAAAAAERRSAUAAAAAAAAAAAAgikIqAAAAAAAAAAAAAFEUUgEAAAAAAAAAAACIopAKAAAAAAAAAAAAQBSFVAAAAAAAAAAAAACiKKQCAAAAAAAAAAAAEEUhFQAAAAAAAAAAAIAoCqkAAAAAAAAAAAAARFFIBQAAAAAAAAAAACCKQioAAAAAAAAAAAAAURRSAQAAAAAAAAAAAIiikAoAAAAAAAAAAABAFIVUAAAAAAAAAAAAAKIopAIAAAAAAAAAAAAQRSEVAAAAAAAAAAAAgCgKqQAAAAAAAAAAAABEUUgFAAAAAAAAAAAAIIpCKgAAAAAAAAAAAABRFFIBAAAAAAAAAAAAiKKQCgAAAAAAAAAAAEAUhVQAAAAAAAAAAAAAoiikAgAAAAAAAAAAABBFIRUAAAAAAAAAAACAKAqpAAAAAAAAAAAAAERRSAUAAAAAAAAAAAAgikIqAAAAAAAAAAAAAFEUUgEAAAAAAAAAAACIopAKAAAAAAAAAAAAQBSFVAAAAAAAAAAAAACiKKQCAAAAAAAAAAAAEEUhFQAAAAAAAAAAAIAoCqkAAAAAAAAAAAAARFFIBQAAAAAAAAAAACCKQioAAAAAAAAAAAAAURRSAQAAAAAAAAAAAIiikAoAAAAAAAAAAABAFIVUAAAAAAAAAAAAAKIopAIAAAAAAAAAAAAQRSEVAAAAAAAAAAAAgCgKqQAAAAAAAAAAAABEUUgFAAAAAAAAAAAAIIpCKgAAAAAAAAAAAABRFFIBAAAAAAAAAAAAiKKQCgAAAAAAAAAAAEAUhVQAAAAAAAAAAAAAoiikAgAAAAAAAAAAABBFIRUAAAAAAAAAAACAKAqpAAAAAAAAAAAAAERRSAUAAAAAAAAAAAAgikIqAAAAAAAAAAAAAFEUUgEAAAAAAAAAAACIopAKAAAAAAAAAAAAQBSFVAAAAAAAAAAAAACiKKQCAAAAAAAAAAAAEEUhFQAAAAAAAAAAAIAoCqkAAAAAAAAAAAAARFFIBQAAAAAAAAAAACCKQioAAAAAAAAAAAAAURRSAQAAAAAAAAAAAIiikAoAAAAAAAAAAABAFIVUAAAAAAAAAAAAAKIopAIAAAAAAAAAAAAQRSEVAAAAAAAAAAAAgCgKqQAAAAAAAAAAAABEUUgFAAAAAAAAAAAAIIpCKgAAAAAAAAAAAABRFFIBAAAAAAAAAAAAiKKQCgAAAAAAAAAAAEAUhVQAAAAAAAAAAAAAoiikAgAAAAAAAAAAABBFIRUAAAAAAAAAAACAKAqpAAAAAAAAAAAAAERRSAUAAAAAAAAAAAAgikIqAAAAAAAAAAAAAFEUUgEAAAAAAAAAAACIopAKAAAAAAAAAAAAQBSFVAAAAAAAAAAAAACiKKQCAAAAAAAAAAAAEEUhFQAAAAAAAAAAAIAoCqkAAAAAAAAAAAAARFFIBQAAAAAAAAAAACCKQioAAAAAAAAAAAAAURRSAQAAAAAAAAAAAIiikAoAAAAAAAAAAABAFIVUAAAAAAAAAAAAAKIopAIAAAAAAAAAAAAQRSEVAAAAAAAAAAAAgCgKqQAAAAAAAAAAAABEUUgFAAAAAAAAAAAAIIpCKgAAAAAAAAAAAABRFFIBAAAAAAAAAAAAiKKQCgAAAAAAAAAAAEAUhVQAAAAAAAAAAAAAoiikAgAAAAAAAAAAABBFIRUAAAAAAAAAAACAKAqpAAAAAAAAAAAAAERRSAUAAAAAAAAAAAAgikIqAAAAAAAAAAAAAFEUUgEAAAAAAAAAAACIopAKAAAAAAAAAAAAQBSFVAAAAAAAAAAAAACiKKQCAAAAAAAAAAAAEEUhFQAAAAAAAAAAAIAoCqkAAAAAAAAAAAAARFFIBQAAAAAAAAAAACCKQioAAAAAAAAAAAAAURRSAQAAAAAAAAAAAIiikAoAAAAAAAAAAABAFIVUAAAAAAAAAAAAAKIopAIAAAAAAAAAAAAQRSEVAAAAAAAAAAAAgCgKqQAAAAAAAAAAAABEmfBC6saNG8PDDz88bJ566qn8GRXpr5s9r9ns3Lkz/64QtmzZ0vQ5zSb9WYoef/zxps8rT/q8olZ/pmaT/nxV6c/d7DnNxj+fkafVP5/ynwGgqtV/m/z3duTxz2fkafXPp/xnAAAAAAAAAACY6jpaSE3LF1dccUU46qijwuc+97kRJ31O0Vi+pzrFkkda+mj2nGZz6aWX5t9VcdBBBzV9XnnS5xWlv0+z5zWb9OerSn/uZs9pNv75jDyt/vnMnj279pwFCxaEiy66aFhZCJj6rEfDx3o08liPAAAAAAAAAADidLSQeu+999bKF6PNkUceGd57773apL9u9rxm8+KLL9a+78EHH2z6nGZzySWXNPw92ym4FL8v/X2aPa/ZpD9f9fvSn7vZc5qNfz4jT6t/Pq1+5rQMVCwb9bq0DLVq1apwzDHHZOWmsf67MKYTk77e0tddOmmp87nnnstfmf3DejR8rEcjj/WoOeuR6eakr7d+X49ScmS6OVMlRwAAAFTYZzDdHPt1xsSPHBkTP3JkTPxMdI46WkjdsWNHOOCAAxr+AF//6v8K82b/Y2H+KZuzTv9x2Lrp5dqkv543+5/rc1jzmX/YN8OLzz4Z3n3nlWwefeiu7LH6HBzmz2k+/37N5eHdza/V5rgfHpU8PiubBXO+FRbMbT7H/+v3wrYtb9RmzbVXJo8fUphvhwXzms9jj9wXtm99K5uXX3g6LJz3ndIcGhbOHz7nLD0tbH/37WQ2ZXPO0tOTx2cPnwXpHFabw5PZ+NKzYce2d7J54rGHk8fmNJ+Fcxtm7XXXhh3bt9Tmxz86Nnl8Xm2OqM7h6cyvzQk/Pi7s3PFubdat/ffk8QXN54h0FtbmyScfD7t2bs/m1VdeDt9NHqvM4cPnu/U5//zzwq5dO2uT/vq73z0iCcw/NLz+ynPiiSc23EK616RXz0sXmzT45513XrjrrrvC/fffH1547o9JTl4qTD07w2djfd5pPtX8tJ5Xk4y0mnqGyrNt8+tJRkaaeo6Gz5th29bWU81R80mzMtJUctRytqXzTm2q+anP5tZTyEzz2dowO6uzI516bprPtuazM53tDVPNUePsGD67ilPPUHE2bnw5e92lc+GFF4ZZs2ZlV3vspxKd9Wj4WI9KYz0akfWo9TSuP+Uprz/lKaw9zcZ61DD9vh7JUetpnp/qNMtOcUq5KY8cNcxUOK4DAADAPkOz/YXqNN9fqE6zvYXilPYVyhO1z5BOs/2F6kyNfYZ+ugiDHLWe5vmpTrPsFKeUm/LIUcPIUTpJVuSoNKXclEeOGkaO0kmyIkelKeWmPHLUMBOdo3EXUtMSxXHHHZf9IO+//352VbBdu3aFn//bGeGqZSeGp+5bHp5/5MpkrspnRXj+0RXhhUdXJnN1eOGxdFZl8+Jj14QXH0/n2nxWhxefWB1eeuLfK/Pkmtq8/OR14eXfpbM2n3Xh5d+vCxt/f30+N4SNf0jnV+GVP9wYXnkqnZvyuTm88sebw6t/XJ/Pr8OrT6dzS3jt6VvDa39K5z/yuS289sxt4fVnbs/nN+H1Z9P5bTZvPHdHMnfmc1d44/m7wpvP/5987g5vvpDOPdm89cK94a0X78vn/vDWS/eHt196IJ8Hw9svp/NQNptefjhs2pjOhsq88kg+j2bzzquP5fN4ZV5L54nKvP5k2Pz67/L5fdj8Rjp/yGbLG0+FLW+m88d8ng5b3/pTPs+ErW+n82w27779XHh3UzrP5/NC8h+iF8K2d15M5qXkPy7pvJzN9s0bw/Yt6bySz6vJfwReDTu2vlaZd19P5o1sdr77Zti5LZ238nk7CeDbYdf2TfXZ8U42u3dsDrt3prMln61h966t4b1d7+azLby3O53tYc/uHWHPe+nszGdX8vrcFu747W/CokUnDCsBpVdO7EXpraUPPfTQbLHZ/Nbz4fXkdZVmQ47kqFs52rMnmfd2h927d4Unn3wyu/JjL5borEft5qiaJTmyHjVnPZIj61G8gczRs3IkRwAAAEwE+ww9ss/wWnv7DFvequ41TOA+w9bu7zNs2LAh22dYunTpYO/XFbIkR3IkR3IkR3LUSvs5SkaO+jRHyQxwjsZdSE1PXqVligMPPDC7tW3aHn41edE9t+GKbJ7fkIZlCr8RUqQbW2C6eML1/T27s3nmmT+FWbMOzl6vl19+ef4K7h1btmzJPv2wbNkyOZKjns3Rnj3vZQvQ+vXrs09FpK/bXmE96sEDODlqmiPrkRzJ0dRej1IDnSOFVDkCAACgo+wz9Ng+gwLQiPsMq1evzgoMA7tfV8iSHMmRHMmRHMlR2fhzlIwc9WmOkhngHI2rkLpq1aqsTFGdC845IQnEyiQol0/MwpOHpacCo0g3tsD0wAnX97PA7Ay33nprdtXEPXv25K/k3nDUUUeF22+/PWx67Q9ZNuRIjno1R++/n2Zpd3ZVrbS80AufLLIejSdHk3AAJ0ctc2Q9kiM5mprrUdVA50ghVY4AAADoKPsMPbbPoAA06j5DelWtgd2vK2RJjuRIjuRIjuSobPw5SkaO+jRHyQxwjtoupD711FMN5Z/jjjksPPfw8mTSsAzQGyFFurEFpodOuL7//p7k8cqtvFeuXBk2btyY3eK7my666KKwfPnybNGRIznqpxylV9SaPXt2/kruDuvReHM0CQdwcjSmHFmP5EiOpsZ6VDXwOVJIlSMAAAA6pr7P8Hv7DL2yz6AA1Hf7DJOao0KW5EiO5EiO5EiOiuJylIwc9WmOkhngHLVdSE1b29Xyz5f+1/8Xnn4gDcsAvhFSpBtbYHrshGs6mzdvDhdeeGGYPn16OOCAA7r2qYi0THfooYeG7e++k+VCjuSon3KUfiLi2GOPDX/9138dfvSjH+Wv6sllPRpvjibhAE6OxpQj65EcydHUWI9SctSjGwpy1Fc5AgAAoKK4z5DuHdhn6JF9BgWgtvYZPvzhD/fMft2k5KiQJTmSIzmSIzmSo6r4HCUjR32ao2QGOEdtFVIff/zxWvknnZuvPSsPywC+EVKkG1tgevCE6+uvv5YVf6qv409+8pP5K3xypWW6+++/P3lN/lqO5KjvcpTOn/70pyxLH/jAB8JHP/rR/JU9OaxHMTmahAM4ORpTjqxHciRH/b8eVclRj24oyNHYcrSnN3IEAABARXGf4dmHf2mfoVf2GRSAxrXP8PGPfzx/ZU+uSc9RIUtyJEdyJEdyJEdV8TlKRo76NEfJDHCO2iqkXnrppbXSxPcOnxWefagalgF8I6RIN7bAdOCE664dW8K2bdvC9u1JQEYIzO5dO7Ln7diRPDZCYEJ4P/ziF7+ovZY/9rGPhQ996EOVF/kkee6558KsWbPC5jefkSM56tsc7UkWn6OPPjr8xV/8RRgaGprUHFmPYnI0CQdwcmQ9kiM5msQcdXM9SslRD28oyNHYcvR+93MEAABARXmfQSG1h/YZpmgBaKz7DO/t3tk3+wxdyVEhS3IkR3IkR3IkR6nO5CgZOerTHCUzwDlqq5A6e/bsWmni2l8uHuwTrop0YwtM9AnXrVkINm3aFN55551CaBoDs3vX9rB169bseektkNPQtAxMeD+8+eabtddyeqvktMmdXmJ4sqRlumXLloVXk9eZHMlRv+bo/WTxuf7668OnP/3pbOFJZ7JyZD2KydEkHMDJkfVIjuRoEnPUzfUoJUc9vKEgR2PLUZKhbucIAACAivI+g0JqD+0zTMkC0NTcZ+hKjgpZkiM5kiM5kiM5SnUmR8nIUZ/mKJkBzlFbhdRqYSKdpx/4xWCfcFWkG1tgIk+4pmHZsmVLOPnkk8Npp50W3nrrrbA9eWz3znpgdu+shOWhhx4KixYtCldffXX2fTtroSkFJryfvZ5n/fNXa6/nP/uzP8tC88UvfjH72kQ75phjwl133ZVlRo7kqJ9z9PQfNoT999+/tvBMVo6sRzE5moQDODmyHsmRHE1yjrq1HqXkqIc3FORobDl6v/s5AgAAoKK8z6CQ2kP7DFOwADRV9xm6kqNCluRIjuRIjuRIjlKdyVEyctSnOUpmgHM05kJq8QpeX/3qV5OwXJYFphKW1oFZMSv/YfY6LNxVWHhWfqv6Q34iLLm5Hpi7F32i8vje88M9pbAMD8ziMDf/g869LA3LKfVfL48JzFVh6b7Vn69xZpx2dSUwPVOkuyQcnv9sh6+eeidc03CkgTnrrLPCF77whXD66aeHN954oxKaXelsz76ehuW73/1uOPjgg8PatWuzwOzauaN5YPLiwtxDD6q9pv/Lf/kvtX/HkyG9uuNTTz015hw9/8h54fS9Gl+L1TlsWS9uKCwN8/Kfb96VIyw8I+bop2FB/nssWHlPWHtY/meedmzYUMjR2jn540N7hXPvrefo0TP3qjw+/cfh0bZzdFn912vkaKQcvfbyU8MWnnQm0njXo2KOpp1wfm09qh/AnRDm5D//nEvGmqPiOtSlAzhFur7PUX+tR/U3Qned8LHaz1qZ9Jiu1ze4zw7z8593/lVyZD3qjMHLUXE9OqeQqU7m6Ppw7vTiP5f6zDzrRjnqdI7yDYVu5ggAAICK8j5DW8WFZV8Y9p5uaO+54e6+2Wco7NdFFRfWtdxXWLgqYr9uChaApuo+Q/s5an0etpKhySgA/TKctU+Tv38y8y7vRo4maN9bjuQoy9Gi+jnZSzuZo8lcj1aHs6eV/pz5LFgpR3JUEZOjep+hWEgdQ59h1BwtC2e2WG/mLu/F47p+zlEyA5yjMads48aN4aijjgpHHnlkOOOMM2qBqYSldWDu+nH1JOsXwopaIfWCsGTv+g84Z1n9AK5aVJ124s+GhWV4YDpQSP3NUWFG+j37fj88UAtM60JqOmkptacLqQ+eFPZLH5uxODw+QmAqYZnghSfyhOvunVuyF396OeGlS5dmDeslS5aE1157LXu8GJZZs2aF6667Lnt8Zy0sTQKTFxeOO6Z+y++/+qu/qv37PeCAA7KvT6QDDzww+zONNUcdKaTesiBMT79nnwXh3gk/gOt8IXXDks/mf+Z/DmtrOWrcVFi4qp6jdXMrj808s1paaCdH4yikbji1kruZp4UnBihHm177fZah6r+D6kxkjsa7HimkTuIB3BQsAFmPqjlKN7ePD4flP2OzmbbogiQ7I6xHw3I0QevRb79fOMar5kgh1XrUeVM6R8X16Lc/yDN1dHiwth5NfiE1nUopVY46lqN8Q6GbOQIAAKCivM8wtkLqaCWgUc4fdWOfobzvfcfRlX2HaceEB9P9ugkqpKYz88xfjW+/bgoWgNrZZ0hLC/2yz9B+jkbIUD7FPkPTHBWy9HLtnOzCcO+Yc9S6kJrOjFOuaP/8kUKqHEWY2BxN7UJqOjOXrJMjOYrKUUcKqU3Xo9aF1HSmL/7lJOZoqq9HyQxwjtqufb/33nth9+7dtcBUwjJCYG6cHaZlP8jHwuk35YXUm+bkj+XzrUUjLzx5WIYvPPGF1AdO+XTlZ2hRSJ1x6so8MPWTremboYd6ppBaCEx+wvXxpftUfs4pUUjdmgXgpZdeCs8880w4++yzw1e+8pWshJY+loYlLaWlJ1uvueaa7LHXX389bN++Lex5b1fzwIxSAPrgBz+YfX0ipX/PtnI0apFu9ELqPSd9svJn7NNC6lt3/2uYmf36s+Gcu/Mc3XNc/lg+cy/Kc/TzsDB/bOE1Y8lRfCH1iXP2rfwMPVlIHZ6jL3/5yx3JUauFZzJy1PZ61IEcDV+PFFJHWo/GegBnPeqn9eiq+tXvk2O7JTfVc9Rw9fv17eRoYtajxmM8OZrqOermejSVc1Rcjx445W8rP1tDIbWQo45uKNQLqZWTRGmOLq4d31WugC9HHcvRKBsKk5EjAAAAKsr7DGMppNb3GdK9758W9r0vCEu+1R+F1AdPzfcdOlxInXnG9fl+XeHDr9N/FB4dz37dlCwATcD5ox7YZ2g/Ry3OHy07sPCzHxhWjpSjQpburZ2THV8hdfrJy/MMLa9fRGvf74UH2j1/pJAqRxG6naNurUdjz1G9kDpjyZo8R2vCOdWS6rTjwgY5kqOO5CiZdvoMhRw1X4/qhdTpiy/Nc3Rp/UMR+xwZ7p+0HE319SiZAc7RxBdSC1f/qQbm7vzWlNP2rt6eP3kzlAZm/by8qPrFsDIPzNWH1P8glflkOPOW6sIztkLqtd8pfv9QmLe8EpjVpcfTmXHKVUlYmhVSfxNWz86fVyqkrqk+ns+CFdXAXFAo1F1XX3ySmXnGuobAPFK9vXh10pOsxcBcO6vx60PfCuuywDQW6a6fX3xOZfY7+7ZaYB4/Oy/NVWfmKeGJWmCuCkfkjx+xbkXlr2ceFo6YmT/38JX1hef6ufnvMTfcNIEnXNOwpC3txYsXh0WLFmWXs05D87WvfS388Ic/bAjLHXfcEY4//vhw9dVXZ9+3c8f25oEZpQCUzkQrLzyj52jkIl1jeaGy8Ny9KM9X8tj0whWJqzP9pJ/nOVobVpVyNvey6gHcaYVMNX4yr5qjysJTeEOUzIxTvt+0kLr60Ppz0pm/orjwXNvwKaIZp/+wsZBayFP1E0WPnFG5aurM6dXb8x8fHkkXnnt/lBdVDw7r8hxVr5han73DeQ9UF56xFVJvKOXr8DWVRedXCxofT2e/c+8cYeFp8wCuh3PUauFJZ6J1vpBa/kRR8UMSF4Uzilf2/kWrQmrxE0WfCmfeluRo+Vdq31eZr4ZrO3kAp0jX9znqq/Wo9kGjZjk6oX7Fx+zDRsUM/awhQ+kaVNxQGL4OVTcUTi2sQ/malL8RKh/fDQ19Oiz9TSVH5fUmnRmnrkjy0/wKqQ+dlm94V2fav4SHazkqfkCisJmQ/VqOrEcTnaOR16PseK60Mdf6uC59f1Q8tltS+et9jwwPNH1vlGTqt5X1qHmmkvdJLa6Q+tBpn2l8/rQfhodr61Hr90gLr67mqFkhdUP9eK5USF03r/57pHP46mqOflE4xrs1nD+j/pzsPVIhR8PfJ52afciolqN1sxu/PnRYuHGq5GiUDYV0AAAAmBzlfYbRiwvDz8M27nvXiwv180b57D0/3FMrLSyu7T/MveznDVfOSve+N/7+kvpj3z4132e4Mdy/+FP58+r73uU9hnmXV/e9CxczuSL/632PDkub7Tuctqq2zzC287D5X2cFoGaF1IcK52Ir546anzcq7tetD+cV9hJmLj2psM9Q368rn5s9fE1lv64fCkDt7DPceeedfbPP0H6ORjh/VCjTzbmkUgCqn5etzifCGb+uZGl4tyHdw1tWK9Jd8+3Gr1Vuj9yqkLo+PHByfuGFoa+H1UmOhu/T/W1Yekfx/NHKsLR4vvW0/13fv1tRP3+05rD6c9JZsHIqFYDkqBMmNkfDL1Q3ci8oncarOk5ffERhrzvNULO976NG2Puunoetr03zr0zyU+s8JNm687fhjasOyn+dzLR/CQ+NWEi9t/Gur0mO1s7Jv7c2e4Vz7y3m6Mb6ByaSmXnWCbULMxy+up6j4XvgcjQ4OUqmdlzX5Aqpl3yx4c80NPSlcPWI61GzQuqvSsd0I5+HrRzXXdnYETr1B/X15sp6n6HWs6t+LVmLFFIHI0dtJ6z9AlDhk3mzjs/CsjL/9WHLqidc809CVIOSvAG6OyukNp5wrc+Xwqps0Rm9kDo8JJVJy3RtFVKrt4pIHyvcsr/8Jqg6C1Y2vhFqNtUTrmuHveGpTvKGKA3LsDJqOu0XUm9oUpqrzKHhV1lg6oXU2sw8Pdx47rT813PCjfnCc+Phla/vf/59Iwcm8oRr2sTeunVruPDCC7Mr/5x44onhySefDOecc052eeE0LKtWrcrCsnDhwjBnzpywfv365Pu2Fy4rXApMnxdSGyfJTrbwXBCWVLMyrATU7AAuXWwqhdRyaaE6c5c3FlKHz9fC6rxI16ykUJ1qIbXVc+avaL6hUJxKIfXe+gHbnAuzhaf664VX/yw/MPtmWJsuPKsOrjyvVuxuPJCrT/McNSukNstWOkes7f1C6kTmqJsHcJNZSB0+yTrUrJB62Zfzrydvkm5tVkZNRyG1H4t01qM8Rxf/z/xnK1z5vpCj2kZc9mGjkTKU5Cwvdrdch7Jju3ohtTZZIbXV7YuStanNQmr5jVB9/jGsyXJUL6QOn8qGghwN9no0sTkabT1KsvKLeiF15OO6xkJqbbJCauOHi+rz9bC6zUJq62O6JFPZejTSe6TkWC7LUZNC6n0/rl0Zv3jL/vJGXHWyUmqhkNpsDl9TyVHr90mzk/dJSY7Wlsuo6XSnkDohOVJIBQAA6BnlfYZRiwuj7DOkkxZShxfoqlMpLRQLqcPny+Ga318f7lucX2Vr6CvhmryQWjsP+50l2ZW0Wp6XvbyxkFqbUQqpbZ+HbVlIvahw55X0CqkjnTdK9+say6jlqRZSW507Si9o0g8FoKm6z9B2jkY8f1T/APm0RReEFx//t/o52YYZrQC0blgZtTqVMl2zQuoZ9cxkV0htLP/U5x/C6uz8UWMZtTzVQmq5jFqdSilVIVWOKiY2R+VC6mi9oIsbyqjlKRdSa5MVUlvtfX8j2/tuujaNMDNOvzY/B9uskFpYl0rrUeN8M6zLcvSrFl+vTLWQ2noPXI4GI0fJ1I7rSn2GYWXUdMZTSC3kZwznYV9ruR5VplpIbXUOtvgBCYXUqZujMSds48aN4dJLLw2XXHJJuOGGG2qBqYRlpMBcFe76ceWKqEN7HxbufvTH9RJqoUSXfhKi+sm8aYt+1uJWEcXizxgKqbd9N0zPfv2pcNZtlUsK339y3ur+zv/P3p8H21XW+eJ/qqvLsrr8oy3+6PLeW3Xburfrdlf/YUt/1Vb4kaSDfv3ee+VKq61iqwEhJBBAcGq7wZZJhgBhiNJMYZApA6QjQRmEZr4MARIgINIOCBIZReYk4PNbz5r22vusfc7eZ51h73Ner6pPS05OkkP6vHnWftZ7P+uktAA01iP7R0zxqIhYALr9H/OS6gfCqXdkgdl0Yn4a0P7fa38htPjMPDAbwmnForL4rPDbu75V3lg9aG0emHuK0x2zm60PnlKc/nhkeGhEYDqLdF0e2X//sWH34vPyd+a9svm48mO7n35bEpZKIXXBCeGRMjCry49/eUMMy5rw5fTH88KZW8YITMMbrju2vZx8878aXnrppXD22Wenze0YmgcffDD9fuwMy3XXXZeHpWhv1wQmLy6cveLosOeee4add9457LTTTtm/dz6TrXPhGTtHYxVS14Yny3cWvTcs3jt/l+s+x5Q5qn1k/w0H5RmJ5bnsnXnlhkL6DtfKwpNuJiQ5uvhT2Y/jOyBuTl4M3XxYWdbONhSSufTT+efkhdSy0B3fSZQVgO4rTqNbtKKSpeTFzqp84Vn1ufL3KAqp5TuK0gu4s1ol1F+3SgsxRw/m73JdcPI1XRaelZXc1OWoo5Ba5mfXsGJTtvCUp2gtvTRdeAb7kf2Tl6PpuIAb/3rUoJBaZOnCPfN/v+JdedV1qLUGzTv2/CRPP0zylK85u345uXCLL4Ym4VERCqlDn6NhWo/Ka7o5HwurHuyjkFquR+eEk4oXMPscm6xDS1vr0A3x2m5DuLtch45rL6SOmqPWxlxx4kL9I/s7Cqm3f6Ncf4o3SDx3+zfLj80/cV2So0ohdf/kei7maPU/ZD+e88Fw2l1yNFvXo8Lk5qjLevTIue1Z6um6rqOQmm4qdFuPTmll6tJsPap/ZH9HIbVyTVduKNxRyVS6Mdf5GilZj9Z8PvtxkqnT74oZqjxGr3PS01HzHG08Mn/d1Dr5/qHlu2Sfd8AF7YXUAy/Kc3RT66TUpReHlzd9p3xNFN9olOZo8/GV10m3h0eKN+gtODF/jTTDcqSQCgAAMDA69xnGKi6Mtc+Q3j+6bkn5tJZs73tdePLHB+b7CLGcEJ9mVCmkpnsNV3UcwHB12HrjweWvyQ4Gau0zLLn42vCbmw7Nfz6/f1S9D7vf8tBW+tnta+Heyr537SP7+7kPO/efw+Zy37tbASibg66o269b2X4i3b1HlfdqyyexrNun/D3SQmr13tH92X5d697RJUNRAJqp+wz95qi/Il3MUJ6jtM9wTOve0oWjPCK5zE/MUyz/VO4h7XtCqBZS66Z10nD1/lH1ZMckS5UDtg68PM/Rqtbpjul+XblXl+Tqzuz+0abi/mvZZ1BIlaPJzlFnITXrM2R73zW9oHLvO/449oKSuah1KNCIQmrc++56H7aVm2zvu7I27Xdquu9d9hiSyQ5iuKL1pNf9V+T3YFuF1Lqpf8JecchW7DQkGar0gg66Ms9R5bC69vUo7oFnOXqo6APFPW85mgU5Sqa8rmvvM5Sn3xen3rflaOxH9tdNek031n3YW75arjdZjm4Kz1zW6gilhdTbWx2hU2/P+gzl0/XKHE1jn2EGFlIHLUc9J2zTpk3pbx4nHuPa6w3XWEhtPZbyY2H1tYuzf95lcbgzCUyrhHpmefN18fnFBdy/hbuO7nh8RD49FVIv/mTbr2mb9N0QfRZS5349fRFUFoAqF3AjJn0sZeuF0NLVMSxZYDbnjxlPC6lrvpD9c/Go8Tww5WMilpzX/XH9aWB6LKSu3zf/2HfCljwwMSzlyY4HXZaEpfrI/vbAFCeizjl4TXjt6sXZP+9+cnh0Cm64FqF58cUXwznnnBM+85nPhGOOOSY8+uijtWHZvu2N8NZb27sHplJcOOKII7J/l46ZbJ0Lz9g5GqtIV/cO14+H1ZVid20htdxMqJldDwn3dG4mpAtPfsR9Mulj+8uCavaoiOyFUCtDaSH1ss/mn1Mzc/8x3F9mqTiNrv0iriikvnDn4fkF1+fDVXcdkf3zvCPCA8nCUzxqZcHJV5f5OeiK1sJTFrs7pqdC6vovtf2atllwXHg4ydKgF1InM0f9LjxNjX89Gn8hNZ40nF28VR5blJ5I11qHytn14HBPfCH0aN0JqdkR9wqp7Rdw2cXbJL8Qsh7V6ns9GucJqdUNhXI9ihvbZcm7ZtIsVR/ZHzcUWoXU1qMj2qevQurl+fo09xvh/kqOyneI7//dJEfVR/YXOapc462Ro9m6HhUmN0fd1qP17Vnq6bqu5kZRZT1qPf6rffoqpBbXdG2PLqqcurD/mcl61PkaKa5HxRuNkuu3NTFDXQqpZRk1z1HtkyTymX90eKjtkf2tHG05NX+9FAup5euk7JquyNGPDsp/n4MurzkhNZ6OOoNypJAKAAAwMDr3GcYsLvRyQmpxoMkuB+R7Ddl92PLkrH2Obd/7vijufdfdh209tj+eqFXeh03f9Hpt5UCTmkn36KoloPZ979pCal/3Yav73mOdSJft1xWHm3ROWgBat3f+473DhmK/7pkbyje5pvsMo907mn9c2DIkBaCZuM/Qd476LKSWBaCOGbWQOureXTyMYbTT6Fr3j8p9745JC6nl/djPhnVFjipFurSQWjkQaMS0FbuHuQAkRxNhcnM08v7RqL2gMj/Zid1pIfXRC8o1aeQj+9vvw46+991R7I773sW9oyRL69McVU7sHrOQ+g/hqkqOHii6QR2TFlKvyJ/6Wjw5OZ1ryzWsfT2qmfnHhC1yNAtylEx5XTfWCal7hjX5PaT+C6mxx9DjfdhL/j7/cXHScLyuW1V2hNJCapmjmpn7zbBpuvsMM7SQOkg56jlhjQqpD3wrX2DeE/ZfmL1TLy40aWDKF0HvzUurHw+ri3cUXdAqKRTvzmu98Bm7kNoKSPcC0FiF1OyR/a3yQvWE1LK9nZbo6gpA9YXU6mPHHzipOP10lEJqGpjWO/OyyU8B6rGQWt50HWch9dWHluXv8lscvpyXU7989dTdcN2x7ZU0NC+88EIamr322it85StfaQvLa6+9Fra98Xp4683towdm1hRS3xuW/Xj0Qmq5ACUXb2sfzU7SyiZ7Z171hNRuhdTyAi59VERRpKtsKlx2U2sjIX0BNLJIV2apbeEZrQD0wbB0cXbxtuCkDdnCs7Yod38oL60mF27FwlMpKyw45dpksenvhNQyP3P2DT/sUgAahkLqZOWo34WnqUEtpM7btchT/m7xmhxlE0/tVkity9GkvhCyHtXqez0q32RUl6Pe3uFa3ehuW4fKF0LV9ahLIbXypqP56eOLxndCavkuV4XUGZGjqV6PCpObo+6F1GqWeruuG6WQWrlhNP+4JFM/G98JqdVruokqpGaP7D+39VqockLqg6fkp6G2vWGvmqP6Qmr5OL2lF7dOLhmtkJrmaFXraRLpzA3fe2iG5EghFQAAYGB07jOMWVwYdZ8hu3/UOj2raSH16spTwQ4JV+b/PO/Y76d7dq37sp8K62r3vfsrpPZ3H7a67133yP6O/bqyBBTvG10TOk9ILZ/AMv+o8FCxz/BM+z5D697Rl8IPh7wANNP2GfrO0Sj3j1rl0/eGZddf0Vb+mXv02aHXE1LLJ4PN+US4om2/rtj3rntkf0eOygJQ3MO7vC1TsUhXW+x+fEVr/27VHa1ThmOuZmwBSI4mwqTmqPP+0Ri9oFamikOB6u4fdSmktu19X5qsR9W1KO59Ny+kth7Z35Gj8slgxXrUfkJq+caItoMYuqxHbW+QkKPZlaNkyuu6zj5DnNY6lM17w0k39FZIbT2yv7oejX0ftv0ebNFnWN5aby6rnjTcytFA9RlmcCF1UHLUc8KaFVIvD6sWtn9B+6/sCExRSE1fDGUvhMp3QaQvhJLAlI91zRaesQqp1ZBkL4ayhefe73xq5KMiRi2kJgtP5Yj7+SesSUKSBKbyzrz5J15ZBmbTiZ/Lj7hvvRBqHXF/VvmxtEg3xiP7y6O5y8CMVaQb3yP7D7kqBmaUQmoSmPKU1HSWhGt6CcwE3nDdnofmueeeC+eee2749Kc/XYbl9deLsGwbOzAztZBaPrL/42FxebJW62jusU5InXfsyvziLW4ofCKcfFNceMYupFYv4ro+sr9yQur8E5JM5UW6+0/YK5x6e7LoVLK0dJRH9scMlYXufA5aUyw8+QVcUUid9y/hwXzhebA4HXXJyixHbY9aqctR9xNSdz/1pnLh2XLqfuG7m+OiMzyF1MnIUb8LT1ODWkhdclHl3UTpC6LODYUuL4RqN+aK9ai4gFNInek5Gsb1KL7RaNm1RY7ODMt2KT4+ckOh9cj+1ouiuKlQPSF13jHn5S+ENmTrUFrsri+klpvb+y7LMnTzYa1HQ/RzQuoYj+zP1iSFVOvR6CY3R+3rUeuR/a31KM1ST9d13Qup5RuM9j05W49u+UorU/2ckDrGI/tjhsZXSI2vkb5dXr9lN4qSHFXfdLT8+jJHDy3fJ3t8Ue0j+y8uP5Ze143xyP5DrurMUauY+uUNMyRHCqkAAAADo3OfoZ/iQpy5R36vsu99ZNg/PoFljEf2ZyW63gqpW288JP91fx3mpfvh8QCG/P5RtfSTlheyfe97j/v7sPyWuOfdXyG1n/uw/RZSyxJQcTDQxiMr940eajuRrusj+0fcO8r267acum9YsWn4CkAzaZ+hSY7a7h+V916TSZ9mdEWrWLf3MdkBWyOyNPYJqdUC0MZjP5lkKO57j11ILfe891ue3T+69Wutvbi2E1LjXt3IHHWekDp/2bry/tHmZf8QTrtzCu4fzfAinRxlX9tYOeospLZ6QcfU94Iq+SnXo1Ee2V+9D1vufe8X975vqHnU+OQVUtuenBxzdHe1G5RkqPLmiK6P7K+sRwuW/7jM0Zbl+4QV98nR7MhRMqMWUvMDH3t8g0QvhdQx78NW3iCR5Si5rut8ZH/lhNT5J6zNuwzxsLrkOu4OhdTZkKOeE9a0kHrHt7OTUbPZI6wuA1O98ZqE6qh/LQPT7VjuOD0VUn96YZej7d9XFlKfvqT98RHZu4lqCqnJwrOuWGTiwpMWgFpH3LfPB0YWUkfMF8JVeWCuKk5D7Zz8nRBlma5tup+Q+lLlBVGc9EVQEpgfFqehds6C48PDaWBGL6S+tiF/VH+cg9f2FpgJvOG6Y/sr4c3tr6WhefbZZ8OaNWvC9ddfn4Zl+7YiLD0EJi8unL3i6LDnnnuGnXfeOey0006tf7dkJlvnwjN2jto3FKqTnTbcWnjSDF1/QGtzoSjSdTwWOSsvnNflOO6/7r2Q+h8nlxdpdZMWUn+xusxU+7w/K6RW3p1XN9VC6uZl1WPtWznqfLRrVl7IFp76DGXTUyH1uZvKx7C0z25lIfWVq/Zr+7ndT789yc4EXcANcI6m4wJuIgqpndOZo/EVUpMLuBsPLl8gxQu48t3ibRM36BRSqxdw2cXbJL8Qsh7V6n89qp58Xz+LV8bNhI5C6ojZM6xJXgg99ci5Xdah4qThMQqpNVMUUp+5tPViKM7841cl+ekopCYZal3fdUx5ardCqvVodJObo45C6ojZM6wt3mg05nVdD4XUmikKqdU3HMVJXyd1FlKrG3Odkz5Kr0EhNclQ+RSJOQvDhjRH14Yzaq/R4mulmKNKIXXEtE6+7/46KXuj0SOnz635+eoJqXeF7+2effzDK+7JcvTDJfnnHRCuTXN0bzgz/5w5h6wfrBwppAIAAAyMzn2GsYsLl7edkjpiYvlnxBP2KhMPNonln14LqZVHJKeTPmq8uH90cTil9l7Q+8YspFaLdHGy4kLv92HHXUitmbQA9PT1XfYcssmexHJj13tHw1hInUn7DP3nqPv9o2xityHbr+v2uP44RQGoehBDnHnHrBzlEcnxnlHc9+6jkFozWZFudVhem5lssjeQd3vM+AcVUuWozWTmqGshtWayXlC3ve9seiqk1syUFVJrJi2kbv1RW7+hc0Zfj3adsYVUORr5dcap6zPUr0mtE1LHWo/GLKTWTHYf9rIu/Z9s0kLqL7utScl1nELqrMhRzwlrWkj91TX7t14M7bI4efFTFFLXtr0IKt+Zlza4zwknlWXVnZPQVF/49FJIzQJz5b7F75HPvie1XcCt26/1c6MVUqs3XKuPdh1x03X/7+WBqb4QqpZTPxhOv6s9MCNKqfEdeXlgRpbp8jJqGpiaQmoy5WMokykKqTEwI262Lr20EpgxCqnlY/uzx/X3FJgJLy68mvzzq+H1115NjxCOYdn2xmtJSN7oPTB5ceGIbywqv6ff9a53tf29TLb4Z/ZXXBht4TmyUupOLuTS4sKVlVwlC86PY5Gu8mjXZLJCaszRVWFt5ePpfOn4fOHppZAac9ReSj3g0sqmQlpIzTYUqllLZ9HpaYayaS+lLl1VVwBKFp07Dy/fOTRn3hHhgS45OuiK6sJzTeViLuanv0f2FwvPDyu5SmfpJfmiky085aNdkxnsQurE5Wg6LuAGupD66IZwxZeyH8eZt2vnxVrxbnGF1OoFXDVHk/ZCyHpUK/6Z/a1H+XXdA6tGnH6fbSasDU/WbihUHxcRr+nyF0J5kW7kOnRcvsHd5ZH9lc257I1GIx/ZH3PUdo3XpZAaZ+S1XLGhEEch1Xo0usnNUed6NDJLRY7Gvq7rXkh9+j8urmwexJtEIx/ZH9ej9kzVF1LjdH991KyQ+uLW88rPmzPvyPBgnqMNB+QfK+aAC/IcVR+l17q+Szfr7m/P0YjXSQddVuZoZCE1llGrOZrOQuoE5EghFQAAYGB07jP0VEjtus+Q7X0X+wwjSqnlk1j6KaT+sO0ghnnHXpjv17X2GdZ13pfd75R8v26UQmrbwUBz2k7S6u0+bHXfu4dH9m+t3jf6UDh9Y/sjkrP9uta9o+zeUvsj+4v9uuo92XSWXpzu1w1nAWhm7DP0n6Ox7h9V9+v+te0pRyf9eOSJdHG/rrpHlxWANqQZqt5DSudLJyTZifvePTyyv60A9L6w/NaaIl21z5AeDNT+yP5i33v9/sXn5LN/fNrrFNw/mhWFVDnqnJE5ai+kjt0LitPqAmWHmvT4yP4Re9/VtWhyC6nV9Shda+5uf2R/lqPKnnfX9WjLyD3w+EQwOZqFORqrkNrqBnVfj3p4ZH9P92Fb2YnrzfLb2h/ZX/QZRhwMtGiFR/bPkhz1nLDGhdTkhdCvHlzVOpq7Ukhtv+FaLaQWBaAsLEVgqjdci0e7Zi+CshdC9YGp3nCdqgJQ583WSQ7MJBcXfnJGfiN295PCT3oNzCQUF7LQvBbeSMLyRgzLjhiWPgIz5AWg2Zej6sIz/Dka1wXcAOdoOi7grEdNczQFF3By1FeOZu561LmhIEdyNLPWo8Lk5iiuRXVvkBjAHOUbc4OVo/obRXLUkSOFVAAAgIHRuc/QTyG1t32GIdn3HsB9hlYZaJ9w9aQVF/rcZ5iE4sJM2GeYlhxVsjRIOWoVuj8X1g/Cft0sKaTK0eTnqFXu/kS4cgatR62nhO0dNsiRHKU5SmYI1qPWgSafDeuG4f7RLCmkTmeOek6YAlBHYGZRIfWayqmPcb58dR+BmaQbrvFo4Td3xHm9/8AopA5ZjqoLz/DmaBCLCxORo+m4gLMeNc3RFFzAyVFfOVJIlSM5Gs71qDC5OYprkULq+HM0ewqpjXKkkAoAADAwOvcZFFKna5+h+yP7d19+Q0/7dcNcABr2fYZpyVElS9OXo+6P7J9/wpWDsV83i4p0cjSROer+yP54wuPwrkfdH9m/YPl1ciRHeY6SGbj1qPsj+7OnkA/add105SiZWZyjnhOmANQRmFlaSP3yhj4XHgWgWvHPnNziwkzKUXXhGd4czbjigkLqEOdoCi7g5KivHCmkypEcDed6VJjcHMW1SCF1/DlSSO0pRwqpAAAAA6Nzn0Ehdbr2GeoKqbuGFff1vl+nADTsBaA+c1TJ0vTlqK6Q+oFw6u0DtF+nSCdH48pRXSH1r8PJNw37elRXSN0lnL5RjuSomqNkBm49qiukxsf2T0eOBnk9SmYW56jnhCkAdQRGka63wCgA1Yp/5uQWF+RIjqYmR9NxAWc9apqjKbiAk6O+cmQ9kiM5Gs71qCBHA7yhIEe95UghFQAAYGB07jMopA7QPoMC0NDsM0xLjipZkiM5kiM5kiM5iiYmR8nI0ZDmKJlZnKOeE6YA1BEYRbreAqMAVCv+mYoLcjQTcjQdF3DWo6Y5moILODnqK0fWIzmSo+FcjwpyNMAbCnLUW44UUgEAAAZG5z6DQuoA7TMoAA3NPsO05KiSJTmSIzmSIzmSo2hicpSMHA1pjpKZxTnqOWEvv/xyWgK67777wqOPPloGJgvLLHwhpEjXW2AUgGp1LjxyJEfDmqPpuICzHjXN0RRcwMlRXzmyHsmRHA3nelSQowHeUJCj3nKkkAoAADAwOvcZFFIHaJ9BAWho9hmmJUeVLMmRHMmRHMmRHEUTk6Nk5GhIc5TMLM5R3wl788033XCNgVGk6y0wCkC1OhceOZKjYc3RdF7AWY/Gm6MpuICTo75yZD2SIzka7vVIjgZ4Q0GOesuRQioAAMDA6NxnUEgdoH0GBaCh2WeYlhxVsiRHciRHciRHchRNTI6SkaMhzVEyszhHfSdMASgPjCJdb4FRAKrVufDIkRwNa46m8wLOejTeHE3BBZwc9ZUj65EcydFwr0dyNMAbCnLUW44UUgEAAAZG5z6DQuoA7TMoAA3NPsO05KiSJTmSIzmSIzmSo2hicpSMHA1pjpKZxTnqOWEekdwRGEW63gKjAFSrc+GRIzka1hxNxwWc9ahpjqbgAk6O+sqR9UiO5Gg416OCHA3whoIc9ZYjhVQAAICB0bnPoJA6QPsMCkBDs88wLTmqZEmO5EiO5EiO5CiamBwlI0dDmqNkZnGOek5YLP/E3zzOoYceWgYmC8ssfCGkSNdbYAa4uPDgvT8OhxxySHjnO98Z3va2t/UUmInSufDIkRwNa46m4wLOetQ0R1NwASdHfeXIeiRHcjSc61FBjgZ4Q0GOesuRQioAAMDA6NxnUEgdoH0GBaCh2WeYlhxVsiRHciRHciRHchRNTI6SkaMhzVEyszhHPSds8ApAx4Ylyb/YkoumKTCKdL0FZsCLC0cccURfgZkonQvP9OVomhceOZoROep34WnKetQ0R1NwASdHfefIejRs65EcWY9a5GiANxTkqLccKaQCAAAMjM59BoXUAdpnUAAamn2GaclRJUtyJEdyJEdyJEfRxOQoGTka0hwlM4tz1HPCGhWArlkU5la+mLlHnlkGZvXec8LilWMEJg/Lmn3mhCUXNgnMxeGU3f46LL+5FZh7j3tf8jW9Lyy/pc/AKNL1FhgFoFqdC8/YOTojnPih94QTr2ktPHce+Z7ka31PWHbdEG8oyNGMyFG/C09T1qOmOZqCCzg56jtH1qNhW4/kyHrUIkcDvKEgR73lSCEVAABgYHTuM4xdXLDPMGX7DApAQ7PPMC05qmRJjuRIjuRIjuQokqPZnqNkZnGOek7YuAtAafnnf4dVlQb36iMXhzsHoQB08afCnN0OC/eOJzCKdL0FZoCLC8P1iOSOhWflx8KcXVo56mnhyXM0UAuPHA19jqbjAs561DRHU3ABJ0d95ch6NIzrkRxZj1rkaIA3FOSotxwppAIAAAyMzn2GvosL9hkmb59BAWho9hmmJUeVLMmRHMmRHMmRHEVyNNtzlMwszlHPCWtUAPrQonDHiKO5zwzLdql+kXuE1UlY7jzqvZWP7RnWpGE5N5y0a/Vz9wxr00ck/13yv0Vgzg8nVz5n3rEX1ASmUgCK5Z85nwrragKzbr/Kn7Xb18N9eWDuO+H9rY/P2SusbwvMleHUua1fN3/Zujww68NplY8vWLbBDdfpDkxeXDjiG4vK7+l3vetd5f+P4ky2+GeOu7gQF505Hwura464j4W68t9jlwPDnfnCc9fR7bla27bwnNeRnfPzheeCjo9/P8/RBC48CqlDn6PpuICzHlmPrEcTJ/6Z1qPxrEdT8EJIjvrK0SBtKMzaHCmkDm+OFFIBAAAGRuc+Q1/FBfsMk7vPoAA0NPsMciRHctScHMmRHDU3MTka+ch+ORqWHCUzi3PUc8LG/4jkGJjki1j4rY4CUBaYGJTWiXT/GpbtfUC4M29wxxPo5h19Ttnebj+RrloAWpkGpBWY48PJoxWALj4szI/lny6BiQWgAy5NAnPb18L8sgC0OixflPxzHpj1i+aE+SdckQcmK//MP3FdHpjvhVPTAtD69OMLlq3Pw3JmOE0BaPoDM8wFoPP2D3OLRafLBdzi868MT15/QJhbLjznhJP2OTDcVcnRvGPOzXOULTrzjlmZF+mOS7ITc5QtOq0i3QnhlMlYeBRShz5H03EBZz1quh7FLFmPrEeZ+Gdaj8azHk3BCyE56itHg7ShMGtzpJA6vDlSSAUAABgYnfsMPRcX7DNM/j6DAtDQ7DNMS44ezk6kkyM5kiM5kiM5KkxMjpKRoyHNUTKzOEc9J2z8BaDL01m1MP9iFn67beFJg9LtEckX7Bnm7HNMGpYiMLUFoBsPDvN2PTjcM+aRwrEAlH0d879zcZfAXB6WJ58zsgDUEZhVe4U5i1Zkgbn9m2H+3G+GTZ2BufOfk4//c9icBiaGZZID44Zrb4EZ2gJQ9rXNPXJFtuiMuIDLTnkcufAkC06+6KRzYczVsVmObjgoyc5B4e7yZMf8aO4bD0k+fki4Z7KP5lZIHfocTccFnPWo6Xo0BRdwctRXjqxHw7geyZH1qEWOBnhDQY56y5FCKgAAwMDo3Gforbhgn0EByD5D1bTkqMiSHMmRHMmRHMlRbmJylIwcDWmOkpnFOeo5YU0LQL/KH5G8OhaBdlkc7swDM6IAdP7H27/4XgpAF/1dmPOl4/LQjFUAio9IPikckPzeB1xcF5jlyc+9Lyy/NQlMZwHo8s+2f21FAWjV58Kc/VeMDMzqf0g+fmYemBiWSQ6MG669BWZoC0DvCSde862wf/L17b+y7gLuqLB4znvDsutrFp5Ypqv8+5ULT8xO+s8dC89Fn0gydXyXHE3gwqOQOvQ5mo4LOOtR0/VoCi7g5KivHFmPhnE9kiPrUYscDfCGghz1liOFVAAAgIHRuc/Q80la9hkmf59BAWho9hnkSI7kqDk5kiM5am5icpSMHA1pjpKZxTnqOWETVQB64sHvhWW7vCcsuy4LTFsBKJZ/dmk9IjkNS68FoJ5PpIsFoCQsN8fHJM8JB1zSEZhbvxrm7/bVcG8MTLUAdNlnw5y5yT8XgameSBcLQHUn0sUCkBNSBy8wQ10ASnJ0bTyeOy4+HRdw1y1JFpslSX46Fp6Yo+Sfi0eutL0TIs1OzTsh4sIzFe+EUEgd+hxNxwWc9ajpejQFF3By1FeOrEfDuB7JkfWoRY4GeENBjnrLkUIqAADAwOjcZ+i9uGCfYdL3GRSAhmafYVpyFItAciRHciRHciRHFROTo45CqhwNUY6SmcU56jlh4y4Anfe/w/7nXZ78cxKYWAC6dnESmj3C6jwwsQA096gz0wLQnUe9N8zZ+6jkn7MCUCz8dBaA5h1zbhaYagHo0eOSf54TllwUQxPLP8eHk4+9oCYwlQJQDExaAnpfWH5LKzDr9psT5h93eRaYSgHovuPfH+YsOq0MzPpFyddWFIAeXxEOTP78pauKwHwvnLpsXRKWM8PS+PHVRVjODKct2+CG63QHZtgLQGWOWkW69iy1Lzx3HZ3kqiNH5cKT5ihmp1h4jkuyc37yv8dnH7+4WHhOCKcc+/08RxO48CikDn2OpuMCznrUdD2KYz2yHmXin2k9Gs96VKxJ1qPZvB4V5GiANxTkqLccKaQCAAAMjM59hr6KC/YZJnefQQFoaPYZpiVHeQFIjuRIjuRIjuSoIEezPUfJzOIc9Zywxx57LBx22GFp+ee73/1uGZgsLGMFpvrFJGG5NoYlD0xsb6cf3yOs3vKvYdkurc9dvE9sbLdeCP36hqVhXvpze4a1aWCKAlAWmBiU4te2AhMnhiVORwEoBuaST6Wff8All4XluyW/Nj2NLg9M2yOSV4flc1u//4GLKifSpYFZkZZ9ip9furoITFYCan3cDddpD8xMKADFY7lX7pF+rfuvPDPLTfouiPxR45WF59cPnxNOGpGrYuG5qlx8ip+vFunaM1XkaAIXHoXUoc/RdFzAWY+sR9ajiWM9Gu96NAUvhOSorxwN0obCrM2RQurw5kghFQAAYGB07jP0XVywzzB5+wwKQEOzzyBHciRHzcmRHMlRcxOTo4+lX6scDWOOkpnFOeo7YW+++WafN1zjaXSVE+liYB6sFICSefKhGJY8MOnkj0iOze3iOOF8nnokhqUITJyiABTDUgQmTl0BaAIDo0jXW2AUgGp1LjxyJEfDmqPpvICzHo03R1NwASdHfeXIeiRHcjTc65EcDfCGghz1liOFVAAAgIHRuc8wdnHBPsOU7TMoAA3NPsO05KiSJTmSIzmSIzmSo2hicpSMHA1pjpKZxTnqO2EKQHlgFOl6C4wCUK3OhUeO5GhYczSdF3DWo/HmaAou4OSorxxZj+RIjoZ7PZKjAd5QkKPecqSQCgAAMDA69xkUUgdon0EBaGj2GaYlR5UsyZEcyZEcyZEcRROTo2TkaEhzlMwszlHfCVMAygOjSNdbYBSAanUuPHIkR8Oao+m8gLMejTdHU3ABJ0d95ch6JEdyNNzrkRwN8IaCHPWWI4VUAACAgdG5z6CQOkD7DApAQ7PPMC05qmRJjuRIjuRIjuQompgcJSNHQ5qjZGZxjnpO2GOPPRYOO+ywcOihh4bvfve7ZWCysMzCF0KKdL0FZoCLCz9af0H44he/GN797neHd7zjHT0FZqJ0LjxyJEfDmqPpuICzHjXN0RRcwMlRXzmyHsmRHA3nelSQowHeUJCj3nKkkAoAADAwOvcZFFIHaJ9BAWho9hmmJUeVLMmRHMmRHMmRHEUTk6Nk5GhIc5TMLM5RzwnbtGlT+pvHiSWgWX/DVZGut8AMeHHhiCOO6CswE6Vz4ZEjORrmHPW78DRlPWqaoym4gJOjvnNkPZIjORq+9aggRwO8oSBHveVIIRUAAGBgdO4zKKQO0D6DAtDQ7DNMS44qWZIjOZIjOZIjOYomJkfJyNGQ5iiZWZyjnhOmANQRGEW63gKjAFSrc+GRIzka5hz1u/A0ZT1qmqMpuICTo75zZD2SIzkavvWoIEcDvKEgR73lSCEVAABgYHTuMyikDtA+gwLQ0OwzTEuOKlmSIzmSIzmSIzmKJiZHycjRkOYomVmco54TpgDUERhFut4CowBUq3PhkSM5GuYc9bvwNGU9apqjKbiAk6O+c2Q9kiM5Gr71qCBHA7yhIEe95UghFQAAYGB07jMopA7QPoMC0NDsM0xLjipZkiM5kiM5kiM5iiYmR8nI0ZDmKJlZnKOeE6YA1BEYRbreAjPAxYWzVxwd9txzz7DzzjuHnXbaqafATJTOhUeO5GhYczQdF3DWo6Y5moILODnqK0fWIzmSo+FcjwpyNMAbCnLUW44UUgEAAAZG5z6DQuoA7TMoAA3NPsO05KiSJTmSIzmSIzmSo2hicpSMHA1pjpKZxTnqOWEKQB2BUaTrLTADXFw44huLyu/pd73rXT0FZqLEP1NxQY5mQo6m4wLOetQ0R1NwASdHfeXIeiRHcjSc61FBjgZ4Q0GOesuRQioAAMDA6NxnUEgdoH0GBaCh2WeYlhxVsiRHciRHciRHchRNTI6SkaMhzVEyszhHPSdMAagjMIp0vQVGAahW/DMVF+RoJuRoOi7grEdNczQFF3By1FeOrEdyJEfDuR4V5GiANxTkqLccKaQCAAAMjM59hn6LC7/cfHm487ozw9mnfjXc9qMV4ZcPrLbPMFH7DApAQ7PPMC05qmRJjuRIjuRIjuQompgcfU+OhjZHycziHPWcMAWgjsAo0vUWGAWgWvHPVFyQo5mQo+m4gLMeNc3RFFzAyVFfObIeyZEcDed6VJCjAd5QkKPecqSQCgAAMDA69xn6LS78/L5Lw5UXHR3+9//7wXD4V78Qbrn6jPDEg2vtM0zEPoMC0NDsM0xLjipZkiM5kiM5kiM5iuRotucomVmco54TpgDUERhFut4CowBUK/6ZigtyNBNyNB0XcNajpjmaggs4OeorR9YjOZKj4VyPCnI0wBsKctRbjhRSAQAABkbnPsN4iguXn/cv4a//6i/CJ/f8/8IZy74Wbv/Rd8PjD6wZZZ/h2LC47XXgnmHtBOwzrNt3Tjjgkub7DOsXzQkHrir2GdaFU+dWv9Y5YcGy9VOzz6AANDT7DNOSo4ePkSM5kiM5kiM5ajMxOfqWHA1tjpKZxTnqOWEKQB2BUaTrLTAKQLXin6m4IEczIUfTcQFnPWqaoym4gJOjvnJkPZIjORrO9aggRyM3FORoyHKkkAoAADAwOvcZxiou3LLh1PDv60/J5genhOuvPCksP3Zp2OVD/084+uijwkknHBlOO/4r4a4fn1W/z3DBnsnrvp3DSTdU9hluWBqWHHNe432GySsufCCcemexz7A+nDa3KC9M8j6DAtDQ7DNMT47eK0dyJEdyJEdy1GZicnSgHA1tjpKZxTnqOWEKQB2BUaTrLTAKQLXin6m4IEczIUfTcQFnPWqaIwUg61FL/DOtR3JkPWpGjkZuKMjRkOVIIRUAAGBgdO4zjFVc+MbBnwlL9tkjmf+Tzv4LPxY+/r/+f+FDH3x/WL9+fbj66qvCtw//SvjeSV+p2WeIJ2i1Sgv1+wzHhSXV14hfOr6yz3BC8nOfDFfedGiYV/z8vsvC0/9xcVi+W+XXzPn7sC7dZ1geDig/9v6w/LZin+HUcOCcz4Z1t389zC9+ftHp4bnHr+g4NetzYf2I4sJd4YXV/xDmLD4z3WfYvOyDlc//QriqbZ/hnHBQ+XNfDBuu+GKYs+S8yj7DynBw+fO7hDPu7dhnUAAamn2GacnRj1t7dnJU/LwczeYcLd57DzkqP1+O5EiOZmeOkpnFOeo7YW+99ZYbruMqLijSDUxg8uLCPx72pTQwO++8c3jnO9/ZU2Amyl577RW2bt0qR3I09Dn63bP/MW0XcNYjRTrrUXPWIzmyHjUnRwqpQ5+jfENhOnMEAABAJr4u66e4cMK3F4Vvfe0L5Rz+lc+HhXv9f2HXD30grFq1KqxefVk48vBDw4VnHj5ynyGeorXLgeGurvsM54WTd50TllxU7DOcn/543rEX5PsMsbiQvG7c9dCwMd1nWJb++ICLs32G9pO0LkvLDAdcmu8z3Pq1MH+3r4X70j2GWFxIfp+5Xw/3pfsMp6c/PnBVts8w+klad1WKCz8Ipy0+ImzO9xmuWjwnLDjp6nyf4epw+rw54aC1xT7DeVmJoSwuXJv+/MHr8n2Ge48KC+YfFR6q7jMoAPW1zzBMBaAJyVFlz06O5EiO5EiO5CiSo9meo2RmcY76TlgsAG3fvr0MTBaW7oFRXChuuCrSDUxg8uLCkv32SgMTZ6oLQEuXLg0PPfSQHMnR0OfoqV89Ej7ykY+05WeqcmQ9Gm+OFICsRy3WIzmyHjUnR3mOFFKHN0f5hsJ05ggAAIBM3CPsp7jwwK3nhvtvPjuZc8L9t5wTNt5wVjjn1K+FD37gveGQg5eG7xz1jXD+in8OD91x4ch9hlhc2OeY7vsMF/1dmLPrweHu6j7DjYeEebseEu5J9xliceGvwyk3tfYZrtx3Tpj/nYvTfYa24sIlfx/m7PbVcG+5z7AqLN8tnqYV9xhicSH559tb+wyxrDD/hCvSfYbRiwtnhqXJ69alq2v2GdZ8IcxZfHa2z7A2+ed53woPVvcZqidpXbkw+fkjw0PlPsP14Yz5xWla+T6DAlBf+wzDVACakBxV9uzkSI7kaGSOjjv6H+VIjuRIjmZZjpKZxTnqO2E//elPw1lnnRV+ctcFaWCysHQPjOKCIt3ABSYvLuz5f/5XGpg4b3/723sKzEQ54ogjws0335zmQI7kaJhz9JOHHwgf/vCH2/IzVTmyHo03RzUXcHJkPbIeyZH1aNzkKM+RQurw5ijfUJjOHAEAAJCJe4T9FBc69xl+ft+l4bJzvxX+n/f+Rfj0Jz4aLjzziPDArecnP7d25D5DL4XUfY7r2Gc4PiyZ84lwRbrPEIsLnwxXVvYZNn7nr7sXF2pebx54WdxjiMWFz4Z1lX2G+094/yjFhfbfIyst5PsMqz/f9nNtxYUl57TvM3QWF6q/Lp+D11X2GRSA+tpnGKYC0ITkqLJnJ0ftI0dyJEfJyJEcjTtHR8hRMUOXo2RmcY76StjRRx+d/gFxLvrXI9LAZGHpPTCKdG64Tntgwu/Ds88+G/bbb7/0e3nXXXftOTAT5ZprrgnHHXdceDb53pEjORrWHP0+WXxWrlwZ/uzP/mxEhiY7R9ajJjkqsiRH1iPrkRxZjyaCHOU5Ukgd3hwlGZruHAEAAJCJ+4RNigu/uP+ycPXlx4cvfvaj4bvLDg3333LeKPsMx4TFc94bTrqhyz5DTydp9VFc2G95l32GfosLHY92LfYZYmlhbuvRriNO0uooLjx48ofaiwtLVo6+z6AA1PM+QzTMBaBx5ejHrT07OZIjOZIjOZKjaGJydJwcDW2OkpnFOeorYWvXrk3/gDgLP//J8PP7ZvENV0W63gIzoMWFN998M523ve1tIx6PPFpgJsrzzz8f9tprr/Di809mmZEjORrSHMUi3Tve8Y4RGZrsHFmPmuSoyJIcWY+sR3JkPZoIcpTnSCF1eHP0++nPEQAAAJm4592kuPD45lVh0y3nhfWXHBs23bpyzH2Gu45+b/K6b+eylJruM9ywNCw55rzw1E+ODUuS14RLLir2Gc4PJ+86J8w79oJ8n2Hs4sL845J/TvcZlocDkt/rgEvr9hnGLi7MP/HKfI+he3Fh87IPhjmLzyr3Ga5anLymLYoLT50TDkr+/IPWFvsM56U/LosLv1mZ/vjgdaPsMygA9bzPEA1zAWh8OWqVu+VIjuRIjuRIjqKJydG5cjS0OUpmFueor4Rt3bo1/QOKWXHS1/Ow9B4YRTo3XKc7MG+99VbYvn17eM973lMbljhT4bvf/W5YtWpVeP7X98uRHA1ljuLjietOdCxmMlmPmuSoyJIcWY8y1iM5sh41J0cKqXIEAADARIj73U2KC3Gf4VcPrA6/2Hx5ePyBbK9hzH2GC/dsfx2469Jwd7nPcFxaXih+ListFPsMoxcXnr75sDA//XV/H9bFfYZbv5r/OJ/dvhbuS/cYRi8uPHf7N/Nf97mwfrSTtJ78QTit8tjXgxZXTtKK+wx3fyssKP7sOV8MG6qPdo37DBuPrPx8MvOPCg9V9xkUgHraZ0j+T/q9PMwFoHHlKD4qufrvKUfZyJEcyZEcyVHDHK2So2SGM0fJzOIc9Z2w5cuXp39InP/3Ix8O9910bt+BUaRzw3W6AvP666+F8847Lz0BqC4oxUyFeJrWwoULwwvPP5d+H8uRHA1LjuK8+uqr4cADD+x6ilacyWY9Gm+OiizJkfUoYz2SI+tRc3KkkCpHAAAATIS43920uGCfobd9hvho1wWnXNP7PoMCUE/7DMn/Sb+Xh70A1HeOKlmSIzmSIzmSIzmKJiZHycjRkOYomVmco74TFm+27rHHHukfFGfh5z8V/mNjDM0kLjx5WAYqMIp0vQVmwG64HnXUUen37fvf//7wh3/4h7VhiTNV7r777vD1r389vPrSM2k25EiOhiFH8aLp5JNPDv/9v//32vwUM9msR+PNUf8XcHJkPZIjObIejW3W50ghVY4AAABoLO4ZTnkBaDbuM9zz7bBgzofC6Rv72GdQABpznyFO8n/S72VFOjmSIzmSIzmSI4XU2Z2jZGZxjsaVsE2bNqV/UDF7fvx/hVt+eGYfgelz4cnDMlCBUaTrLTADcsP1mWeeDkuXHtj2ffuf//N/rg3LvHnz8u/0qXHJJZeE4447Lrz0u+eS78Ub5UiOBjZHbyWzY8f2sHLlyvCBD3ygNj/FTFWOrEfjyVGfF3ByNKE5sh7JkRzNzPWoMKtzpJAqRwAAADQW9wsVUidjn+GccFDb690PhdPv6XOfQQGo6z6DIl17luRIjuRIjuRIjqKJyVEycjSkOUpmFudo3Albu3Zt+odV58h/PjAJxZqJX3jysAxUYBTpegvMANxwXbtmTfjoRz/a9r36l3/5l7VBiTMdfvCDH4RDDz00/OxnP0uC/NM0F3IkR4OUo7fefDM8/fTT6amOO++8c212qjOVrEcTfQEnR5OVI+uRHMnRzF6PCrM2RwqpcgQAAEBjcc9QIXVA9xkUgGr3GRTp8hxVsiRHciRHciRHchRNTI6SkaMhzVEyszhHjRIWb7ZWixVnnHFGeOP1V8LvnvtZePLRG8Md152VzNn5nJPPudlcH+e8dH6ycV3yzXlzMrekc89N3w//94bzw503XJDPheXcdcNF4a4bs7n3lkvLb9bnkm/Un266Otz175eEu27K5u6bLs3nsnwuD3fffHm4J5nHH7mx/OZ9+pd3ho23rAkbb63O2nyuyOfKsPG2K8OWe38Uflt+Iz8YfvrADeHe29eHe+9YH+4r5wf5XJXO/XdsCPf/3w3h+V8/EF56JvuGfvpXm8L9d/4wmR+F++9qzaa7rsnn2mzuvi48/tg92Td4MvEbfMv9/x423/PjbDbGuaGcBzbemM+/h4c335p9s+fzxC82hwfuuzmfW8KD99/aMbel89D9t4dnnnos++ZP5qUXngwPbb4jbNn8f5O5M2x5IM5dHXN3Oj9/7KHwRhGGZJ54/NHw8EP3pvPIQ/eFR7bEub9tfrJlUzqvvfxCFoxkXnrxufCTRx6ozIPhJz95MDz6k4fy2VLOs09vbQUlmZ8++pNwxx23hVNOOTl88pOfLL8/i/kf/+N/hD/4gz+oDcp0nv6zZcuWsHDhwjRHP3kk+Y9ikqNnfnFb+R/1bG7M59+zSf7j/nTyH/c4z/w8ZqiVo3Qq/5F/NvmPfDHP/bL4j337f/RjjrK5MzyX/Ec/TvEf/ueT//Bnc094Pv2PfzFZjl5oWwDaF4LfJgtBNpvT/BRTXQxe/M1D4cVyQagsCk8ni0EyLz2dLAhxUUinsjCkky0MbQtEOsniECfPTzVH5WLRsWCUi0Y6lUWjmGTxeDVZOLJpLR6t2ZrO6y9VFpFiysUkLiStxaQ1z+fzQluO4sKyLVlQ4mx/PVtUtieLSnV2vJEsLMXkOdqx7dVkoanOa8kFT7bQZPNGOW/tqCw46ewIbyb/G0/O+uUvf5menhX/e/9f/st/qc1OdaYjR9Yj65H1aOJYj6xH1qPmZmWOtsqRHAEAANBU3DdUSFUAKvYmFIDGZ1pypAAkR3IkR3IkRx0mJkcKqcObI4XURuLN1r322istWmzblnyxb70V3nzzzfDAAw+kX0wvE2+Ibd++vZzPfvaztZ/XOfHzqr8u/j51n1c3V199dfnrnnjiidrPqZt42lH1z4yP5Kz7vLqJf07x6zZu3Fj7OXXj72f06fz72WOPPWo/b7fdduv6WOQ4f/zHf5x/V0+veNrjokWL0lwdfvjh6b+fMdMx8dSsWKb58Ic/HP7iL/6ia3GuOtOZI+uR9ag61qPmrEdmUGbY1qMqOTKDMsOcIwAAgNkk7h8qpCoAKQA1My05UgCSIzmSIzmSow4TkyOF1OHNkUJqY7H489hjj+U/yvzpn/5p+sX0Mu9+97vbvtgPfehDtZ/XOfHzqr8u/j51n1c373rXu8pf9/a3v732c+qm85GG8WZe3efVTfxzil/3zne+s/Zz6sbfz+jT+ffzN3/zN20/H4s//+2//bfwh3/4h22fV534Zw+arVu3pjmK/37GTMf8yZ/8SfijP/qj2szUzSDkyHpU/7mdM1H/vfX30z6dfz/WI2MmZoZxPeokR2a6ZybkCAAAYDaI+4gKqQpACkDNTEuOFIDkSI7kSI7kqMPE5EghdXhzpJA6Ke6+++6w6667poWQsaZaNonzl3/5l7Wf1znx86q/Lv4+dZ9XNzvttFP56972trfVfk7d/Nmf/Vnbn/lf/+t/rf28uol/TvHr3vGOd9R+Tt34+xl9Ov9+4tcQPx5LP9V/j24z6Cf//Pmf/3nt123MIM0g58h6NHKsR6OP9aie9cgMw8iRMc3HyagAAADTZ1oKQHlpQXFBAUgBSJFOjuSoIEdyJEfNTUyOFFKHN0cKqZOuetKYMYM0w0SOzKDOMJEjM6gzTOTIDOoMEzkygzoAAABMr2kpAOWlBcUFBSAFIEU6OZKjghzJkRw1NzE5Ukgd3hwppE6Zv/qrv6r94oyZyoknUw0zOTKDMHJkTPORI2OajxwZ03yGPUcAAAAzyR577BF+97vfTW0BKC8tKC4oAM2UAtC05EgBSI7kSI7kSI46TEyOFFKHN0cKqQAAAAAAAABMo4ULF4bHH398agtAeWlBcUEBaCKLCy88/bOw++6791VcmCjTkiMFIDmSIzmSIznqMDE5Ukgd3hzNnELqeHKkkAoAAAAAAAAwzQ477LCwcePGqS0A5aUFxQUFoIksLvzq5w+Fj3zkI30VFybKtORIAUiO5EiO5EiOOkxMjhRShzdHM6eQOp4cKaQCAAAAAAAATLNzzjknfP/73w9bf3rt1BWA8tKC4oIC0EQWF66//vrwN3/zN30VFybKtORIAUiO5EiO5EiOOkxMjhRShzdHM6eQOp4cKaQCAAAAAAAATLNNmzaFQw89NPz2Nw8rpCoADW1x4a233grHHXdceNe73tVXcWGiTEuOFIDkSI7kSI7kqMPE5EghdXhzNDMKqePNkUIqAAAAAAAAwABYtGhReOThLeHJh9crpCoADWVx4Zlnngkf/ehHwx/8wR/0VVyYSFOeIwUgOZIjOZIjOarRPEcKqcObo5lRSB1vjhRSAQAAAAAAAAbAbbfdFg4//PDwyotbFVIVgIauuPDmjh3hjDPOCO9+97trSwtxpsKU50gBSI7kSI7kSI5qNM+RQurw5mj4C6lNcqSQCgAAAAAAADAgjjjiiHDzzTeH53997+QXgPLSguKCAtBEFBc2b94cPvKRj3Q9RSvOVJnSHCkAyZEcyZEcyVEXzXKkkDq8ORr+QmqTHCmkAgAAAAAAAAyIbdu2ZY94fWRLePaXt09uASgvLSguKAA1LS489dRTYY899ghve9vbagsLcf74j/84/y6ffFOaIwUgOZIjOZIjOeqiWY4UUoc3R8NdSG2aI4VUAAAAAAAAgAGydevWsHTp0vRErZdeeDwtHUxKASgvLSguKACNt7iwY8eO9AStWFp4xzveUVtYKGaqTVmOFIDkSI7kSI7kaBTjz5FC6vDmaDgLqROVI4VUAAAAAAAAgAHz8ssvp495Peqoo8LWp54IL/z6vvDkw/+mkKoANBDFhbfe3BFefPHFcMYZZ4QFCxaMeoJWnLe//e35d/bUmpIcVbIkR3IkR3IkR3JUZ3w5Ukgd3hwNVyF1onOkkAoAAAAAAAAwoG688caw1157hcMPPzxcffXV4dGH7wuvvPjrmnlqlNnamt/Vz6u/+80Y83R49aVu80zXee2lZ8NrL482z40yz4fXXuk+r7/ywijz2/D6q6PNi6PPa3F+V84bI+al7vN6nJdHmVfaZlsxb8R5dYx5rX62xXm9bbbXzhsjZ3t1to0y28MTTzwRrr/++rRQ8z//5/8M7373u2uLCp0z3eSo+9Tnp5i67FSnIzedI0c1I0dy1DkduekcOaoZOZKjzunITefIUc1MXo4UUgEAAAAAAAAG2LZt28Jtt92WFhg+/OEPh7/92781Zlomfv/9zd/8TfiTP/mT8Id/+Ie1JYXO+fjHP55/J08vOTKDMnJkTPORI2Oaz2TlSCEVAAAAAAAAYEh85jOfqb05bMwgzrx58/Lv3MEiR2aYRo6MaT5yZEzz6TVHCqkAAAAAAAAAQ+btb3977Y1iYwZlhoEcmUGfYSBHZtBnGMiRGfTph0IqAAAAAAAAwBCKj8ysu2FszHTOoJ5C140cmUEcOTKm+ciRMc1nPDlSSAUAAAAAAACYAeINY2OmY2aSun8/Y6ZiZpK6fz9jpmJmkrp/P2OmYppSSAUAAAAAAAAAAACgEYVUAAAAAAAAAAAAABpRSAUAAAAAAAAAAACgEYVUAAAAAAAAAAAAABpRSAUAAAAAAAAAAACgEYVUAAAAAAAAAAAAABpRSAUAAAAAAAAAAACgEYVUAAAAAAAAAAAAABpRSAUAAAAAAAAAAACgEYVUAAAAAAAAAAAAABpRSAUAAAAAAAAAAACgEYVUAAAAAAAAAAAAABpRSAUAAAAAAAAAAACgEYVUAAAAAAAAAAAAABpRSAUAAAAAAAAAAACgEYVUAAAAAAAAAAAAABpRSAUAAAAAAAAAAACgEYVUAAAAAAAAAAAAABpRSAUAAAAAAAAAAACgEYVUAAAAAAAAAAAAABpRSAUAAAAAAAAAAACgEYVUAAAAAAAAAAAAABpRSAUAAAAAAAAAAACgEYVUAAAAAAAAAAAAABpRSAUAAAAAAAAAAACgEYVUAAAAAAAAAAAAABpRSAUAAAAAAAAAAACgEYVUAAAAAAAAAAAAABpRSAUAAAAAAAAAAACgEYVUAAAAAAAAAAAAABpRSAUAAAAAAAAAAACgEYVUAAAAAAAAAAAAABpRSAUAAAAAAAAAAACgEYVUAAAAAAAAAAAAABpRSAUAAAAAAAAAAACgEYVUAAAAAAAAAAAAABpRSAUAAAAAAAAAAACgEYVUAAAAAAAAAAAAABpRSAUAAAAAAAAAAACgEYVUAAAAAAAAAAAAABpRSAUAAAAAAAAAAACgEYVUAAAAAAAAAAAAABpRSAUAAAAAAAAAAACgEYVUAAAAAAAAAAAAABpRSAUAAAAAAAAAAACgEYVUAAAAAAAAAAAAABpRSAUAAAAAAAAAAACgEYVUAAAAAAAAAAAAABpRSAUAAAAAAAAAAACgEYVUAAAAAAAAAAAAABpRSAUAAAAAAAAAAACgEYVUAAAAAAAAAAAAABpRSAUAAAAAAAAAAACgEYVUAAAAAAAAAAAAABpRSAUAAAAAAAAAAACgEYVUAAAAAAAAAAAAABpRSAUAAAAAAAAAAACgEYVUAAAAAAAAAAAAABpRSAUAAAAAAAAAAACgEYVUAAAAAAAAAAAAABpRSAUAAAAAAAAAAACgEYVUAAAAAAAAAAAAABpRSAUAAAAAAAAAAACgEYVUAAAAAAAAAAAAABpRSAUAAAAAAAAAAACgEYVUAAAAAAAAAAAAABpRSAUAAAAAAAAAAACgEYVUAAAAAAAAAAAAABpRSAUAAAAAAAAAAACgEYVUAAAAAAAAAAAAABpRSAUAAAAAAAAAAACgEYVUAAAAAAAAAAAAABpRSAUAAAAAAAAAAACgEYVUAAAAAAAAAAAAABpRSAUAAAAAAAAAAACgEYVUAAAAAAAAAAAAABpRSAUAAAAAAAAAAACgEYVUAAAAAAAAAAAAABpRSAUAAAAAAAAAAACgEYVUAAAAAAAAAAAAABpRSAUAAAAAAAAAAACgEYVUAAAAAAAAAAAAABpRSAUAAAAAAAAAAACgEYVUAAAAAAAAAAAAABpRSAUAAAAAAAAAAACgEYVUAAAAAAAAAAAAABpRSAUAAAAAAAAAAACgEYVUAAAAAAAAAAAAABpRSAUAAAAAAAAAAACgEYVUAAAAAAAAAAAAABpRSAUAAAAAAAAAAACgEYVUAAAAAAAAAAAAABpRSAUAAAAAAAAAAACgEYVUAAAAAAAAAAAAABpRSAUAAAAAAAAAAACgEYVUAAAAAAAAAAAAABpRSAUAAAAAAAAAAACgEYVUAAAAAAAAAAAAABpRSAUAAAAAAAAAAACgEYVUAAAAAAAAAAAAABpRSAUAAAAAAAAAAACgEYVUAAAAAAAAAAAAABpRSAUAAAAAAAAAAACgEYVUAAAAAAAAAAAAABpRSAUAAAAAAAAAAACgEYVUAAAAAAAAAAAAABpRSAUAAAAAAAAAAACgEYVUAAAAAAAAAAAAABpRSAUAAAAAAAAAAACgEYVUAAAAAAAAAAAAABpRSAUAAAAAAAAAAACgEYVUAAAAAAAAAAAAABpRSAUAAAAAAAAAAACgEYVUAAAAAAAAAAAAABpRSAUAAAAAAAAAAACgEYVUAAAAAAAAAAAAABpRSAUAAAAAAAAAAACgEYVUAAAAAAAAAAAAABpRSAUAAAAAAAAAAACgEYVUAAAAAAAAAAAAABpRSAUAAAAAAAAAAACgEYVUAAAAAAAAAAAAABpRSAUAAAAAAAAAAACgEYVUAAAAAAAAAAAAABpRSAUAAAAAAAAAAACgEYVUAAAAAAAAAAAAABpRSAUAAAAAAAAAAACgEYVUAAAAAAAAAAAAABpRSAUAAAAAAAAAAACgEYVUAAAAAAAAAAAAABpRSAUAAAAAAAAAAACgEYVUAAAAAAAAAAAAABpRSAUAAAAAAAAAAACgEYVUAAAAAAAAAAAAABpRSAUAAAAAAAAAAACgEYVUAAAAAAAAAAAAABpRSAUAAAAAAAAAAACgEYVUAAAAAAAAAAAAABpRSAUAAAAAAAAAAACgEYVUAAAAAAAAAAAAABpRSAUAAAAAAAAAAACgEYVUAAAAAAAAAAAAABpRSAUAAAAAAAAAAACgEYVUAAAAAAAAAAAAABpRSAUAAAAAAAAAAACgEYVUAAAAAAAAAAAAABpRSAUAAAAAAAAAAACgEYVUAAAAAAAAAAAAABpRSAUAAAAAAAAAAACgEYVUAAAAAAAAAAAAABpRSAUAAAAAAAAAAACgEYVUAAAAAAAAAAAAABpRSAUAAAAAAAAAAACgEYVUAAAAAAAAAAAAABpRSAUAAAAAAAAAAACgEYVUAAAAAAAAAAAAABpRSAUAAAAAAAAAAACgEYVUAAAAAAAAAAAAABpRSAUAAAAAAAAAAACgEYVUAAAAAAAAAAAAABpRSAUAAAAAAAAAAACgEYVUAAAAAAAAAAAAABpRSAUAAAAAAAAAAACgEYVUAAAAAAAAAAAAABpRSAUAAAAAAAAAAACgEYVUAAAAAAAAAAAAABpRSAUAAAAAAAAAAACgEYVUAAAAAAAAAAAAABpRSAUAAAAAAAAAAACgEYVUAAAAAAAAAAAAABpRSAUAAAAAAAAAAACgEYVUAAAAAAAAAAAAABpRSAUAAAAAAAAAAACgEYVUAAAAAAAAAAAAABpRSAUAAAAAAAAAAACgEYVUAAAAAAAAAAAAABpRSAUAAAAAAAAAAACgEYVUAAAAAAAAAAAAABpRSAUAAAAAAAAAAACgEYVUAAAAAAAAAAAAABpRSAUAAAAAAAAAAACgEYVUAAAAAAAAAAAAABpRSAUAAAAAAAAAAACgEYVUAAAAAAAAAAAAABpRSAUAAAAAAAAAAACgEYVUAAAAAAAAAAAAABpRSAUAAAAAAAAAAACgEYVUAAAAAAAAAAAAABpRSAUAAAAAAAAAAACgEYVUAAAAAAAAAAAAABpRSAUAAAAAAAAAAACgEYVUAAAAAAAAAAAAABpRSAUAAAAAAAAAAACgEYVUAAAAAAAAAAAAABpRSAUAAAAAAAAAAACgEYVUAAAAAAAAAAAAABpRSAUAAAAAAAAAAACgEYVUAAAAAAAAAAAAABpRSAUAAAAAAAAAAACgEYVUAAAAAAAAAAAAABpRSAUAAAAAAAAAAACgEYVUAAAAAAAAAAAAABpRSAUAAAAAAAAAAACgEYVUAAAAAAAAAAAAABpRSAUAAAAAAAAAAACgEYVUAAAAAAAAAAAAABpRSAUAAAAAAAAAAACgEYVUAAAAAAAAAAAAABpRSAUAAAAAAAAAAACgEYVUAAAAAAAAAAAAABpRSAUAAAAAAAAAAACgEYVUAAAAAAAAAAAAABpRSAUAAAAAAAAAAACgEYVUAAAAAAAAAAAAABpRSAUAAAAAAAAAAACgEYVUAAAAAAAAAAAAABpRSAUAAAAAAAAAAACgEYVUAAAAAAAAAAAAABpRSAUAAAAAAAAAAACgEYVUAAAAAAAAAAAAABpRSAUAAAAAAAAAAACgEYVUAAAAAAAAAAAAABpRSAUAAAAAAAAAAACgEYVUAAAAAAAAAAAAABpRSAUAAAAAAAAAAACgEYVUAAAAAAAAAAAAABpRSAUAAAAAAAAAAACgEYVUAAAAAAAAAAAAABpRSAUAAAAAAAAAAACgEYVUAAAAAAAAAAAAABpRSAUAAAAAAAAAAACgEYVUAAAAAAAAAAAAABpRSAUAAAAAAAAAAACgEYVUAAAAAAAAAAAAABpRSAUAAAAAAAAAAACgEYVUAAAAAAAAAAAAABpRSAUAAAAAAAAAAACgEYVUAAAAAAAAAAAAABpRSAUAAAAAAAAAAACgEYVUAAAAAAAAAAAAABpRSAUAAAAAAAAAAACgEYVUAAAAAAAAAAAAABpRSAUAAAAAAAAAAACgEYVUAAAAAAAAAAAAABpRSAUAAAAAAAAAAACgEYVUAAAAAAAAAAAAABpRSAUAAAAAAAAAAACgEYVUAAAAAAAAAAAAABpRSAUAAAAAAAAAAACgEYVUAAAAAAAAAAAAABpRSAUAAAAAAAAAAACgEYVUAAAAAAAAAAAAABpRSAUAAAAAAAAAAACgEYVUAAAAAAAAAAAAABpRSAUAAAAAAAAAAACgEYVUAAAAAAAAAAAAABpRSAUAAAAAAAAAAACgEYVUAAAAAAAAAAAAABpRSAUAAAAAAAAAAACgEYVUAAAAAAAAAAAAABpRSAUAAAAAAAAAAACgEYVUAAAAAAAAAAAAABpRSAUAAAAAAAAAAACgEYVUAAAAAAAAAAAAABpRSAUAAAAAAAAAAACgEYVUAAAAAAAAAAAAABpRSAUAAAAAAAAAAACgEYVUAAAAAAAAAAAAABpRSAUAAAAAAAAAAACgEYVUAAAAAAAAAAAAABpRSAUAAAAAAAAAAACgEYVUAAAAAAAAAAAAABpRSAUAAAAAAAAAAACgEYVUAAAAAAAAAAAAABpRSAUAAAAAAAAAAACgEYVUAAAAAAAAAAAAABpRSAUAAAAAAAAAAACgEYVUAAAAAAAAAAAAABpRSAUAAAAAAAAAAACgEYVUAAAAAAAAAAAAABpRSAUAAAAAAAAAAACgEYVUAAAAAAAAAAAAABpRSAUAAAAAAAAAAACgEYVUAAAAAAAAAAAAABpRSAUAAAAAAAAAAACgEYVUAAAAAAAAAAAAABpRSAUAAAAAAAAAAACgEYVUAAAAAAAAAAAAABpRSAUAAAAAAAAAAACgEYVUAAAAAAAAAAAAABpRSAUAAAAAAAAAAACgEYVUAAAAAAAAAAAAABpRSAUAAAAAAAAAAACgEYVUAAAAAAAAAAAAABpRSAUAAAAAAAAAAACgEYVUAAAAAAAAAAAAABpRSAUAAAAAAAAAAACgEYVUAAAAAAAAAAAAABpRSAUAAAAAAAAAAACgEYVUAAAAAAAAAAAAABpRSAUAAAAAAAAAAACgEYVUAAAAAAAAAAAAABpRSAUAAAAAAAAAAACgEYVUAAAAAAAAAAAAABpRSAUAAAAAAAAAAACgEYVUAAAAAAAAAAAAABpRSAUAAAAAAAAAAACgEYVUAAAAAAAAAAAAABpRSAUAAAAAAAAAAACgEYVUAAAAAAAAAAAAABpRSAUAAAAAAAAAAACgEYVUAAAAAAAAAAAAABpRSAUAAAAAAAAAAACgEYVUAAAAAAAAAAAAABpRSAUAAAAAAAAAAACgEYVUAAAAAAAAAAAAABpRSAUAAAAAAAAAAACgEYVUAAAAAAAAAAAAABpRSAUAAAAAAAAAAACgEYVUAAAAAAAAAAAAABpRSAUAAAAAAAAAAACgEYVUAAAAAAAAAAAAABpRSAUAAAAAAAAAAACgEYVUAAAAAAAAAAAAABpRSAUAAAAAAAAAAACgEYVUAAAAAAAAAAAAABpRSAUAAAAAAAAAAACgEYVUAAAAAAAAAAAAABpRSAUAAAAAAAAAAACgEYVUAAAAAAAAAAAAABpRSAUAAAAAAAAAAACgEYVUAAAAAAAAAAAAABpRSAUAAAAAAAAAAACgEYVUAAAAAAAAAAAAABpRSAUAAAAAAAAAAACgEYVUAAAAAAAAAAAAABpRSAUAAAAAAAAAAACgEYVUAAAAAAAAAAAAABpRSAUAAAAAAAAAAACgEYVUAAAAAAAAAAAAABpRSAUAAAAAAAAAAACgEYVUAAAAAAAAAAAAABpRSAUAAAAAAAAAAACgEYVUAAAAAAAAAAAAABpRSAUAAAAAAAAAAACgEYVUAAAAAAAAAAAAABpRSAUAAAAAAAAAAACgEYVUAAAAAAAAAAAAABpRSAUAAAAAAAAAAACgEYVUAAAAAAAAAAAAABpRSAUAAAAAAAAAAACgEYVUAAAAAAAAAAAAABpRSAUAAAAAAAAAAACgEYVUAAAAAAAAAAAAABpRSAUAAAAAAAAAAACgEYVUAAAAAAAAAAAAABpRSAUAAAAAAAAAAACgEYVUAAAAAAAAAAAAABpRSAUAAAAAAAAAAACgEYVUAAAAAAAAAAAAABpRSAUAAAAAAAAAAACgEYVUAAAAAAAAAAAAABpRSAUAAAAAAAAAAACgEYVUAAAAAAAAAAAAABpRSAUAAAAAAAAAAACgEYVUAAAAAAAAAAAAABpRSAUAAAAAAAAAAACgEYVUAAAAAAAAAAAAABpRSAUAAAAAAAAAAACgEYVUAAAAAAAAAAAAABpRSAUAAAAAAAAAAACgEYVUAAAAAAAAAAAAABpRSAUAAAAAAAAAAACgEYVUAAAAAAAAAAAAABpRSAUAAAAAAAAAAACgEYVUAAAAAAAAAAAAABpRSAUAAAAAAAAAAACgEYVUAAAAAAAAAAAAABpRSAUAAAAAAAAAAACgEYVUAAAAAAAAAAAAABpRSAUAAAAAAAAAAACgEYVUAAAAAAAAAAAAABpRSAUAAAAAAAAAAACgEYVUAAAAAAAAAAAAABpRSAUAAAAAAAAAAACgEYVUAAAAAAAAAAAAABpRSAUAAAAAAAAAAACgEYVUAAAAAAAAAAAAABpRSAUAAAAAAAAAAACgEYVUAAAAAAAAAAAAABpRSAUAoCdbt24NmzZtGjGPPfZY/hmZ+OO6z6ubbdu25b8qhJdffrn2c+omfi1VW7Zsqf28zomfV9Xt36lu4tdXiF933efUjb+f0afb30/nv8NM0e3v1PfJ6OPvZ/Tp9vfT+e8AAAAAAAAAk0khFQCAEWKJ6dJLLw2HHXZY+Nu//dtRJ35OVS+/pphqWSqWp+o+p24uuOCC/Fdl9tprr9rP65z4eVXx96n7vLqJX18hft11n1M3/n5Gn25/P4sWLSo/Z+nSpeGcc84ZUbobdHI0cuRo9JEjAAAAAAAAhtmEF1LjTbO1a9eGb3zjG+lNsF5v2hkzERO/3+L3XZx48//xxx/PvzOHixyZ6Rw5Mqb5zIQc3X333bX/bnVz6KGHhjfffLOc+OO6z6ubJ598svx19913X+3n1M3555/f9mf2mvH4edVfF3+fus+rm/j1Fb8uft11n1M3/n5Gn25/P92+5liqq5b2BpkcjRw5Gn3kCAAAgNHY9zbTOfH7bdj3vSM5MtM5cmRM85EjY5rPZOdowgqp8ZSVGJL4BZ9xxhnhjjvuCBs3bgxPPP4f4ZUXf12Zp0aZra35Xf28+rvfjDFPh1df6jbPdJ3XXno2vPbyaPPcKPN8eO2V7vP6Ky+MMr8Nr7862rw4+rwW53flvDFiXuo+r788xrzSNtuKeSPOq2PMa/WzLc7rbbO9dt4YOdurs612tm59Kv2+i3PWWWeFhQsXpqcCDcvNVjnqPvX5KaYuO9XpyE3nyFHbyFGcJCty1DEduekcOWqbYc9R9MYbb4SPfvSjbRemf//J/xMOWPS5yvxDOqec+O1Kfp5Kf3zAos+3Zv/6OXD/L4Qnf/lImZsH778j/VhrvhgOXFw//3bFJW3ZOeKfDks+vjCdpYv3DkuX1M+3/vkrbblZf+Vlycf3qcyXwtID6uehB+4pM/PUEz8LBx2wb8fsFw46cOSctvyEJCetHJ22/MTk44tGztI4+5dzcDJbf/3LJCdZjh5+aFPyscX1c9CStrnqB1fm+cnm2/9yePLxA8o5pJiD4xxYzpHfPiLJSCtDG676t+TjS+vnkDgHlfPII1uSjGTZefo3T4UvJx/L5uCR8+XWrFhxRlt+4o+//OVDkv+Of7bt+69zjj766CS7rUexDyI5Gjly1DFyBAAAQA/se3efYp+hfqp73HWT7293m0b73nFa+wojZ2bsew/Tm17lqPvU56eYuuxUpyM3nSNHbSNHcZKsyFHHdOSmc+SobeQoTpIVOeqYjtx0jhy1zWTnaEIKqfERhPvtt18akpde+FV49vE7wpMPXRF+9cBlyVyez6rwqwdXhSceXJ3MmvDEQ3HWphM/98ktca7MZ1148uF14dcP/1s2j6wv56lHfhCe+kmcq/LZEJ56dEPY+ujV+fwwbP1pnB+F3/z0mvCbx+Jcm8914Tf/cV14+j+uz+fH4emfxbkhPPOzG8MzP4/z7/ncFJ75xU3h2V/cnM8t4dlfxrk1necevy2Z2/O5Izz3qzvC87/6v/ncGZ5/Is5d6bzwxN3hhSfvyWdjeOHXG8Nvf31vPveF3z4V5/50XnxqU3hxa5zN2fzmgXweTOd3Tz+Uz5ZsnonzcDbPPhJeevYn+TwaXnouzk/Tefm5x8LLz8f5j3x+Fl554ef5/CK88ts4v0zn1d8+Hl59Mc6v8nki+Q/RE+G13z2ZzK+T/7jEeSqd11/aGl5/Oc5v8nk6+Y/A0+GNV57J5tVnk3kunW2vPh+2vRbnhXx+mwTwt2H76y+25o3fpbPjjZfCjm1xXs7nlbBj+yvhze2v5vNaeHNHnNfDWzveCG+9GWdbPtvDW28l8+aOsGPH9vDII4+kJwQN+s1WOZIjOWpOjnrJUZElOZKjlvj1HHHEEekF5u9///v0dL3t27eHc//1pHD5yqPDY/dcLEdyNG05ii+4brv1lnDUUUeOKNPFE0gHxazP0S/lSI4AAACYDLNy33sQ9xme6W+f4eUXir2GSdxneGX69703b96c7nsvX7584Pa9qyY9R5UsyZEcyZEcyZEcddN/jpKRoyHNUTKzOEeNCqkvv/xy2tpeuXJl2h5+Ovmme3zzpen8anMMywx+IaRI11tgprEA9Pu3dqTz1ltvpsG5/vrr0zZ3/L4dJHIkR3LUnBz1k6MpuICTo6HLUSzJxlLSHnvskT4iWo7kaFBz9Itf/DwsXPjF9Pv1kksuyb+DB8Osz5FCqhwBAAAwoWb1vrcCUG/7DNNYXCj2GYp973Xr1qUFhll7/6iSJTmSIzmSIzmSo07jz1EycjSkOUpmFueoUSH1sMMOCzfffHN48ZmfpovJ45svmZyFJw/LQAVGka63wAzADdffJ4H5/e9jaHakp9PFEtAgvSNCjuRIjpqTo35yNAUXcHI0VDlau3ZtWkoq5szTjkxyslqO5Ghgc7Rjx7Zw4403pqePvvXWW/l38vSSowHdUJCjocoRAAAA7Wb1vrcCUG/7DANQXKjue8dTtWbt/aNKluRIjuRIjuRIjjqNP0fJyNGQ5iiZWZyjcRdSzznnnHDxxRenYXl808XJxLDMohdCinS9BWaACkC///1bycffTE+mW7RoUf6dPL3kSI7kqDk5GsALODkamhw99thjbSW6I76xvxzJ0VDlKJbpVq9eHbZu3Zo+Kn86yNEAbyjI0dDkCAAAgHatfe9H7TMMyj6DAlBP+wyDef9oCnJUyZIcyZEcyZEcyVFVsxwlI0dDmqNkZnGOxlVIjTdd99tvv/D6q79Lv/ln5QshRbreAjNgN1zjxCb34YcfHv7Tf/pP4V/+5V/y7+qpJ0dyJEfNydF4cjQFF3ByNDQ5iu/GK0p0e/6f/xV+dm/MkBzJ0fDk6KWXXgpnnXVWmDdvXvjoRz86Le92laMB3lCQo6HJEQAAAC3Vfe+4d2CfYUD2GRSAetpnKPa9//RP/3Rg7h9NSY4qWZIjOZIjOZIjOSo0z1EycjSkOUpmFudoXIXUeNN148aNyTffj/OwzMIXQop0vQVmAG+4xvn5z3+e3mz9gz/4g/Dnf/7n+Xf21JIjOZKj5uRoPDmaggs4ORqKHG3ZsqUs0cW57spT5EiOhi5Hzz77TJqh4vt45513zr/Dp4YcVXKkkDq8OXpmenMEAABAu+q+9y83fd8+w6DsMygA9bTP8Pu32ve9/+qv/ir/zp5aU56jSpbkSI7kSI7kSI4KzXOUjBwNaY6SmcU56ruQ+vjjj4eFCxeGl57/Rfjl/UVYZuELIUW63gIzATdct7/xcnjttdfC668nARklMDu2v5F+3htvJB8bJTAh/D75+bfC17/+9bDTTjuFOXPmhD/+4z/OvsGniBzJkRw1J0fjzdEUXMDJ0VDk6IILLijLR185eKEcydHQ5ujCCy8sv5ff8573yJENBTnqN0e/n94cAQAA0NK5762QOkD7DDO0ANTrPsObO7b1vM8waPePFOnkSI76J0dyJEfNTUyOkpGjIc1RMrM4R30XUuNN15UrV4ank2+oWX3DVZGut8A0vuH6ShqCF198Mfzud7+rhKY9MDu2vx5eeeWV9PPiIydjaLoGJvw++d/fh6uvvjq8733vSwMTJx4xPFXkSI7kqDk5Gm+OpuACTo6GIkeLFi0qy0dXfv9YOZKjoc3R888/X34vx0eOx3foyZENBTnqI0fJWjSdOQIAAKClc99bIXWA9hlmZAFocvYZBu3+kSKdHMlR/+RIjuSouYnJUTJyNKQ5SmYW56jvQuo3vvGNcMcdd6ThmNU3XBXpegtMwxuuMSwvv/xy+M53vhNOOOGE8MILL4TXk4/t2NYKzI5tWVjuv//+cNRRR4U1a9akv25bGZqOwITfp9/LP/vp5vDhD3+4DEycj3/84+nPTTY5kiM5ak6OxpujKbiAk6OhyFFRPIrzs3svlCM5GuocLfz8J8vv5z/6oz+SIxsKctRPjn4/vTkCAACgpXPfWyF1gPYZZmABaDL3GQbp/pEinRzJUf/kSI7kqLmJyVEycjSkOUpmFueo70JqPAXoscceS8JyURqYLCy9BeaOI9/T9sXNmfPesOy6QX8hdGo4MP96D7y8EpjGRboN4fR51b+L1iw4+UfjC8y4brheGg7J/9xDrhq8G64xHDEwp5xySvjYxz4WTjzxxPDcc89lodke5/X052NYvvzlL4cvfvGL4aqrrkoDs33bG/WByYsLzzz12IjAxJkKcjRRORpt4flR14zNmX9UeGhCczTJF3ByVKv/HH0r7J9/ffuvbH8hdOdR782+9l2WhDsHNkddLuAU6eRoHKon4X3yk58cohxdGE7Ztf3vqZj537l4wHJ0Tjgo/9oOukKOJjtHS/bbq/yefuc731l+X0ym8eXojHDih/Lv2w/tH+7o2JhbvXf+cz3l6NiwOP/3XHJRzNGxYUn54245OqH1ORdP8HqkkDq8Oco3FKYjRwAAALTr3Pceu7hQ2WuIs8vicGdnAWjlHq2fj/eUru9lv66XfYbOfe+Lwym7FX9O+xxwyQzYZ5iBBaDJ3GcYpPtH/eXoPWHZta39upih9r3vLvt1lSw1un908afKv6tydjss3Duh+3XfDUvz33vp6pij9eG0uR1/Zj4HrZEjORrCHFX2ve/9TutEv2zeF5bfOujr0cpwcP71HrxuInN0W/jugurfRWsO2SBHk6H/HE1AL2i8Obr4kx1/XjK7HRrundD7RyvK3tDSVTFD68KpXdafpatnwnVdMrM4R32nbI899kiPdu3thmsRmFZ5oW7mHnXm6IHJwzKRC09tYG79apgfv6bdvhruLQMz9YXUOAtOvqb/wExUIfWBE8Lu8WMLTgyPNL2Aa3jDdce2l9Nv/vg9t3z58rRhvWzZsvDMM8+kH+8Myw9+8IP049vKsNQEJi8uvPjMo+nN1s6/+49+9KPpz08mOZqoHI228IxSSM2n9gJuBhYX5KjIkUKqApAcFbZu3RoOO+ywcOihh4aTTjppiHLUvZAaZ/5xsZQ6KDmqKaRu/HZYED8278jwoBxNaI6O+Ebr0fnvete7yu+JQczRHd8uNhE+Fla1FVK/Xeart+u6KSqkltd2Xwv39rShYD0auhzlGwrTkSMAAADade57911ITUtArQJQnPINsOlMTyE1zvzjLut9v04htbd9hobFhcncZxik+0d952jht8t976kr0n2/+973NBZS4yw46Wo5kqMhyVH1PuyycEDxtdTM/OMub5ijCVqP7inuG307PFjmaOoLqXF2P/1OOZpg/edoAnpBfefognBy1/Vn+gqpcRYs2zDk13XJzOIc9V1IjX/Ajh07ysBkYRk9MKsWFl9M+zshWi+A4ouf6S8A3Xtc/u6ItiJdl8BMYCF1wcnxIi4GplVcSBecfgMzQYXUR06fm30NA1FIfSUNwK9//evwi1/8Ipx66qnhE5/4RHrTP34shiWWABYuXBiuuOKK9GPPPvtseP3118Jbb26vD8wYBaC3v/3t6c9PJjmaqByNtvC0CqkLTrmmlaMrF+Z/X3H2DhsmJEeT/EJoEnL0d3/3d7MwRwqpCkDWo05vvvnmkOWoVUidd+zFeY5Oam0qjHdjbopy9OApH8q+zllbSJ28HHUr0g1kjq5ZFObmX19bjq5bnH88vss1ZmisHHUWUnvJUf+F1Na1nULqjM3RGIXUqcgRAAAAmfiarLrP0HsB6D1h7i7Z67i5R56Z7tdlhdQjs/2DXd7b2nfoqZDa635ddd+7VUhNn2aU7jNcHJYXJdX0vlGP+3UKqb3tMzQuLkzC/aMxigvTcf+o/2J33LfL9r2nqkh35b6tP3temp9ivy7J0H5TV0hdsOwHeY4qh2vN+1Z4QI7kaAhyVL0P28rU+8Lym1v73uv2q3z81ulfjx48ubhvVC2kTlaOWoXU3U+/Pc/R7eF7RUl1wbLwiBxNqP5zVNcLSibJUc+9oD5zdMWXit833nu9sJKj5Lpu36krpM5ftj7PUeVNEnOPCJuH+roumVmco8kvpFZuuM49ckVbcSG+CCqb3XsflQTlqPKm6uILzg4n5S+c4sw75ty2wKzdp/VzcZZcVATm+MpN1vyG666Hho1JYKoXctkki8wtnQtPa+YfvyoJSv3Jjvef8P72z5/7zbCpXHi+V7mIa39H0dLVxcJTV0i9P2xYkn9uRyG1/Hg+be+EWLdP28/NmbNPuDoG5v5js5NO5+waVtyfB2bTd/KP7Ra+uzmGpb2Q+qODit+jNY3eCdHwhmsMS2xpH3vsseGoo45Kj7OOofnUpz4V/umf/qkMy9q1a8Ptt98evvWtb4U1a9akv27bG6/XB2aMAlCcySZHE5WjZNFZ84XWr0/nC2FDuvB0KaTGhWfd3uXnp1lKcrThgOrvESfJzX1x0bkxrJiff+zAi1sLz/p988/bL/woLjxX7Zf/uJhF4ZoBKS7IUZ6jfot053+87d9nzpw9w5r84i3OyPwUF3DHVfKTZ2nXLyf5aX8hpJDauoDLLt76vYCTo4kw6YXUCc9RXSH1+rCuWJs6Cqmd69KBlxU5Oq2yLq1pe/fd/BOubMvRphM/UP5cOnP/OWyu5mjN59t/PlmHrkpz1H5Caue1XJwFy68rc/TQ8l3af37+MWFLmaOLWu+GXX9x9s/z9w0HF+vT0ktaOSrXo0XhR7MoR92KdHEmW/85qmzMLfxWmaM7j8pPTo0Zyh+50n6CSZz3hpN+XGwm9HJC6vlt72ydd+yXK9nq3JgrJl7bZTmqv7ZbXa5H9424lvvHcH+5Hq1oXcutyq/rkvxssh4NXo7GKKTGAQAAYGrE12TVfYZ+CkD7L/xY9jouPrY/vX+0NjyRP65/7t57jCikrunYm5szZ+dw8g1FcaFzn6G6X9d+kla2x5AXF0YUUn/cerPrnL8P637+7zX7De8Py2+r7nt37td9s6O8kO17r9+/9Tnpz82IR7v2uc/QsLgwmfsMg3T/qJ8czd2leLrRHmF1nqNuRbrVHRlafGH7vve8Y85LshQLQJX8pPdifxjuOfavs1/3pROS7LTeRF7d9+68f1SfneL+UfVe7OnZP8/9Rr5Xd0V7pk78Zg+F1I3hgZM+mP+auOd9X7hqxB73h8Lp91RzdG2rxJrMguVHVU55bOXo6gNbn5P+3Ho5ms05qluPYpY6+wzzjllZc/8oK6RuLPK077JsPbrp0DAv/5zqepTdh13eOuRkv+XhmZ+3fnzgZatbb6JIZv4Ja9oKqesXtX4uztJVxX3YMyuZyv85L9Jdtbj916S5uTtbj2rvG51ybZKl+hNS6+8jFetRfu8o/pr1N7X6DfHHVxU5qiukPt46sG7O/uEaOZpQfeeotheUTJqj3ntBxXrUTy8oK6PW9xnK+7DlxEJ30WeoZihfi3b7ergvva5bE5a3XdP9Y8c1XV0h9e6weVmx/nw+XDVGjrLrumva159Tjizv0R68rnVd19kJOnjdZF/XJTOLc9R3wjoDk4VllMCc97/zL+I94cRr24sLceEpb7KmC08rMHVTLDydYSkmC00rMOWkRbpux9x/Kqzrs0i3rmOhac3nwvqOIt3IyQJTW0i9+1vZcdzpx1qP7K9biOKki0+lWNeamVNIjU3sV155JZx11lnpyT9HH310eOSRR8Jpp52WHi9cDctBBx0UFi9eHK6//vrk171eOVa4IzDDWKSTo47JczSijBqnh0Lq062LuAXLr08u4K4PZ1QuylrzpXB1svBsOXXX/Mf7hh/mC88Pl2afs/tpt9aUUeMMTiFVjvIc9VOkG1Gii9Mq0o3cqMumc2OuHIXUUS/gsou3Sd5QkKNak1pInZQc1RRSbz4se5x4MtVH9tetSXGyUmqrkFo3B67KctS5qd2afwhXxRyt7iyjxum/kDryTRHFxGu6mKNWIbWc+ceGH566W/7j/M0RyfyoWJ9Ov31W5Wi4CqmXtx7bv8v+4c40R2eGZcUpJvFxK2khtfWx9ilyNHYhtfrO1s7JbhZ1e5Te3yfXdqMXUrtlbM6cvcL6jkJqOQqpg5kjhVQAAICBEV+TVfcZ+iqkriz27t4Tll3Xfv9o8VFLOgqp7cWF1uwZ1o5RSB05nwxXpvvedYXUkytPN4onpF7eVvZpzWfDupriQucszQup3fbt2g40meh9hhlYSJ3MfYahKgBVi3RHfqu1J7f3t9Mc1RXpRr6RPJt4H/buY3bOfrzrQeHuWEi96O9an/Ol45I8tU6kW3LxNeE3F38y//m/Dqfc1O3+0aVdsvPpsK6jkFpOXkjtLNFVp3sh9azKk13jCalXt5V9WvPFsCHNUHsZqHOKQmq3vfBYSpWj2ZejumJ3MUsuzIp0rTwdHO6OhdSLPtH6vC8dnxZSryzzlN+HvfhT+ee8Lyy/eeR92HJvO12XKgXVmjnw8uw+bLccLV3dXkgtJy2kVk4abpusz9BPIbX7faSsz1AtpI6c4h5SXSF1VdkXms4TUuUoz1FtLyiZvntB2X2kMXtBZZ7i+hO7DHV9hspp922TvdGoWkgtJy+kdu8EjVZIreSphxxVe0F1UxRSu64/aSl1sq7rkpnFOeo7YZ2BycLSPTDlzdY5HwurHuyjSLfPMflxwueEk4oC3D7HhqduWJq/myG+Sy87UvjuY/NFKL2AqxTpRi0AtR7vesAl2cJT/6jxjiLd7d8oSw8HrsoLQLd/s1WEOHFdEppKkW7/M7MbrmVh4YPhtLvaC6kjZt6/ZKejxtn47bykuks4fWP2Qqh858MB57f+ef7R4aHOG67jKKTGwAzWI/tfTr75Xw0vvfRSOPvss9PmdgzNgw8+GC644IIRYbnuuuvysBTt7ZrADGGRTo7qc1S+M6/2URH9FFI7iwvVk+jaL+AOXh+zVPw4y9HDp+WFoAXHh4cn44WQHNXqN0f9FOlaPz4w3Fk94j4WgNryE18MXdV6MZTmp7Ixt+sh4Z4uj4qo31BQSB3UAtBMy9HWrVvTr/v8888PP/zhD4coR61C6ohJT0fNc3TLV/M1Jb5DL8vRvcfnJznud2qSo0ohddHpeY4q7xLff0V4/o7WupRtKCQ5uvOfW28eWvaD1jv05h0RHhiRo/ZCaszRg3WP7L/3qPL3zE7tTjJ079Hlx3ZffkPbuhSLqFvKHLXWp0Ouql7XJevTA7MrR2evODrsueeeYeeddw477bRT9neVz2QZf44ur7zLNX/kyrXVx/WvzQupcarvFD+mvMbL3t06RiH1xoPLd4EX7xRvbW4Xm3Od61HrJtEBl2TrUe0j+2/7euta7vJ8Papc32UnDVcKqXP/KWyyHg1ujvINhenIEQAAAO069737K6SuCqvzx7zGN7y2TtLaI6y+vrOQ2rFfN+YbXyv7dXkBqL1EF/cZur3xNZsDLq3b9+7h/tGqz5W/x9JYXrjjn/LP+WA49c5sn6Hcp1t8lkLqgOwzDFUBqK1It6KyVxfL3TVFuusPKPOUPs0oydFdR+ef03Yf9u/C2ured5xdDw73PFqcMpwVgMrTHdNyd6/3j6on0nUUUud+I9wX9+viyY63/2MlU/n9o2qmOgqpdXPQmrocndva/74yyVDZaSjKP8m0PbGyuu8dn1KZ5ag8FCg+pVKOZleO0iwdODJLRV5iluIbJG44qJWnRzeEe4pOQ5z0/tEF+X2jYi26tpKpT4V1NTnqWkhN7x/Fe7CrW2+OiPeQyhx9IJx6R5aj8ul6+38vyVC1QBefstdt3/vsVm7WZutR/SP7OwqpbfeR8vXovmPy3s+csPupNyZrUaWQujQ+9TXJUPnE16Ib1Cqk1s0hG+RoovWbo/peUDK99oIu2DP/9TuHk25YP2YvqDyte84nwpU99xlOad1HurR9PUqLqEWf4fbqfaS8z7Bqr/zPG1lIrZv6Nxp15Oiefynzka5HMUdXLix/j3RNKjO0Szjj3uy67qHlxfpz0SRe1yUzi3PUd8I6A5OFZZSFZ5wnOy6+oPVCqG3RubAIUM2kF3CtIl36jqJKYFoLT/v0VaS7/LPZ55RH3GcFoPKdePt/NwlNq0gXL+KyG66VY7rXxMB0KaSmZdTKC6FKUEbM/KPCQyNOSC1O0krCMkMKqUVoXnzxxXDOOeeEz3zmM+GYY44Jjz76aG1Ytm97I7z11vbugRnGIp0c1eeo5nH98VS68RRSRxxxn09WSP1p6/ER8QKuuHibf1x4OC46dY/rH7DighzF6aFIlx5vX3ey455hTcxS3JgbMz+tjbmyAKSQOuoF3LAUgGZSjjZt2pT+mXHi8fzDk6MuhdRYRq3m6JK/H/k5xaQvhqqP7G/l6P4Tig2EFa1NuY4i3VXFWrX4zJoTUrNHF2U56rGQWlzLxeu6So42FOtO+kKo+kaJ9hwVJ3bPWXppaz0a4DdITGaOjjjiiOzfv2Mmy/hzdHky1c2575WPz0uv5ZJru6KQWuaqY3oqpJbvbP1EuOKnRY5aGSoKqRu/0+3aLluPaguplxXXcvFdrvl69MvbWu8SX7SirZDaenSR9Wggc1TZUJjqHAEAANAu7jOMtwCU7tetrDy2v9hviPt1NYXUskDXMWMVUlv7da3HjPfyJJZi37vca+iYtvtH6RNYin3vK8uywtJYXqiU6UZM/ojkSdlnmKGF1MncZ4jfz3X/f5psTXJUPCL5ziOLJxwtCas7i3S1TwfLZ9el4e5HivzEAtB5Wfl0178LS9J9uU+EK4r7sLseEjbGfe+eTki9oXt2Ogqp5RvIYyG1LP/EJ1QW94/WtTI1aiH1C+GqSo4eKIpzHZMWgMpOw8KwocxR6wmVaYlu3T7lrxkxbQcxyNGsyFEvWWo7sTvJ040r8zx9opWnYi1KD9nK78OO84TULEvZfdj7TsgPOYmF1EqJbsSk95AqHYbV7fve5QFbHdNXIbW8j3R0eKiyHpX9hXgfacQBWzFDnYeadCuk7h+ukaNJ0XeOxnlCaqsX1H6wyZi9oJ5OSL0+3Pud+vWns5CaZSjPUXlN99mwPq5H6TVd63Cg9JquayE1f1JlLzm64ov5j4sTu+NcW3aF0kJq7ZPH85l/TNgygwqpg5SjvhPWGZgsLKMEpjz9p7XwtIp0xTvzkp+Lj6bsUqQrH+m6z7GVdxBl7yiKDe6n4tHcj8bHjLc/arytSFc5DSh7TMT4TnYsF54JLKRmj+xvlRaqJ6SWxYV48db1hdAF5UKSTXxXURKWGVRI3bHtlTQ0L7zwQhqavfbaK3zlK19pC8trr70Wtr3xenjrze2jB2YYi3Ry1CVH8UVQ5ZER6XwonH53vIDrXkhtlU/jOyAqF3Hxc5e3n0RXFFJbedo3HJyXfw5eXy0uXNY6zj6dueF7D07QCyE5qtV3jmpeCBU5Ki/eiiJd+kKolaVs3pu+k6gsd5ePLooZquZIIXUmF4BmSo7GX6Sb7hx1PrJ/WeVdd60TUlsbc5/OHxfRmaP6QmpZptt/RevdraMVUtMc1a1DvRdSW6fdj6+Q2rq22y8ckq9Ph1w1O3N0xFAVUquP7V8clrWdXpIXUs/PbxqlHz+77xNSy3eKp+8S73KjqNyYK67tejsh9b7ixGGF1JmRI4VUAACAgRH3GcZbAMreQP7t/J7Re8Lc/HHJi1deMbKQekGrBDTvmHP7OiG1l0Jq65H9Hfvel346/fn0c45fFXq7f7Si/Jylqyqn0s35h7B+KvcZZnAhdbL2GeL3c/b/q/aZbE1y1Nr3PrP1yPFi8iJd603kH88OYSgmPW24/RHJSy7KsjTv2JWtx/Qfe0h2Yt2XTsj2vW/6cvmko2zfu+b+UeUQhvnHXZ7kqfsJqdVCankIw9xvhvvL+0ffbbsHW//I/o4crW0dErTg5B8l+Wk/IbW69/1QmaPzW/va6+JpdMX92coBW3I0a3MU7yG1spQfaNKRo/SE1J9cVclTthbNO/b8kXnaN8lTcR/2pkPLTI1cj1rZqc9Sdh+2fNT4otNbOWordlfvw3YppK5pHWqy4KTYCRrfCaltT02urEdNCqmtR/bL0WTqO0e1vaBkeu4Ftd9HGrMXdGOen2TmHXthkp+aPkP1PtJxSZ5+1v2E1Gohte2ariyktl/T1T+yv+O6bowcjcxQnJXl58RCamv92TtsmNLrumRmcY76TlhnYLKw9LbwpMdxx0dSpsWF6uITX/zE4kKltFA+arwVmPiCqNrgnnfMeWVg7jn2E+HkG7sX6cpTHfddll283XxYeTzwRD5qPAvNeAqpyQuhu79VHiW84ORrshdClRNSF5xybX7xFgOzd1aka7vhemFlYYphaZUXdj/1pjQwW07NHy0+hIXU7XlonnvuuXDuueeGT3/602VYXn+9CMu2sQMz5EU6Oco/VhZSiw2Fzgu4LoXU6qnDsfzzdOUi7oALsuJC5Yj7spCazA+Li7p09g0/rC0uXN7K1IYJuoCTo1r95+jysCov/MRj7lcXRbrrikdG5BtzZZEuTs0jktvyk+QpL9LdfczfJflRSM3Wo5ldAJoJOWpSpJveHHUWUpMcVdai7IVQkqMRm3NZju47/rNh+W0xR3WP7G+9CJp/4pVjPrJ/6erOHLWKqQet7b2QOtYj+w9eF3M0SiE1mfKU1HT2Cz+apTk6YsgKqb+6Zv88N8UNouzRRUUhtf3U4SRHPz6w3BjopZDaOiG1kqOOR/a3ru1Oqrm2615IHeuR/fHxXwqpQ5QjhVQAAICBEfcZxlsAKp5oVDy2P5s9wur4xteOQuqd5ePFj8nKP+UjXbvsM0xQIbXcZ9hvebbv3bbHcEvlNK3K/aPOR/ZXfhzLC8U+w+Zlnw+n3TmJ+wwzvJA6GfsM8fu5+P9VdSZbkxy1HcRQnDJcTFGkq5zqOO/oc/J7sfFplXtmj0h+5AdlCWjertn/Vvfr5u2a7cktuXjkvnf682l+ivtHJ4cDdjssrKtmJ947uvWrreyMUkitnuzYyyP7uxVSy9NRl5yT5ajzEcmdj0eOOaocCNR5Quru6QFBWY62nPqlsOJ+OZp1OeqWpWRNilk6+YZWIXVknq6uyVP1Pmz1xO54SmqxHl0allc/fmt7ma71yP7WPaT5J6xty1F6/yi/D7vpxM+FU++M+971hdTNxamOi8/K1qNKH6ivE1LHeGR/1meYOYVUOSq+vqIXlMwYvaBeTkit7wVdkJ06XHxOWkotcrQsLNnt0LCuOB1135OzHN3yldZ9pJ5OSI3rUt5nGOWR/d0KqWPmqDwhNV+PYo4616S2A+p+XF7XbVm+T1hx32Re1yUzi3PUd8I6A5OFZbTAxBuurce71k2ruNB5ilZ19gxr0ndCnNsWiNbEI7p7KNLVTFGke+bS9se71r0zL168le+G6Jy53wyb0sVnnIXUZDYsyX+veJxw+kLomvLz2ic72bHV5K5OfkLqczeGFfkx+COneyH11asWtX3u7qffORA3XHdsfyW8uf218MYbr4Vnn302rFmzJlx//fVpWLZvK8LSQ2CGtEgnRyNzVH8098gTUutn77Ah31Coz1E21UJq+aj+OPHR/Xlx4eHTiqJ3dQbzhNRZn6PKu4pGTHwBNOojkrOTHX+d5OekrvlRSJ0NBaCZkKNGRbppzVFNITXJ0Lp9i1//qbAuzdFllU2F6rx/ZCF1xLTe4Vqe3N05c/85bE5ytHlZt3WovpDa9qaIZBYsvy7N0YYDWh9rm/QxETFHoxdSX16/X+vXLL1sVubo7BVHhz333DPsvPPOYaeddmr9fSQzWRoXUh9YEU6svjs8PkrvoZpCas30VEit5Khu2gqpNVMUUqsnl8SZf/zqdD0qH2vUOXP/MdyfrkcKqUOTo3xDYTpyBAAAQLu4zzDe4kJRSG0r/+x9ZPYklm6F1JqZkkJqzWT3j9aE5bWPbs2ms7zQPh9USB2gfYZhLQC1FemqTwaLUxbp/nXkqY/p7FwWUp+qlLzTk+niiXQ3Hlz5WHzUeOX+UeVExxFTLaTWzKiF1MpBDHXTdyG1ZrICULdOQzZZie7H5SP82yc+7VWOZl+O4pzdNUvVQupTNxzUnp2Okx3nzPlkuHLEfdjKE/ZqJivSdRRSR0zxqPHWY8bb5wO9FVJrpiikVst0ceIhdSMKqcl61P0+0rFhS7oeTWQh9c7wveLzVtyd5ejqJdmfN2dJuDbN0b3hzN2zz5lzyDo56qL/HI2vF9S1kDpmLyi5prupmqWOqRZSa2bUQmql2F03ndd0YxZSa6bzoLq6yd4kcX339WeGFlIHIUd9J6wzMFlYxgpMnFWVE7WKie/Kyx9JOSIwraAUF2/Vo7mLY7nL+dJxSVi6F+l+89j3///s3XmwnHWdL/5TlmVZt/xDyz+mvPdW3bHuWHem5g8GHEVJfiQRcZw7I1fcZmRmNKKEbIDgwnUGGAnEAAkECMtASFgMS0IgNyzKrqwTICyBhEVECVsMm2whZOP7e56nn+5+uk+fnO7z7XO6+/TrVfWRnC2b/c63+/t9n+cpfGdR+l0Qg281nr4QKh6sDlWkS6dyO8ryHHpWXv5JZ+SF1NdfrF7evnhJ4WpRNZ+ZF2YLz+AiXV1gKrcZT+d74RdN3LI/DcwNh5W/ptsKqVuSH28JW9/Zkl1COA3LtiRAu3a+23xgeraQKkfDF1JLJaDShsLQC0+5AFTdUCguQGmGGtyyP114Cnk6fHVp4UkXncGF1EnhnEd2t/DIUTuMPEcNnsR95/hKAahxkW7PsOCW0nfllWdQfg6eN8ytxss5Kr8QUkgtP4ErPXkb5Q0FOaoRX6TrVI4aF1I3/7a6Hg3s+4PwQIP1KJvsu1vTHBVv2X9m4QXR3uH0u2tzNKiUemh6q/5SjgYXUtN1qJyjBoXUuud0xfVo0GbCrIsLORqmkPrwvMr6dER2u/7+y9GxR0+rPKY/9rGP1fxdjpb4HC0P9xyf37Y/mfLt+qs5qvuO11vqrjQ8bCE1fU5XW0qdsWzog6LSc7vBt+xP16La53alQmq6Hg36BqP0Vv2V9UghtWdylG8odCJHAAAA1Epfk420AFQppFZu25++L99nqL9l/2PnhwWVfYf0/GiMbtn/uysK30iefvN4o/Oj+v26+tu7lvYZBu3bTU/37RRSu2WfobcKQEMX6Yq3SK4t0q0KKwbtb8/N9r1L57CFEtDEw8N92b73hYX3HRHub3B+dHXl4gvVKd0ZrP7KjvUFoKEKqeleXW0pdfbyEdyy/8XrC+eu+4Qz76+9ZX8pR9VbJJcurlV7y/5yjiq3GS/PrGVy1Mc5ev6xVeHKBlkq9xlKd9hbUpOn+7O978KVHSd+P6wd4hy2ekGT8nwjrKo5hy1mqZqjbI26u5ijuxt0G87J970bF1JfK3SCSudHg2/Zn65FNedGQxRS0/Vo8DnSJYX1aLwVUvs1R9Xzo9Z6QUMVUks5GroXlD6nKz2vu/q7dZ+TTOmK3ctq1587mrtlf6nPUHxOl3x8+Qhu2d9UjpYU1p/kc9bW3rK//LyucYZG83ldMn28HrWcsPrAlMLSXGCefbT8Qqi88BQPXIcKTG1xoXbhSad0SeFSWGoD010FoDQsDlzbEZhSaN4J7yZhSdvcu3akYWkhMD1eSJWjzuVow+kTS4+RKT8LG+QoeyyP3xzVvhAaXzkqPoGzHvVrjtpRpOvtHBULqb2fow2n598Ysd+88Fif5qhXC6m9naO69aiwMWc96rEcKaQCAAB0jfQ12UiLC+N1n6FaAErvbNTBfYY+KaS2a5+hVwtAI85RIUv260o5qhZ/vhOukyM56toc1ZfpuitH1iM5ysZ61FKOqiXv9K7JncxRMn2co5YTVh+YUljatfAo0jlwbS4w6aWFd+5IZ2vrgVFIlaMWc1T/nXqlq6PKUWr85miIJ3DjIkdxT+CsR+MjR4p046OQ+ovZtY+X0ne49meOFFK7YD1SSO3dHCmkAgAAdI30NdmYF4C6ap9h6Fv2TzllVWf3GfqoANSOfYbeLwC1mKNClvpzv27oW/bvt/BmOZKjLs6RQqocjZ725CgZ69FuctTKnZPHOkfJ9HGOWk5YfWBKYWnXwqNI58B1DAKjkCpHLeaoWEitXuJejlLjN0dDPIEbFzlq5Qmc9Wi85kiRbvwVUktl1P7NkUJqF6xHCqm9myOFVAAAgK6RviYb8wJQV+0zNCqk7h1Ov6cL9hkUgFraZ+j9AlCLOSpkqT/36xoVUtPb9suRHHV7jhRS5Wj0tCdHyViPdpOjRoXUCeHMtd2Qo2T6OEctJ6w+MKWw9NMLoZEWgNKwjPLC48C1ucAo0smRHMlRX+eolSdwcjRec6RIJ0fjLUcKqV2QI4XU3s2RQioAAEDXSF+TjXkByD5Dc/sMCkAt7TP0fgGoxRwVsiRHciRHciRHcpRqT46SkaMezVEyfZyjlhNWH5hSWPrwhZAiXXOBUQBqSI7kSI7iydFIczQGT+DkqOtzpEgnR+MtRwqpXZAjhdTezZFCKgAAQNdIX5ONeQHIPkNz+wwKQC3tM/R+AajFHBWyJEdyJEdyJEdylGpPjpKRox7NUTJ9nKOWE1YfmFJY+vCFkCJdc4FRAGpIjuRIjuLJ0UhzNAZP4OSo63P01ltvZWW6Bx98MDz55JNyJEc9n6NOFOnkqC5HCqm9myOFVAAAgK6RviYb8wKQfYbm9hkUgFraZ+j9AlCLOSpkSY7kSI7kSI7kKNWeHCUjRz2ao2T6OEctJ6w+MKWw9OELIUW65gKjANSQHMmRHMWTo5HmaAyewMlRz+Ro586dciRH4yJHnSzSyVEXbyjIUXM5UkgFAADoGulrsuI+g0JqF+0zKAC1tM/Q+wWgFnNUyJIcyZEcyZEcyVGqPTlKRo56NEfJ9HGOWk5YfWBKYenDF0KKdM0FRgGoITmSIzmKJ0cjzdEYPIGTo57JkSKdHI2XHCmkdkGOFFJ7N0cKqQAAAF0jfU1W3GdQSO2ifQYFoJb2GXq/ANRijgpZkiM5kiM5kiM5SrUnR8nIUY/mKJk+zlHLCasPTCksffhCSJGuucAoADUkR3IkR/HkaKQ5GoMncHLU9Tlyq3E5Gm856kSRTo7qcqSQ2rs5UkgFAADoGulrsjEvANlnaG6fQQGopX2G3i8AtZijQpbkSI7kSI7kSI5S7clRMnLUozlKpo9z1HLC6gNTCksfvhBSpGsuMApADcmRHMlRPDkaaY7G4AmcHHV9jtISXfprpnPkkUfKkRz1fI4efeCWcMQRR4SPfOQj4QMf+IAc2VCQo+VFP6IAAG33SURBVBFsKHQiRwAAANRK9xnGvABkn6G5fQYFoJb2GXq/ANRijgpZkiM5kiM5kiM5SrUnR8nIUY/mKJk+zlHLCasPTCksffhCSJGuucAoADUkR3IkR/HkaKQ5GoMncHLU9TnqviLd3DAj+fPOuESO5GjkOTr22GPlKPnzdixHCqm9m6PChsJY5wgAAIBa6T7DmBeAGu4zdHjfWwGouX0GBaCGOpKjQpbkSI7kSI7kSI5S7clRMnLUozlKpo9z1HLC6gNTCsvuArMonLLPHuGUG6qBWXP8Hslvao8w/6YefiGkSNdcYBSAGpIjOZKjeHI00hyNwRM4Oer6HEUV6W6YFiYVfo+Tjj83yU/phdCK7wyE6Uuby9GVBw+EGRfH5GhZOG3fT4aFt1dz9MC8TyW/p0+FhXfIUT/m6NheKqSOxxwppPZujhRSAQAAuka6z9BacWGc7nsrADW3z6AA1FBHclTIkhzJkRzJkRzJUUqO+j1HyfRxjlpOWH1gSmFpITBLvxQGJkwPa1ppcOdh6arAKNI1FxgFoIbkSI7kKJ4cjTRHY/AETo66PkcjLtJlJbq/D8sL35m34vhqjjpapFv29TCw71HhATnqyxz11C37x2uOFFJ7N0f5hoJb9gMAAHReus8QVVwYL/veCkDN7TMoADXUkRwVsiRHciRHciRHcpSSo37PUTJ9nKOWE1YfmFJYmgxMGpaBL4UVDS7NnR68Vn7DE2aFNXlg7j1hz+r7Bw4MK2sCsyScOrH6dZPnXpgH5qK69/+8/YFRpGsuMApADcmRHMlRPDkaaY7G4AmcHHV9jqKKdPtMC/cMuuXKuWH+hOLv/YCwInkRtGZObW6uzF4EXRAWFHKR5Sm71fhXkv+WXwhdWJedi3ZfpEtLdANfD6sa5GjVIYVfa98fhwfzHD148qer7x84KKyuydHV4fRJ1a+bMn9VnqPV4YzC+/ebf50cdUmOjj16WuUx/bGPfazy/1E6o0WO5Gjc5CjfUOhEjgAAAKiVviYbcXFhPO17KwA1t8+gANSQHMmRHMWTIzmSo3jtydHgW/bLUa/kKJk+zlHLCasPTCksTQRmyaFhUjksQyw80y+8Ojx/88wwqRKYxWHBwbPCvXl7O70C0OQTL8gDUwrL5BOX5geu88KpWWBKYakeuJ4cTuuKAlAallEOjAPX5gLTy0U6OZIjOaqQo5HmaAyewMlR1+do5LcaT3OU/N6mHldXpCvlKMtP5cqO/xHmf2dmWJN/Z16WmxMWZxkq56h6ZcdikW5pnp3yC6GTkkztpki37KgwJS3RDZGjtEg387IkR3f9KEypFOlWhIXTkh/nOVo9bSBMOfmqPEelEt2UU1blOTonnJ4V6VZn799v/uo8R+eGMxTpuiZHPVVIlSM56rYcKaQCAAB0jfQ12YiKC+Nt31sBqLl9BgWghjqSo+ybyOVIjuRIjuRIjqrak6Nk5KhHc5RMH+eo5YTVB6YUluECU/pNTDr+rFJYBi08pasBDQ5MEpQ8LNlcfGAYOHhuKTC3HhYmTzws3Fd/SeHbjkjef0S4f7QvKaxI11xgFIAakiM5kqN4cjTSHI3BEzg56vocjbxId0U2y6fmv8epP63JUW2RLslR8VYRF6W5ObGSoyGLdLcdnmTn8HB/lqW0SJdOoxylRbrS72PKz5YNkaMrwsLkcwYX6epytPygMDDtrFKO7v5JmDLpJ+Hh+hyt+bfk/f8W1slRV+aotwqp4zRHV8hRz+ZIIRUAAKBrpK/JWi8ulF67jat9bwWg5vYZFIAa6kiOylmSIzmSIzmSIznKtSdHychRj+YomT7OUcsJqw9MKSzDBWaPcMoNx4VDk9/IoUsbLTxzwvSBPcP8mxsEJj10Lf5hyoG55Cv5j+sCc8lXw8B3TxriwLWTBaA0LKMcGAeuzQWmZ4t0ciRHclQkRyPN0Rg8gZOjrs9RbJHu2fxW4yvSQt2E6WFNnqNBRboLv1z7Z2qmSJdm6rvz8iwNV6RLbzW+IMxMfu6ZyxrlaGHysU+FhXcmOaov0l3xzdrfW7lIt/yfwsChZw3O0Yp/Tt5/rhx1aY56sZAqR3LUbRsKCqkAAACdl74ma724MA73vRWAmttnUABqSI7kSI7iyZEcyVG89uQoGTnq0Rwl08c5ajlh9YEphaWZwCwPz96YXlY4DU3dwnPTjCQkM8Ka9MC1GJg0LMmPy7eKqGlwp4Fp1OBOA9OVV6RLwzLKgXHg2lxgerpIJ0dyJEdlcjTSHI3BEzg56voctatI99yj54T5E/YI828q5aimSJeW6CZUbzWe5ajZIl3TV3ZMi3RJhm5Pbzc+EGZeWpejO38Ypuz7w/BAmqNike7yb4aBScmPyzkqXiE1LdI1urJjWqRzZceuzVEvF1LHTY6KV0iVo97KkUIqAABA10hfk42suDDO9r0VgJrbZ1AAaqgjOUqLQHIkR3IkR3IkRwXtyVFdIVWOeihHyfRxjlpOWH1gSmFpMjDpgeuN05PQVA9c00kPXSfNObd0BaBCYO49Yc9BB66VwGQHrgNhxiXlwMwLp869MPnvSaX3LysH5uRw2tyftz8winTNBUYBqCE5kiM5iidHI83RGDyBk6Ouz9GIi3RL/j4cuqRQpMtydEBYkb8QqmboqrBmTpKb78xJflwq0pVyU5ujySdeUMhRXqRLMlTKVPpiKC3RnZRk6qIGL4QKRbo0R1mZ7lNh4R3VHK06ZCBMmXdFKUeFIt2DJ306DEw7o5Kj1dOS31u5SLfxrDAr+fVnLy/n6Jxw+vxVSYbODbPT968o5+jccMb86+SoS3LUU4VUOZKjbsuRQioAAEDXSF+Tjbi4MJ72vRWAmttnUABqqCM5ygtAciRHciRHciRHZXLU7zlKpo9z1HLC6gNTCksLgUkvJ7z0gOw3dejSc8P8CclvMGtv57ekLATmhccWhwXpx/M/xPSDCw3uJ66thKb88eKBa837l6VhaXNgFOmaC4wCUENyJEdyFE+ORpqjMXgCJ0ddn6OnnnoqHHXUUVmJ7uyzz24xR8XfY/Ii6Mb0RVD+Qij9rrzs/QeEFRv+o5Sr/HNLualucL9w6+wwOfvYgWFllqFyka70Qqg2O+UXQumUc1RXpEtzdOnXs8+feenlYeG+yddmV3XMc1Rzq/EVYeGk6s8/a1rhyo5Zjs7KSnPlj89eUc5RqUxXfb8cdUuOOlGkkyM5Gjc5UkgFAADoGulrsqjiwnjZ91YAam6fQQGoITmSIzmKJ0dyJEfx2pOjL2W/VznqxRwl08c5ajlh9YEphWV3gUmv/lO4AlAamEcLB67JPL8+DUsemGzyW1Kmze3y5YTzefHxNCzlwKRTPnBNw1IOTDqNDlw7WQBKwzLKgXHg2lxgerJIJ0dyJEf15GikORqDJ3By1DM52rlzpxzJ0bjIUSeLdHLUxRsKctRcjhRSAQAAukb6mqy4zzB8ccE+w5jtMygAtbTP0FsFoDbkqJAlOZIjOZIjOZKjVHtylIwc9WiOkunjHLWcsPrAlMLShy+EFOmaC4wCUENyJEdyFE+ORpqjMXgCJ0c9kyNFOjkaLzlSSO2CHCmk9m6OFFIBAAC6RvqarLjPoJDaRfsMCkAt7TP0fgGoxRwVsiRHciRHciRHcpRqT46SkaMezVEyfZyjlhNWH5hSWPrwhZAiXXOBUQBqSI7kSI7iydFIczQGT+DkqGdypEgnR+MlRwqpXZAjhdTezZFCKgAAQNdIX5MV9xkUUrton0EBqKV9ht4vALWYo0KW5EiO5EiO5EiOUu3JUTJy1KM5SqaPc9RywuoDUwpLH74QUqRrLjAKQA3JkRzJUTw5GmmOxuAJnBx1fY6eeuqpcNRRR4UjjzwynH322XIkRz2fo1+uvih8+9vfDh//+MfDhz70ITmyoSBHI9hQ6ESOAAAAqFW/762Q2kX7DApALe0z9H4BqMUcFbIkR3IkR3IkR3KUak+OkpGjHs1RMn2co5YTVh+YUlj68IWQIl1zgVEAakiO5EiO4snRSHM0Bk/g5Kjrc/Twww9nv2Y6aZlOjuRoPOTo2GOPlaNO5kghtXdzVNhQGOscAQAAUCvdZxjzApB9hub2GRSAWt5nSB/Pndhn6EiOClmSIzmSIzmSIzlKtSdHychRj+YomT7OUcsJqw9MKSx9+EJIka65wCgANSRHciRH8eRopDkagydwctT1OVKkk6PxmKNjFVI7myOF1N7NkUIqAABA10j3Gca8AGSfobl9BgWglvcZ0sdzJ/YZOpKjQpbkSI7kSI7kSI5S7clRMnLUozlKpo9z1HLC6gNTCksfvhBSpGsuMApADcmRHMlRPDkaaY7G4AmcHHV9jhTp5Gg85uhYhdTO5kghtXdzpJAKAADQNdJ9hjEvANlnaG6fQQGo5X2G9PHciX2GjuSokCU5kiM5kiM5kqNUe3KUjBz1aI6S6eMctZyw+sCUwtKHL4QU6ZoLjAJQQ3IkR3IUT45GmqMxeAInR12fI0U6ORpvOTr/rBPCgQceGPbaa6/w0Y9+VI5sKMjRCDYUOpEjAAAAaqX7DGNeALLP0Nw+gwJQS/sMvV8AajFHhSzJkRzJkRzJkRyl2pOjZOSoR3OUTB/nqOWE1QemFJY+fCGkSNdcYBSAGpIjOZKjeHI00hyNwRM4Oer6HCnSydF4y9GxR0+rPKY/9rGPyZENBTkawYZCJ3IEAABArfQ12ZgXgOwzNLfPoADU0j5D7xeAWsxRIUtyJEdyJEdyJEep9uQoGTnq0Rwl08c5ajlh9YEphaUPXwgp0jUXGAWghuRIjuQonhyNNEdj8AROjro+R4p0cjTecqSQ2gU5Ukjt3RwppAIAAHSN9DVZTHHhmXVXhDU3nRvOP/2H4a5fnhWeeWSFfYZ27TMoALW0z9DLBaAR5aiQJTmSIzmSIzmSo1R7cnSOHPVsjpLp4xy1nLD6wJTC0nxgFOkcuHY8MIp0ciRHctTXORqDJ3By1PU5UqSTo/GWI4XULsiRQmrv5kghFQAAoGukr8liigu/e/CycPUlJ4S//5vPhmN++K1wx/WLwnOPrrTP0I59BgWglvYZerkANKIcFbIkR3IkR3IkR3KUkqN+z1EyfZyjlhNWH5hSWJoPjCKdA9eOB0aRTo7kSI76Okdj8AROjro+R4p0cjTecqSQ2gU5Ukjt3RwppAIAAHSN9DVZbHHhiiX/Hj75V38Rvnbg34ZF838U7v7l2WHjI1fuZp9hbpheeA04MHBgWNmGfYZV3xsIMy+N32dYPW0gzFpe3mdYFU6fVPy9DoT95q8em30GBaCW9hl6vQDUco4eO1GO5EiO5EiO5KhGe3J0nBz1bI6S6eMctZyw+sCUwtJ8YBTpHLh2PDCKdHIkR3LU1zkagydwctT1OVKkk6PxliOF1C7IkUJq7+ZIIRUAAKBrpK/JWiku3HHd6eFXq08rzTWnhZuvXhAWzp0dJuzz1+GEE+aEBScfH8446Qfh3lvOa7zPcNGByeu+vcKCWwv7DLfODjNOXBK9zzB6xYW9w+lryvsMq8MZk8rlhVHeZ1AAammfoZcKQO3J0Z5yJEdyJEdyJEc12pOjWXLUszlKpo9z1HLC6gNTCsvQgVFcUKTrusAo0smRHMmRIp0c9XmOFOnkaLzlSCG1C3KkkNq7OVJIBQAA6Brpa7JWigtHH/6PYeZ3/08yX85m+ncOCF/+u/8v7PPZT4fVq1eH66+/Nvz0mB+Ecxb8oME+Q3oFrWppofE+w7wwo/D6cOC7JxX2GU5OPva1cPWvjwyTyx//3vyw+bfLwsJ9C18z8I2wKttnWBhmVt736bDwrvI+w+lh1sA3w6q7fxymlD8+7czwysar6q6a9U9h9aDiwr3htRX/HAamn5vtM6yb/9nC538rXFuzz7A4HFb52LfDdVd9OwzMWFLYZ1gaDq98fEJY9EDdPoMCUEv7DL1UAGpLjm6p7tnJUfnjciRHclQaOZIjOerPHCXTxzlqOWEHHXRQ2LRpUyUwpbAMHRjFhfKBqyJd1wQmLy688fJvO7bwyJEcyVE8OVKkk6N4u3btUuyWo3GRo/971HezHO21117hIx/5iBwppMrRCDYUOpkjAAAAStLXZa0UF07+6bRw3I++VZljfvAvYeo3/zZM3GfvsHz58rBixeXh+GOODBefe8zgfYb0KloTZoV7h9xnWBJOnTgQZlxS3me4MHt78tyL8n2GtLiQvG6ceGRYm+0zzM/enrmstM9QeyWty7Myw8zL8n2GO38Upuz7o/BgtseQFheSn2fSj8OD2T7Dmdnbs5aX9hl2fyWtewvFhWvCGdOPDevyfYZrpw+E/RZcn+8zXB/OnDwQDltZ3mdYUioxVIoLN2YfP3xVvs/wwJyw35Q5YX1xn0EBqKV9hl4qALUlR4U9OzmSIzmSIzmSo1R7cvRFOerZHCXTxzlqOWGzZ88O69evrwSmFJahA6O4UD5wVaTrmsDkxYUXn308fOELX2gpMO0iR3IkR/HkaKQ5UgCSo6q0SLd9+3Y5kqOez9GMQw7KXgilM9ZFOjnKc6SQ2rs5yjcUOpkjAAAAStLXZK0UFx6584Lw0O3nJ7M4PHTH4rD21vPC4tN/FD67957hiMNnh3kn/N9w4Vn/Ftbfc/HgfYa0uHDwiUPvM1zylTAw8fBwX3Gf4bYjwuSJR4T7s32GtLjwyXDar6v7DFd/byBM+dmybJ+hprhw6TfCwL4/DA9U9hmWh4X7plfTSvcY0uJC8uO7q/sMaVlhyslXZfsMuy8unBtmJ69bZ69osM9w5bfCwPTzS/sMK5MfTz4uPFrcZyheSevqqcnHjw/rK/sMN4dFU8pX08r3GRSAWtpn6KUCUFtyVNizkyM5kiM5kiM5SslRv+comT7OUcsJO/bYY8Ptt9+eHZj29YGrIl1zgeni4sITjz0S9t9//5YC0y5yJEdyFE+ORpqjBk/g5Khvc5SWuhctWhSeuPciOZKjns7Rgf/n77IXQul88IMflKNO5EghtXdzlG8odDJHAAAAlKSvyVopLtTvM/zuwcvC5RccF/56z78I//DVL4aLzz02PHLnhcnHVg7eZ2imkHrwvLp9hpPCjIGvhquyfYa0uPC1cHVhn2Htzz45dHGh8DqzPLMuT/cY0uLCN8Oqwj7DQyd/ejfFhdqfo1RayPcZVvxLzcdqigszFtfuM9QXF4pfl8/hqwr7DApALe0z9FIBqC05KuzZyVHtyJEcyVEyciRHI87RsXJUnp7LUTJ9nKOWE3bDDTeEefPmhZc33pMFphSW5gOjSOfAteOBCe8l/30vLF26NHziE59oKTDtIkdyJEfx5GikOSpnSY76PUdHH3109sQxnUv+41g5kqOezdHLL78cDjnkkOyxPHHiRDlSSJWjEWwodDJHAAAAVKWvy2KKC79/6PJw3eXzwre/+cVw9vwjw0N3LNnNPsOJYfrAnmHBrUPsMzR1Ja0WiguHLBxin6HV4kLdrV3L+wxpaWFS9daug66kVVdcePTUfWqLCzOW7n6fQQGo6X2GVC8XgEaUo1uqe3ZyJEdyJEdyJEcpOer3HCXTxzlqOWGvvvpqOOigg8Lrrz5fCkcWluYDo0jnwLXjgQnvhZ07d2YHrh/60IdaCky7yJEcyVE8ORppjspZkqN+z9Fll12WPXFMZ+q/fC387sE+LtLJUc/nKJ0PfOADg24zLkdjmCOF1N7N0XudzREAAABV6R5DTHFh47rl4eE7loTVl87NSgvD7TPce8Keyeu+vSql1Gyf4dbZYcaJS8KLT8wNM5LXhDMuKe8zXBhOnTgQJs+9KN9nGL64MGVe8uNsn2FhmJn8XDMva7TPMHxxYcopV+d7DEMXF9bN/2wYmH5eZZ/h2unJa9pyceHFxeGw5Nc/bGV5n2FJ9naluPCHpdnbh6/azT6DAlDT+wypXi4AjSxH1XK3HMmRHMmRHMlRqj05ukCOejZHyfRxjkaUsLPPPjssX748vPrCQ3lYmg+MIp0D104HZteuXdltvhtd+ac8Y0GO5EiO4smRIp0cjdymTZuyJ47lOWvBj+VIjnoyR9u3bw977LFHwwylM5rkqJAjhVQ5AgAAIFq6vxBTXEj3GZ59ZEX4/borwsZHSnsNw+4zXHxg7evAibPDfZV9hnlZeaH8sVJpobzPsPviwubbjwpTsq/7RliV7jPc+cP87Xz2/VF4MNtj2H1x4ZW7f5J/3T+F1bu7ktbz14QzCrd9PWx64Upa6T7DfceF/cq/9sC3w3XFW7um+wxrjy98PJkpc8L64j6DAlBT+wzJ/2SP5V4uAI0oR+mtkot/TjkqjRzJkRzJkRxF5mi5HCXTmzlKpo9zNKKEpVelmzp1anjt1VeSB+x1LQdGkc6BaycDs2XLljBr1qwhr0aXzliQIzmSo3hypEgnR3EWLlyYPXlM52++sH948NcXyJEc9UyOtm59JyxZsiS7qmOj/JRntMlRniOFVDkCAAAgWrq/EFtcsM/Q3D5DemvX/U67ofl9BgWgYfcZ0kn+J3ss93oBqOUcFbIkR3IkR3IkR3KUak+OkpGjHs1RMn2coxEn7L777gs//vGPw5Y3X8oC0HcvhBTpmgtMlx24pv/Yn3rqqeHP/uzPGgalPGNFjuRIjuLJ0eg/gZOj8ZujtNR9wAEHZE8g05n6L18Pv12bvhiSIznq/hzNmTMne9x++tOfDu9///sbZiid0SZHY7ehIEfjN0cAAACUpK/RxrwA1I/7DPf/NOw3sE84c20L+wwKQMPuM6ST/E/2WFakkyM5kiM5kiM5Ukjt7xwl08c5ikrYpZdeGubNmxfefOOV5EF3WwuBaXHhycPSVYFRpGsuMF1y4LormR07toelS5eGvffeu2FIyjN58uT8ET425EiO5CieHLWSoxafwMnRuM/Rww8/nD2BLM+BX/67cMcvzpUjOeraHL300uYwe/asmsftf/tv/02OOp0jhVQ5AgAAIFr6+kwhdTT2GRaHw2pe7+4Tzry/xX0GBaAh9xkU6WqzJEdyJEdyJEdylGpPjpKRox7NUTJ9nKPohF1zzTXhyCOPDE8//XTyG/hNFoC2Lzx5WLoqMIp0zQWmCw5cd+3cGTZv3pxd/WevvfZqGJDidIIcyZEcxZOjZnM03BM4OerHHK1cuTJ7Elmc4/9tVpKVK+VIjroqRyuvvDJ88YtfrHms/uVf/mXDDKUzlvo+RwqpcgQAAEC09DWaQmqX7jMoADXcZ1Cky3NUyJIcyZEcyZEcyVGqPTlKRo56NEfJ9HGO2pKwDRs2hKlTp4ZFixaFJx5P/s985enkwXZX5cFYmtvy+VVpkgfl5uRBmc5Lv7s9+fx07qhO4cH5cvLgLM8rz5QfpLUP1leSB2pp1oRXkgdrOuUH7KvJA7Y094dXswdteUoP3tdqHri1D+A/Jg/g0qwLf0wewOUpPohf/8P68HrlgVx4MG9OHsTJvLk5eSCnD+ZsCg/obEoP6JoHdjbJgzqd9IFdmNIDPH+Q1z3QKw/2bAoP9vIkD/otyQO+NNUHfXU2ZbP1zcKDvzyVEKQBqIagOq/m81p4txyGPBDbkiCks31rKQzbkzAUZ8e7SSDKkwYjmy1JQIrzTvIPdSkgpXm3Mrt2FIKSzY6wM/lvegW6Z555JrsKXXrg+t//+39vGI7idPLqP3IkR3IUT47kSI5GLi11FwtKaY7e3fp2lqPnn7wt3HPTecmcn8/ifC4ozc3pLMnmibWranJ0/69/Hv7z1gvDmlsvyufiytx76yXh3ttK88Adl9Xk6DcPXx/u/dWl4d5fl+a+X1+Wz+X5XBHuu/2KcH8yLzx1RyVHm59ZE9becWVYe2dxVuZzVT5Xh7V3XR02PPDLmhw99uCN4YG7V4cH7lkdHqzMNflcm81D91wXHvrP68KrLzxSydHmZx8OD635RTK/DA/dW52H770hnxtLc99NYeNT99fkaMNDvwrr7r+lNGvTubUyj6y9LZ9fhcfW3VmTo+d+vy488uDt+dwRHn3ozrq5K5v1D90dXnrxqUqG3nzt+bB+3T1hw7r/TGZN2PBIOvfWzX3Z/O6p9TU5em7jk+Gx9Q9k8/j6B8PjG9J5qGae2PBwNu+89VolR2++/kryb/IjhXk0PPHEo+HJJ9bns6EyL2/eVJOj3zz5RLjnnrvCaaedGr72ta9VHp/l+V//63+F973vfV2bo/POO69/crRpfOfotZd+35Yc/f7pDXIEAADAkNLXaQqpCkDlvXIFoJHpSI4UgORIjuRIjuSoTntypJDauzlSSG2b9KpA06ZNCwcddFA45phjsuKFMZ2Y9OpzaSlt//33D3/xF38x5AFrcT784Q/nj+TOkiPTLSNHxsRPr+UoLXWnuUkLS9u2JU9Cd+0KO3fuDI888kj2JLOZSf/c27dvr8w3v/nNhp9XP+nnFb8u/XkafV6jWbt2beXrnnvuuYaf02jSqyoXf8307Uaf12jSX6f8demv3+hzGk0n/n6uv/76ytfF/P3Mmzev4ec1mnb9/RxwwAENP2/fffcd8vbi6chRaeSodvr176cXcwQAANCv0tdrCqkKQApAcTqSIwUgOZIjOZIjOarTnhwppPZujhRS227Tpk3hT//0T8PHP/5xYzoyf/InfxL+y3/5Lw3D0Gg++MEP5o/e7iFHptMjR8bETy/mKC3QPfXUU/lbJWmO0ieZzUz65y7+mfbZZ5+Gn1c/6ecVvy79eRp9XqP5yEc+Uvm69O+w0ec0mr322qvm10zfbvR5jSb9dcpfl/76jT6n0XTi7+djH/tY5eti/n7SUnWjz2s07fr7+cxnPlPz8bRA9z//5/8M73//+2s+rzjdkKPUxo0b8x+VyNHg6aUc9fLfTy/nCAAAoN+kr9sUUhWAFIDidCRHCkByJEdyJEdyVKc9OVJI7d0cKaSOmj//8z9v+Jsxppum26/8I0emF0aOjImfbs7RfffdFyZOnJgVqYabYvkxnb/8y79s+Hn1k35e8evSn6fR5zWaD33oQ5Wv+8AHPtDwcxrNJz7xiZpfM3270ec1mvTXKX9d+us3+pxG04m/n49+9KOVr4v5+/kf/+N/NPy8RtOuv5/y/ydpea745xhq5EiOdjf9+vcznnIEAAAw3nWkAJSXFhQXFIAUgBTp5EiOyuRIjuQoXntypJDauzlSSB11xSu7GNNN00vkyHTr9BI5Mt06vUSOTLdOL5Ej060DAABAZ3WkAJSXFhQXFIAUgBTp5EiOyuRIjuQoXntypJDauzlSSB0zf/VXf9XwN2fMWE56pcReJkemG0aOjIkfOTImfuTImPjp9RwBAACMJwcccEB44403xrYAlJcWFBcUgMZLAagjOVIAkiM5kiM5kqM67cmRQmrv5kghFQAAAAAAAIAOmjp1ati4cePYFoDy0oLiggJQO4sLr21+Onz+859vqbjQLh3JkQKQHMmRHMmRHNVpT44UUns3R+OnkDqSHCmkAgAAAAAAAHTYUUcdFdauXTu2BaC8tKC4oADUzuLCs79bH77whS+0VFxol47kSAFIjuRIjuRIjuq0J0cKqb2bo/FTSB1JjhRSAQAAAAAAADps8eLF4ec//3nY9Jsbx64AlJcWFBcUgNpZXLj55pvDZz7zmZaKC+3SkRwpAMmRHMmRHMlRnfbkSCG1d3M0fgqpI8mRQioAAAAAAABAhz388MPhyCOPDH/8w2MKqQpAPVtc2LVrV5g3b1742Mc+1lJxoV06kiMFIDmSIzmSIzmq054cKaT2bo7GRyF1pDlSSAUAAAAAAADoAtOmTQuPP7YhPP/YaoVUBaCeLC689NJL4Ytf/GJ43/ve11JxoZ3GPEcKQHIkR3IkR3LUQHyOFFJ7N0fjo5A60hwppAIAAAAAAAB0gbvuuiscc8wx4e3XNymkKgD1XHFh544dYdGiReHjH/94w9JCOmNhzHOkACRHciRHciRHDcTnSCG1d3PU+4XUmBwppAIAAAAAAAB0iWOPPTbcfvvt4dUXHhj9AlBeWlBcUABqR3Fh3bp14Qtf+MKQV9FKZ6yMaY4UgORIjuRIjuRoCHE5Ukjt3Rz1fiE1JkcKqQAAAAAAAABdYtu2baVbvD6+Ibz8zN2jWwDKSwuKCwpAscWFF198MRxwwAHhAx/4QMPCQjof/vCH80f56BvTHCkAyZEcyZEcydEQ4nKkkNq7OertQmpsjhRSAQAAAAAAALrIpk2bwuzZs7Mrar352sasdDAqBaC8tKC4oAA00uLCjh07sitopaWFD33oQw0LC+UZa2OWIwUgOZIjOZIjOdqNkedIIbV3c9SbhdR25UghFQAAAAAAAKDLvPXWW9ltXufMmRM2vfhceO2FB8Pzj/0/hVQFoK4oLuzauSO8/vrrYdGiRWG//fbb7RW00vngBz+YP7LH1pjkqJAlOZIjOZIjOZKjRkaWI4XU3s1RbxVS250jhVQAAAAAAACALnXbbbeFgw46KBxzzDHh+uuvD08+9mB4+/UXGsyLu5lN1Xmj8Wx54w/DzOaw5c2h5qUh5503Xw7vvLW7eWU382p45+2hZ+vbr+1m/hi2btndvL77eSedNyrz7qB5c+jZms5bu5m3a2Zbed5NZ8sw807j2ZbO1prZ3nDeHTzbi7NtN7M9PPfcc+Hmm2/OCjX/+3//7/Dxj3+8YVGhfjpNjoaexvkpT6PsFKcuN/UjRw1GjuSofupyUz9y1GDkSI7qpy439SNHDWb0cqSQCgAAAAAAANDFtm3bFu66666swLD//vuHz33uc8Z0ZNLH32c+85nwJ3/yJ+H9739/w5JC/Xz5y1/OH8mdJUemW0aOjIkfOTImfkYrRwqpAAAAAAAAAD3iH//xHxseDhvTjTN58uT8kdtd5Mj00siRMfEjR8bET7M5UkgFAAAAAAAA6DEf/OAHGx4UG9Mt0wvkyHT79AI5Mt0+vUCOTLdPKxRSAQAAAAAAAHpQesvMRgfGxnRyuvUqdEORI9ONI0fGxI8cGRM/I8mRQioAAAAAAADAOJAeGBvTiRlPGv35jBmLGU8a/fmMGYsZTxr9+YwZi4mlkAoAAAAAAAAAAABAFIVUAAAAAAAAAAAAAKIopAIAAAAAAAAAAAAQRSEVAAAAAAAAAAAAgCgKqQAAAAAAAAAAAABEUUgFAAAAAAAAAAAAIIpCKgAAAAAAAAAAAABRFFIBAAAAAAAAAAAAiKKQCgAAAAAAAAAAAEAUhVQAAAAAAAAAAAAAoiikAgAAAAAAAAAAABBFIRUAAAAAAAAAAACAKAqpAAAAAAAAAAAAAERRSAUAAAAAAAAAAAAgikIqAAAAAAAAAAAAAFEUUgEAAAAAAAAAAACIopAKAAAAAAAAAAAAQBSFVAAAAAAAAAAAAACiKKQCAAAAAAAAAAAAEEUhFQAAAAAAAAAAAIAoCqkAAAAAAAAAAAAARFFIBQAAAAAAAAAAACCKQioAAAAAAAAAAAAAURRSAQAAAAAAAAAAAIiikAoAAAAAAAAAAABAFIVUAAAAAAAAAAAAAKIopAIAAAAAAAAAAAAQRSEVAAAAAAAAAAAAgCgKqQAAAAAAAAAAAABEUUgFAAAAAAAAAAAAIIpCKgAAAAAAAAAAAABRFFIBAAAAAAAAAAAAiKKQCgAAAAAAAAAAAEAUhVQAAAAAAAAAAAAAoiikAgAAAAAAAAAAABBFIRUAAAAAAAAAAACAKAqpAAAAAAAAAAAAAERRSAUAAAAAAAAAAAAgikIqAAAAAAAAAAAAAFEUUgEAAAAAAAAAAACIopAKAAAAAAAAAAAAQBSFVAAAAAAAAAAAAACiKKQCAAAAAAAAAAAAEEUhFQAAAAAAAAAAAIAoCqkAAAAAAAAAAAAARFFIBQAAAAAAAAAAACCKQioAAAAAAAAAAAAAURRSAQAAAAAAAAAAAIiikAoAAAAAAAAAAABAFIVUAAAAAAAAAAAAAKIopAIAAAAAAAAAAAAQRSEVAAAAAAAAAAAAgCgKqQAAAAAAAAAAAABEUUgFAAAAAAAAAAAAIIpCKgAAAAAAAAAAAABRFFIBAAAAAAAAAAAAiKKQCgAAAAAAAAAAAEAUhVQAAAAAAAAAAAAAoiikAgAAAAAAAAAAABBFIRUAAAAAAAAAAACAKAqpAAAAAAAAAAAAAERRSAUAAAAAAAAAAAAgikIqAAAAAAAAAAAAAFEUUgEAAAAAAAAAAACIopAKAAAAAAAAAAAAQBSFVAAAAAAAAAAAAACiKKQCAAAAAAAAAAAAEEUhFQAAAAAAAAAAAIAoCqkAAAAAAAAAAAAARFFIBQAAAAAAAAAAACCKQioAAAAAAAAAAAAAURRSAQAAAAAAAAAAAIiikAoAAAAAAAAAAABAFIVUAAAAAAAAAAAAAKIopAIAAAAAAAAAAAAQRSEVAAAAAAAAAAAAgCgKqQAAAAAAAAAAAABEUUgFAAAAAAAAAAAAIIpCKgAAAAAAAAAAAABRFFIBAAAAAAAAAAAAiKKQCgAAAAAAAAAAAEAUhVQAAAAAAAAAAAAAoiikAgAAAAAAAAAAABBFIRUAAAAAAAAAAACAKAqpAAAAAAAAAAAAAERRSAUAAAAAAAAAAAAgikIqAAAAAAAAAAAAAFEUUgEAAAAAAAAAAACIopAKAAAAAAAAAAAAQBSFVAAAAAAAAAAAAACiKKQCAAAAAAAAAAAAEEUhFQAAAAAAAAAAAIAoCqkAAAAAAAAAAAAARFFIBQAAAAAAAAAAACCKQioAAAAAAAAAAAAAURRSAQAAAAAAAAAAAIiikAoAAAAAAAAAAABAFIVUAAAAAAAAAAAAAKIopAIAAAAAAAAAAAAQRSEVAAAAAAAAAAAAgCgKqQAAAAAAAAAAAABEUUgFAAAAAAAAAAAAIIpCKgAAAAAAAAAAAABRFFIBAAAAAAAAAAAAiKKQCgAAAAAAAAAAAEAUhVQAAAAAAAAAAAAAoiikAgAAAAAAAAAAABBFIRUAAAAAAAAAAACAKAqpAAAAAAAAAAAAAERRSAUAAAAAAAAAAAAgikIqAAAAAAAAAAAAAFEUUgEAAAAAAAAAAACIopAKAAAAAAAAAAAAQBSFVAAAAAAAAAAAAACiKKQCAAAAAAAAAAAAEEUhFQAAAAAAAAAAAIAoCqkAAAAAAAAAAAAARFFIBQAAAAAAAAAAACCKQioAAAAAAAAAAAAAURRSAQAAAAAAAAAAAIiikAoAAAAAAAAAAABAFIVUAAAAAAAAAAAAAKIopAIAAAAAAAAAAAAQRSEVAAAAAAAAAAAAgCgKqQAAAAAAAAAAAABEUUgFAAAAAAAAAAAAIIpCKgAAAAAAAAAAAABRFFIBAAAAAAAAAAAAiKKQCgAAAAAAAAAAAEAUhVQAAAAAAAAAAAAAoiikAgAAAAAAAAAAABBFIRUAAAAAAAAAAACAKAqpAAAAAAAAAAAAAERRSAUAAAAAAAAAAAAgikIqAAAAAAAAAAAAAFEUUgEAAAAAAAAAAACIopAKAAAAAAAAAAAAQBSFVAAAAAAAAAAAAACiKKQCAAAAAAAAAAAAEEUhFQAAAAAAAAAAAIAoCqkAAAAAAAAAAAAARFFIBQAAAAAAAAAAACCKQioAAAAAAAAAAAAAURRSAQAAAAAAAAAAAIiikAoAAAAAAAAAAABAFIVUAAAAAAAAAAAAAKIopAIAAAAAAAAAAAAQRSEVAAAAAAAAAAAAgCgKqQAAAAAAAAAAAABEUUgFAAAAAAAAAAAAIIpCKgAAAAAAAAAAAABRFFIBAAAAAAAAAAAAiKKQCgAAAAAAAAAAAEAUhVQAAAAAAAAAAAAAoiikAgAAAAAAAAAAABBFIRUAAAAAAAAAAACAKAqpAAAAAAAAAAAAAERRSAUAAAAAAAAAAAAgikIqAAAAAAAAAAAAAFEUUgEAAAAAAAAAAACIopAKAAAAAAAAAAAAQBSFVAAAAAAAAAAAAACiKKQCAAAAAAAAAAAAEEUhFQAAAAAAAAAAAIAoCqkAAAAAAAAAAAAARFFIBQAAAAAAAAAAACCKQioAAAAAAAAAAAAAURRSAQAAAAAAAAAAAIiikAoAAAAAAAAAAABAFIVUAAAAAAAAAAAAAKIopAIAAAAAAAAAAAAQRSEVAAAAAAAAAAAAgCgKqQAAAAAAAAAAAABEUUgFAAAAAAAAAAAAIIpCKgAAAAAAAAAAAABRFFIBAAAAAAAAAAAAiKKQCgAAAAAAAAAAAEAUhVQAAAAAAAAAAAAAoiikAgAAAAAAAAAAABBFIRUAAAAAAAAAAACAKAqpAAAAAAAAAAAAAERRSAUAAAAAAAAAAAAgikIqAAAAAAAAAAAAAFEUUgEAAAAAAAAAAACIopAKAAAAAAAAAAAAQBSFVAAAAAAAAAAAAACiKKQCAAAAAAAAAAAAEEUhFQAAAAAAAAAAAIAoCqkAAAAAAAAAAAAARFFIBQAAAAAAAAAAACCKQioAAAAAAAAAAAAAURRSAQAAAAAAAAAAAIiikAoAAAAAAAAAAABAFIVUAAAAAAAAAAAAAKIopAIAAAAAAAAAAAAQRSEVAAAAAAAAAAAAgCgKqQAAAAAAAAAAAABEUUgFAAAAAAAAAAAAIIpCKgAAAAAAAAAAAABRFFIBAAAAAAAAAAAAiKKQCgAAAAAAAAAAAEAUhVQAAAAAAAAAAAAAoiikAgAAAAAAAAAAABBFIRUAAAAAAAAAAACAKAqpAAAAAAAAAAAAAERRSAUAAAAAAAAAAAAgikIqAAAAAAAAAAAAAFEUUgEAAAAAAAAAAACIopAKAAAAAAAAAAAAQBSFVAAAAAAAAAAAAACiKKQCAAAAAAAAAAAAEEUhFQAAAAAAAAAAAIAoCqkAAAAAAAAAAAAARFFIBQAAAAAAAAAAACCKQioAAAAAAAAAAAAAURRSAQAAAAAAAAAAAIiikAoAAAAAAAAAAABAFIVUAAAAAAAAAAAAAKIopAIAAAAAAAAAAAAQRSEVAAAAAAAAAAAAgCgKqQAAAAAAAAAAAABEUUgFAAAAAAAAAAAAIIpCKgAAAAAAAAAAAABRFFIBAAAAAAAAAAAAiKKQCgAAAAAAAAAAAEAUhVQAAAAAAAAAAAAAoiikAgAAAAAAAAAAABBFIRUAAAAAAAAAAACAKAqpAAAAAAAAAAAAAERRSAUAAAAAAAAAAAAgikIqAAAAAAAAAAAAAFEUUgEAAAAAAAAAAACIopAKAAAAAAAAAAAAQBSFVAAAAAAAAAAAAACiKKQCAAAAAAAAAAAAEEUhFQAAAAAAAAAAAIAoCqkAAAAAAAAAAAAARFFIBQAAAAAAAAAAACCKQioAAAAAAAAAAAAAURRSAQAAAAAAAAAAAIiikAoAAAAAAAAAAABAFIVUAAAAAAAAAAAAAKIopAIAAAAAAAAAAAAQRSEVAAAAAAAAAAAAgCgKqQAAAAAAAAAAAABEUUgFAAAAAAAAAAAAIIpCKgAAAAAAAAAAAABRFFIBAAAAAAAAAAAAiKKQCgAAAAAAAAAAAEAUhVQAAAAAAAAAAAAAoiikAgAAAAAAAAAAABBFIRUAAAAAAAAAAACAKAqpAAAAAAAAAAAAAERRSAUAAAAAAAAAAAAgikIqAAAAAAAAAAAAAFEUUgEAAAAAAAAAAACIopAKAAAAAAAAAAAAQBSFVAAAAAAAAAAAAACiKKQCAAAAAAAAAAAAEEUhFQAAAAAAAAAAAIAoCqkAAAAAAAAAAAAARFFIBQAAAAAAAAAAACCKQioAAAAAAAAAAAAAURRSAQAAAAAAAAAAAIiikAoAAAAAAAAAAABAFIVUAAAAAAAAAAAAAKIopAIAAAAAAAAAAAAQRSEVAAAAAAAAAAAAgCgKqQAAAAAAAAAAAABEUUgFAAAAAAAAAAAAIIpCKgAAAAAAAAAAAABRFFIBAAAAAAAAAAAAiKKQCgAAAAAAAAAAAEAUhVQAAAAAAAAAAAAAoiikAgAAAAAAAAAAABBFIRUAAAAAAAAAAACAKAqpAAAAAAAAAAAAAERRSAUAAAAAAAAAAAAgikIqAAAAAAAAAAAAAFEUUgEAAAAAAAAAAACIopAKAAAAAAAAAAAAQBSFVAAAAAAAAAAAAACiKKQCAAAAAAAAAAAAEEUhFQAAAAAAAAAAAIAoCqkAAAAAAAAAAAAARFFIBQAAAAAAAAAAACCKQioAAAAAAAAAAAAAURRSAQAAAAAAAAAAAIiikAoAAAAAAAAAAABAFIVUAAAAAAAAAAAAAKIopAIAAAAAAAAAAAAQRSEVAAAAAAAAAAAAgCgKqQAAAAAAAAAAAABEUUgFAAAAAAAAAAAAIIpCKgAAAAAAAAAAAABRFFIBAAAAAAAAAAAAiKKQCgAAAAAAAAAAAEAUhVQAAAAAAAAAAAAAoiikAgAAAAAAAAAAABBFIRUAAAAAAAAAAACAKAqpAAAAAAAAAAAAAERRSAUAAAAAAAAAAAAgikIqAAAAAAAAAAAAAFEUUgEAAAAAAAAAAACIopAKAAAAAAAAAAAAQBSFVAAAAAAAAAAAAACiKKQCAAAAAAAAAAAAEEUhFQAAAAAAAAAAAIAoCqkAAAAAAAAAAAAARFFIBQAAAAAAAAAAACCKQioAAAAAAAAAAAAAURRSAQAAAAAAAAAAAIiikAoAAAAAAAAAAABAFIVUAAAAAAAAAAAAAKIopAIAAAAAAAAAAAAQRSEVAAAAAAAAAAAAgCgKqQAAAAAAAAAAAABEUUgFAAAAAAAAAAAAIIpCKgAAAAAAAAAAAABRFFIBAAAAAAAAAAAAiKKQCgAAAAAAAAAAAEAUhVQAAAAAAAAAAAAAoiikAgAAAAAAAAAAABBFIRUAAAAAAAAAAACAKAqpAAAAAAAAAAAAAERRSAUAAAAAAAAAAAAgikIqAAAAAAAAAAAAAFEUUgEAAAAAAAAAAACIopAKAAAAAAAAAAAAQBSFVAAAAAAAAAAAAACiKKQCAAAAAAAAAAAAEEUhFQAAAAAAAAAAAIAoCqkAAAAAAAAAAAAARFFIBQAAAAAAAAAAACCKQioAAAAAAAAAAAAAURRSAQAAAAAAAAAAAIiikAoAAAAAAAAAAABAFIVUAAAAAAAAAAAAAKIopAIAAAAAAAAAAAAQRSEVAAAAAAAAAAAAgCgKqQAAAAAAAAAAAABEUUgFAAAAAAAAAAAAIIpCKgAAAAAAAAAAAABRFFIBAAAAAAAAAAAAiKKQCgAAAAAAAAAAAEAUhVQAAAAAAAAAAAAAoiikAgAAAAAAAAAAABBFIRUAAAAAAAAAAACAKAqpAAAAAAAAAAAAAERRSAUAAAAAAAAAAAAgikIqAAAAAAAAAAAAAFEUUgEAAAAAAAAAAACIopAKAAAAAAAAAAAAQBSFVAAAAAAAAAAAAACiKKQCAAAAAAAAAAAAEEUhFQAAAAAAAAAAAIAoCqkAAAAAAAAAAAAARFFIBQAAAAAAAAAAACCKQioAAAAAAAAAAAAAURRSAQAAAAAAAAAAAIiikAoAAAAAAAAAAABAFIVUAAAAAAAAAAAAAKIopAIAAAAAAAAAAAAQRSEVAAAAAAAAAAAAgCgKqQAAAAAAAAAAAABEUUgFAAAAAAAAAAAAIIpCKgAAAAAAAAAAAABRFFIBAAAAAAAAAAAAiKKQCgAAAAAAAAAAAEAUhVQAAAAAAAAAAAAAoiikAgAAAAAAAAAAABBFIRUAAAAAAAAAAACAKAqpAAAAAAAAAAAAAERRSAUAAAAAAAAAAAAgikIqAAAAAAAAAAAAAFEUUgEAAAAAAAAAAACIopAKAAAAAAAAAAAAQBSFVAAAAAAAAAAAAACiKKQCAAAAAAAAAAAAEEUhFQAAAAAAAAAAAIAoCqkAAAAAAAAAAAAARFFIBQAAAAAAAAAAACCKQioAAAAAAAAAAAAAURRSAQAAAAAAAAAAAIiikAoAAAAAAAAAAABAFIVUAAAAAAAAAAAAAKIopAIAAAAAAAAAAAAQRSEVAAAAAAAAAAAAgCgKqQAAAAAAAAAAAABEUUgFAAAAAAAAAAAAIIpCKgAAAAAAAAAAAABRFFIBAAAAAAAAAAAAiNL2QuqmTZvCypUrw9FHHx2OOuqocNBBB4XPfe5zxozJpI+39HGXzmWXXRY2btyYPzIBAAAAAACgdzmHNZ2c8XIOK0emkyNHxsTPeMkRjGdtK6Q+9dRT2WKTBn/RokXhnnvuCWvXrg3PbfxtePv1Fwrz4m5mU3XeaDxb3vjDMLM5bHlzqHlpyHnnzZfDO2/tbl7Zzbwa3nl76Nn69mu7mT+GrVt2N6/vft5J543KvDto3hx6tr41zLxdM9vK8246W4aZdxrPtnS21sz2hvPu4NlenG0NZ9OmF7PHXTrnnXdemDp1apg2bVp4+OGH80cqAAAAAAAA9A7nsENP4/PX8jQ6ey1O3blr/USdw6bT6Py1POPjHHb27Nk9cw4rR0NP4/yUp1F2ilOXm/qRo5qRo3SSrMhR3dTlpn7kqGZ6PUfQD9pSSL3ooovCIYccki02b772bHh54z3h+fVXhWcfuTyZK/JZHp59dHl47tEVyVwZnlufzsps0s99fkM6V+ezKjz/2KrwwmP/rzSPr67Mi49fE158Ip1r87kuvPjkdWHTk9fn84uw6Tfp/DL84Tc3hD88lc6N+dwU/vDbm8Lm396czy1h89Pp3Bpeevq28NLv0vlVPr8OL/3+1+Hl39+ezx3h5WfSuTObVzbelczd+dwTXnn2nvDqs/+Zz5rw6nPp3JvNa8/dF157/v581obXXlgb/vjCA/k8GP74YjoPZfP6iw+H1zels640f3gkn0ezeWPz+nw2lOaldB4rzcuPhzdffiKfJ8Obr6Tzm2zeeuWp8Nar6fw2n6fD26/9Lp/fh7f/mM4z2Wz548aw5fV0ns3nuWRBfy6888bzybyQLNLpvJjN1jc3ha1vpfOHfDYni+nm8O7bL5Vmy8vJvJLNti2vhm3vpPNaPn9MFrI/hu1bX6/Ou29ks+PdN8OObem8lc/bYcf2t8PO7VvyeSfs3JHO1rBrx7th1850tuWzPezalczOHWHHju3h8ccfD0ceeWQ44YQTkoVuW/6oBQAAAAAAgO7Wl+ewz7R6Dls+ix3Fc9iXWjuHfeu18lnsKJ7Dvt35c9h169Zl57ALFy7s6nPYUc9RIUtyJEdyJEdyJEfQ76IKqW+99Vb23Q9Lly7NWvibk3+8N667LJtn16WLjkJqdeFRSB3rhee9XTuy2bVrZ7YA3Xzzzdl3RaSPWwAAAAAAAOhWfX0OqwDU3DlsBwtA9eewq1atyopA3XYOO2Y5KmRJjuRIjuRIjuQI+l1UIfWoo44Kt99+e3j9pd9ki8nGdZeOzsKTLzpdtfAopDa38HRBIfW9ZOF577108dmRXS01LaX6jggAAAAAAAC6VV+fwyoANXcO2wUFoOI5bHp1um47hx2zHBWyJEdyJEdyJEdyBP1uxIXUxYsXh2XLlmWLzsaHlyWTLjoKqUMvPAqpnV543ntvV/L+ndmVUqdNm5Y/kgEAAAAAAKB7VM9hn+zPc1gFoObOYbuoANSN57BjmqNCluRIjuRIjuRIjqDfjaiQ+tRTT4VDDjkkbN3yRraQKKQqpA658HRZITWd9DsijjnmmPBf/+t/Df/+7/+eP6oBAAAAAACgs4rnsOnZqkKqAlCvFICK57B/+qd/2tFz2DHPUSFLciRHciRHciRH0O9GVEhNL8m9du3a5B/xW/JFRyFVIXWIhacLC6np/O53vwtf/OIXw/ve977w53/+5/kjGwAAAAAAADqneA77zMM/789zWAWg5s5hu7AA9N6u2nPYv/qrv8of2WNrzHNUyJIcyZEcyZEcyRH0u5YLqRs3bgxTp04Nb776+/DMQ+VFRyFVIXWIhacNhdTt774V3nnnnbB1a7LQ7Gbh2bH93ezz3n03ed9uFp4Q3ks+viv8+Mc/Dh/96EfDwMBA+PCHP1x6gAMAAAAAAEAH1J/DKqQqAI12AajZc9idO7Y1dw77XufPYTuSo0KW5EiO5EiO5EiOoN+1XEi96KKLwtKlS8Pm5B9mhdRWFh6F1JEtPG9ni8nrr78e3njjjcLiU7vw7Ni+Nbz99tvZ57355pvZ4jPkwhPeS/77Xrj++uvDpz71qWzhSSe9VDcAAAAAAAB0Qv05rEKqAtDoFoBG4Rz2vc6fw3YkR4UsyZEcyZEcyZEcQb9ruZB69NFHh3vuuSdbZBRSW1l4FFJHsvCki85bb70Vfvazn4WTTz45vPbaa2Fr8r4d26oLz45tpUXnoYceCnPmzAlXXnll9nXbKotP3cIT3ssey0//Zl3Yf//9KwtPOl/+8pezjwEAAAAAAMBYqj+HVUhVABrNAtConMO+1/lz2I7kqJAlOZIjOZIjOZIj6HctF1KnTZsWnnrqqWTRuaSpQuryqXmo9zk03FNYeFZ8pxz2PcP8m6oLz5o5e5beP2FWuLdu0Rm88MwNM/J/MGZcki4686pvL1NIHQ+F1HSRSRee0047LXzpS18Kp5xySnjllVdKi8/2dLZmH08Xne9///vh29/+drj22muzhWf7tncbLzx5IfWlF58atPCkAwAAAAAAAGOt/hy2lQLQPcfvUXfmlZ7Bdnsh9fQwK//9zrpirApAvwxnTi7+PVXn8FWxBaDbw1lTGv/cA/udHB7rsgLQqJzD5gWgTp7Dtp6jReGUfWp/n+WZNOfcNhfpxrDP0HSOzg2z89/T7BXt7DPcHBYNkYfDV42fIp0c1a5HlX5QYdqfo3ROKmRprHJ0dTh90uA/XzqzVyikyhFQ1HLKDjjggOwSyc0WUu/5afnFz5fC8koh9dwwf0I16NOXVheeclF10gnnD1p0Bi88bSik3nFUmJJ+zb4/DA8opLZ/4Ym+Zf9b2SKSPuYWLlyYfafC/Pnzw0svvZS9v37Rueaaa7L3b6ssOkMXUl9/6cnwuc99rvI4LM8Xv/jF7OMAAAAAAAAwVurPYZsrAB0XDq076ypOWgTqikLqnT8snMl2ZyE1nf0W3tT4HDa2kJrPEdd2TwFoVM5h8wJQJ89hW8/R0IXUdLIMdaqQenu5y/CD8EA7Cqn3/KT080361/BwBwup6Xx+4W1D5Ki3inRyNHyOmi6k3jIrTE6/ZuLscF8xR7celr//8HB/lxZS09lv/uoW16MR9oLGYSF1vOYI+lnLhdQ0qDt27KgsPMMVUp+9YVqYlAV6j3DKjXkh9cbp+fvy+c6cfOGZE6bn75t+UTMvhOILqQ/M+1Tp96CQOjoLT3Qh9e1sIXnhhRfC73//+3D66aeHr371q2HBggXZ+9JF58gjjwxTp04NV111Vfa+l19+OWzd+k7YtXN744VnmELqBz/4wezjAAAAAAAAMFbqz2GbKaRWr0a3R5h/Y/UWyTV3q7x5NwWgIc9h64t06Yy8kFp7JjuCIt0oFFL3O+2G/Bz2xmpJdcqcsH7EBaBqIfXzZ9xRPYe99pDSz53NtHBD1xSABp/DfuUrX4k7hx2mADQW57Ct56hapJt0/Fn5BbZ+Wi16T5gR1rT1yo7N5+iBn5Vz055C6sOn7F36+WoKqaN1ZcdqIXW/hbfkObq1WtqeMjdsGBdFOjnKcrTk7yu/v0OXFm7Zf9P0cGiThdR7T8jvplxXSL3vxL3y9xcLqSNfj9pRSJ1yyqp8PVpVLalO+rewTiFVjoDM6BdSC9+VV34Ctya/ZcSkCeXb8ydP4tKF5+aZeVH1y2FFvvBceXD1H4TS7BVOvbX8BK65QurV3yt+/UCYuay08Kyqe386U+Zd0dzCo5Da3MITWUhNF530ux3mzp0b5syZk10WPl18vv71r4d//dd/rSw6K1euDHfffXc47rjjwpVXXpl93bZ3tzZeeIYppKYDAAAAAAAAY6nlAlDlwkDFIl2pkPrc+uOrhbrs4kDFCwOdHxYU7mY5+cQLaop0K+vOZ0vnsOkUr0h3cunHE48Ma5+6cdB57MDAp8LCO0oFoFWH1H9sIEw5aXkY6gqpD5386drPn/ST8HDlHPacwtUcV4czClerm72icA575beqX5/Nt8J1QxZSHw2PnjYh/7zvhOvyc9jrZha/vnyb8XQuCYeX37d6WenHabluqEJqeg577bTKz3PEdaVz2BsOK71dncnhnA3pOex94ZzP5+87/KrqOewvZuafNzPc2IYC0Kicww5TAEpntLWco4aF1EKpu66QWi17l2b6RcVC6gXh1InVj00+8bDh+wzLvlb5/NJ8PawasstweXjpdwvDzPztmZcvLGVo3x+HB39/R1g1rfbzBwb2Dqcn/9+lfYbVh9Z/LPn55q8OQ10h9ZEFn639/MnHhUcqfYYLwmH5+w+7+oaaqw4fvqrcZ2hUSH08bFg4Mf/c74brX3kyXD+r+rWl2Tec9XCxSHdnOHu/6sc/f+bJ4Yj8x0dcV+0z3HB49XPS+f71Y1Okk6M8R0MVUrP1aGWlkDo4P0P1gkprU/16lL1/7oV161HaC8rXpOztZeG0faufP3NZsZB6eVhY+NiUeT+q5GnW5Xkv6IpvVj5emoPC6iELqWvCw/PLWfnncO3z94Vrpxe/Np3PhjPvLfaCrq/JzH6n/rSQp2ovaPAaNH4LqeM1R9DPxqCQWvjOvKnHZQvPivztQ5eWXwgdEFakT+Au/HLp8ybMCmuyQurimhdD1TkwrGyykDr4xU9p0lKqQmr3F1LT72h4++23w3nnnZddGfWEE04Ijz/+eDjjjDOyy3QXF53DDjssTJ8+Pdx8883J120tXJ67buFRSAUAAAAAAKDLjLwAVLhTZaEAVFOoKxRSG830i0uF1Ebln3RKZ7HVAlBlskLqz8NphRJedb4eVrVYSB1cqCvPP4XVdYXUwfMv4dr0HHZQGTWd3RVSl1bKQOUrpNYXgcpTKqVWC6mVGa6Q+scrKiW6z595d9jy+j3hnELJrjrTww1vvhieOGty/vaMcGN+DntjXrjb/+wH2lIAGpVz2PFSSC3c8bV4y/76Ml15slLq4xeEBQ1zUJqGfYZBZdR0mi+kViYrpK4ICxveTjwt07VWSB1cqCtPOUfVQurgSUvdQxVSL65mJ7tC6m3VK6bWzPfCL7Ii3R01ZdT6KRdSB5e7S5OWUke7SCdH5RxVL1RXmi+FFXWF1N3lp52F1MGTrkVpIfWymjJq/WSF1Mvry6jp7K6QWliTsiuk1n6jRHW+Fa7NekG1ZdT6KRdSh16DxmchdbzmCPrZmBRS7/lp6YqoAxMODWsql7c/IKxYf26YnxdOp194VVgzp3TF1Elzzh/iVhHFAmoThdRffz9Mzt7+ZDjt16VLc6/92Sezjw98b0F2aW637O/uQuqObW8li8iW8Oabb4bzzz8/+w6IdPF59NFHw0UXXTRo0bnpppvyRaf8XRAKqQAAAAAAAHS/VgtAlTPYgS+F5Y+2UEg9+MT8HHZxtUB38Nzw4q2z87PV9I6VpVuN3zc3v1Xyd+fVFlInfj+sHfIWyQuqV3C8dHe37K8rpN59dJhSfnt5fg57908q7ysVgArln0PPLZ3Drvjn0tsDnw1n3Fu4smN2Rcf6c9hqIbXRZFd3fGBO2C97e0JY9EDpHHZ9+aqOsy4JNYXUrFRXPodtpZBafw67Inw//3jpyo4rq2//Ij2DvTp/e0o497H8HDayADQq57A9XkgdNNnVUfNbjd88Iy+p7hnm31y61XjlFuNppir5SbsL+R1fL/lK5edq1GdYOzfvLuRXGm7ulv2FQuq+PwoPDtVneObMar6W7+6W/XWF1DXH5o//gXDYlXmf4b7jKu/b79Rf1hZSZywp9Rmunlp6O8tNbSG10Ry+qlGfIb/icPrx1U+Ht9bNC5/P3z7i2rzPUHO14SRDj56Sf86kcM76Up+hUug+fOWoF+nkqNoLKl61uzITpmcZeu6mYn5Kt+wv94PKa1Jrt+zfTSH1e/NLOVr29dLb5St23/GDynoy87K8F3TZP+SfUyqkPnhSfoXuSUeHB7McNb5lf6OZvSLtBZW7QeVe0HnVq5+urM3SYVflvaCrvl35ObJC6trjC2tQqRe0fmF+Fe+ZF43LQup4zRH0szEppFYXni+FFeXvJsoXnmoJ9dzKi6LpF5aewNUsOnXTVCG14XcU5bPvUeEBhdTRX3jaUEgtLz6vv/56WLx4cfjHf/zHcOKJJ4Ynn3yy4aKzfdu7Ydeu7UMvPAqpAAAAAAAAdJmWC0AjvEJq+RbJ2VlsueiTFlIvPjD/+RpMVgSqLwBVC6mVYl3dtFRILd8medLR4aHCOWzlyo6Hnl1TSJ29onwOWyjUXdnoCqnplemGK6ROza/qmMyq7zT4eD5TTgwbam7ZXzyHba2Q+viZk6o/b2HKtxovXxF14PCrw9ZfzCj9+PMLw5NtLAC1/Rx2PBVSy0W6ciH1wgMGf055JswK91byk97tNS+kPrGkcgv/5voMXw9Xt1BInXl5bZ/hwZPzMl3dtFRIXfEvpc+ZfGx4pNBnuHZG/vPNuCDJUfGW/eU+Q/VKw6Xb9g9VSD04XF/oM2w4vXwL/9rJCqnXHpK/fUj4ZaXPcHfl6sJZIfW6QytfM2g+f2p4cgyKdHKUzhX5LA/P3nhobTH1O8eH55YOk582FlJnLCsXu4vfHHFL2HzpN0o/z8A3wqpKL2h55aqpja+QWr46ajpDFVL/Oayu9ILuC+sqt/CvnayQurK8Pn07XFfpBd1QWZeyQmql3N1gppwQ1o/TQup4zBH0s7EppFYuz71HOHRq6Tv10gJqdmnu8sIzYc98UfpyWLEhL6ReVH3Rk16Ou9UrpFZf+HwtXN3gO4pcIbV3Cqk7tr2dLT6vvfZatvgcdNBB4Qc/+EHNovPOO++Ebe9uDbt2bldIBQAAAAAAoKe0XAAqXI2ucqvxSiH1+Mrtk7Nbjg9RSK3cJvngudXSz8BXwsqsTHddePHJ6/LyT6MCUF5ILZTqpvxsWV0JqPlCaqVMF1tIzc5gq1elK80+4cz7agup1Vv2157DVq5El956vHwOW1MAar2Q+lilfDopnPPoxpoS3ecXrQmDr5D6Yti64dSwf/a+GeH7eTn1+79sfwGoreewPV5ILeWofMfXZApXSK1czbHYZ8hzVFPuTst0lULqMBfY+k1tka40nwwLbx9BIbVQpJty8pUjvkJqpUzXxkJq9Zb9dX2G1d8t/ZzJfP70XycZqr1C6oYz9i19fL+TwmOVPkO13J0WUqvF7kPDDR0s0slRoZCaX7F7xdTy7/eAML+SnwOS/JSukPp8XY5Gu5Bauw6Ve0HVPGWF1KwXdEYlO6XZO5x+d20htXrL/rpeUOWK3cnjfsF1NWtRWkh95NR9Sh+f/O/h0UovaEkhT4+GR08rrEGNekHjuJA63nIE/WyMCqlXhOWVxaY0hy4tfWde+mIoe/FTLqROmBnW5AtP9RL3c0u37K+5zH1rV0idPPfnlULqAz/7ev4kTiG1lwqp2/PF55VXXgkXXHBB+Id/+IfCd0CUF51tCqkAAAAAAAD0nNYLQMUrO+4R5t9YLqSeG+ZPKL8/vT3yVTWF1Oot+0+svC+9OFDxCqmTT1wSyoXU++d+NZx629CF1MpFgr43PyvRbb79qOptkdt4y/7Zy9Nz2GYLqeVz2PMLZaDmCqnFK6QWi3QbFh4cznowPYdtsZBaucpjMvudHB5/fWO1RHfYitI57Pr5lVuTVwqpb26qXiU1m5nhxlEqALXtHHZcFFKTHJXv+pq+Ly10110hddKc8wt3fD0wLLglyVMhP83esr9USC3l6A9Pza98bOay1guplVuNTzuz1GeoyVMLV0gd5pb9pRy1p5BauTrqrGWlHD08t5KD2iuk7uaW/YPK3aU+wxNnzQjnbBjbIl1f52jJ34dJP12U/LhBITUtdheukDppzn9UCqlrTvhyKT9jUEitXiE1eXuIW/bX9oKKpe7mCqmVQvf080q9oHsLeaq5Qmry9lC37C9cIXW/hTdXekHrkzVo0QPjv5A6nnIE/WzMCqn3/LR0ZdTSHBBW5LeKqH1BVF586gqpDaapQupvLg6n5ZfAr51PVQqpmy/9es3Hpsy7QiG1SwupO7a/HXZufye8++474eWXXw5XXnlluPnmm7NFZ/u28qKjkAoAAAAAAEDvabkAlJ3Dlu9U2XimL03LqHWF1EFzYLjy8dXhxccvqNxevHb2aq6Q2mDKhdSXLqsWgdKZctLyMKiQ+sydYdW06ufUzKSfhIezc9jhC6mPLGh0u+Tmr5A69K3GJzZdSG0808IN+TnsULfrT6dYSK3cqj+dw1eNWgGobeew46WQ+uiVYcV3yr/ntNuQZqi211CdPUuFuiQ/CxrmpzS7v+NrcapXSN28rL7LcPnwhdQGUy6kvrr8n2reP2X+6jCokPr82nDt9Orn1Mzk48KjWZ+hzYXUBpMVUl+7I5yd356/0WSF1NfvqdzCv3Ymj3khta9ztOTvG/4+0yndPXmY/KTfJFG4g3I62TdK1BW7s/fPvXBkhdSnL6vcnr/RpIXUxjlq/gqpQ92uP52skPri9ZU1qNFkhdQ/3DjEGjShLwqp4ylH0M/GrJD67A2HVr6LaGDC9LCmUkhdWXgyl7wourB4ae7FYUFlUdorLLi1tVv2l7+j6OrvlX+OfL63oPQELi2kPn1LWHVI9WMKqd1eSN2S/HhL2PrOluxS3KXvgHgnWWzebX7hUUgFAAAAAACgy7RcACqfwz6yfNDdKkslutKtxusLqdMvql4ZtXQGuzq7W+WL+RXpVpZv41+e784Lu71l/1M/L1wkKL0w0OBb9qdXdqw5kx2ikJrO6vpS6qFnFc5hR1JITcuo5XPYZgqppXPY62YWf45kZl2Sn8O2Xkj9/Jl3153DFkt0k8I56xvcsj89h63ctj95/y9GuwDUhnPYcVRIfW593a37sxxdXdNtyKZ8xeH0jq+PV/sLWZG7pt/QTCH1k+G029MiXV5I/W19l2HoQurLv18RFuZluYGBT4fT7x58y/40Q6sPLX/O0IXUtM8wqJQ6Y3Ghz9CmW/a/clshMxPDWcn/T8Vb9peKdJdVbtGfZuXs5N+84i37y32GG2quJpzM4Ss7VKTr1xw1/uaI6p2TS+vRkPnJ58rC+lMppCZTXJdGXkhN16NqfrL16s7aW/YPLqSmWSr3gpq4Zf/zq8MZlRx+Npx5b+0t+0u9oMWV92Xr0/21t+wvr0eD1qCZFw2Ro/FYSB0fOYJ+NnaF1MKluUtP4GoXntILobSMWiyk5gtP9uSt9oVQeeEp3yqi9CIonV+ETb9Jp/4S9+mUF57qE7i0kFpaeMqXuM8vza2Q2p6FZxQKqaXF553wbrLopN8VsWtHuugopAIAAAAAANC7Wi8AtXIOWyykdvk57DOtnsOWz2JH8Ry2QwWgJ8+aXDq//Pxp4ckxKABFn8P2ZJGuDX2GQpaKOaqW6L4SrpKjtuTol4eV/06nhRva0WeQo4a6KUejuR5VC9/fDKs6lKPrZpR/D1PDdV28HskR0AqFVIXU0V14RqmQml6ie+eOdLYqpAIAAAAAANDzRrcApJDaS4XU+qs9fv8XY1cAijqH7esi3dC37J88d6kcjShHQ9+yP73qcFv6DHLUUOdyNJrr0dC37J9y0ooxytHQt+wvXbVbIXU85Qj6mUKqQuroLjwKqQAAAAAAADCs0S0AKaT2aiG1VEZVAGrW6OZod0W6RoXU9Lb9cjTyHDUqpE4K5zzSxj6DHDXUuRyNdSH102HhXWOZo0aF1H3CmWu7dz2SI2AkFFIVUkd34VFIBQAAAAAAgGF1pADUjeewCqnNncMqADXUkRwVsiRHciRHciRHcgT9TiFVIXV0Fx6FVAAAAAAAABhWRwpA3XgOqwDU3DmsAlBDHclRIUtyJEdyJEdyJEfQ7xRSFVJHd+FRSAUAAAAAAIBhdaQA1I3nsApAzZ3DKgA11JEcFbIkR3IkR3IkR3IE/U4hVSF1dBcehVQAAAAAAAAYVkcKQN14DqsA1Nw5rAJQQx3JUSFLciRHciRHciRH0O8UUhVSR3fhUUgFAAAAAACAYXWkANSN57AKQM2dwyoANdSRHBWyJEdyJEdyJEdyBP1OIVUhdXQXHoVUAAAAAAAAGFZHCkDdeA6rANTcOawCUEMdyVEhS3IkR3IkR3IkR9DvFFIVUkd34VFIBQAAAAAAgGF1pADUjeewCkDNncMqADXUkRwVsiRHciRHciRHcgT9TiFVIXV0Fx6FVAAAAAAAABhWRwpA3XgOqwDU3DmsAlBDHclRIUtyJEdyJEdyJEfQ78agkLoonLLPHuGUG6oLz5rj90jCvUeYf5NCqkKqQioAAAAAAAC0XgAap+ewCkDNncMqADXUkRwVsiRHciRHciRHcgT9buwLqUu/FAYmTA9rXCG1/QuPQmpzC49CKgAAAAAAAF0mugA0Xs5hFYCaO4dVAGqoIzkqZEmO5EiO5EiO5Aj63dgWUtNFZ+BLYUWDS3Ov+E4h+BNmhTX5wnPvCXtW3z9wYFhZs/AsCadOrH7d5LkX5gvPRXXv/3n7Fx6F1OYWHoVUAAAAAAAAGFZUAWg8ncMqADV3DqsA1JAcyZEcxZMjOZIjIMbYFVKXHBomZYvOivDcEAvP9AuvDs/fPDNMqiw8i8OCg2eFe/Pvgrjy4GQROfGCfOEpLTqTT1yafyfEvHBqtvCUFp3Jcy/KvxPi5HCaQqpCqkIqAAAAAAAAXWzEBaDxdg6rANTcOawCUEMdyVF+ZUc5kiM5kiM5kiNgzAqppTBPOv6sZNFptPCcG+ZPaLTw1F6W+4WLDwwDB88tLTy3HhYmTzws3Fd/ae7bjkjef0S43y37h114FFItPAAAAAAAAHSHkRWAxuE5rAJQc+ewCkANdSRH5SzJkRzJkRzJkRwBY3nL/uPCoUmgD13aaOGZE6YP7Bnm39xg4bkoWWyK/yiUF55LvpL/uG7hueSrYeC7J4VNCqnDLjwKqRYeAAAAAAAAusPICkDj8BxWAai5c1gFoIbkSI7kKJ4cyZEcATHGsJC6PDx7Y3p57nTxqVt4bpqRLDYzwpoNdQtPuugkPy7fKqLmOyHShafRd0KkC48rpDa18CikWngAAAAAAADoDiMvAI2zc1gFoObOYRWAGupIjhpd2VGO5EiO5EiO+jpH0M/GtpD66PLw3I3Tk8VnjzD/purCs+I7A2HSnHPD83ULz70n7JksNCeWFp1krjw4+UehvPA8MTfMSP6BmHFJeeGZF06de2Hy35NK719WXnhODqfN/Xn7Fx6F1OYWHoVUAAAAAAAAGFZUAWg8ncMqADV3DqsA1FBHcpQX6eRIjuRIjuRIjoBOFFIfXRGeW3pAFu5Dl54b5k9Igp59F8RVgxaeFx5bHBakH8//MZh+cOE7IZ64trL4lD8+45L0uyF+ETb9prT4VN6/LF10FFIVUhVSAQAAAAAA6E7RBaDxcg6rANTcOawCUENyJEdyFE+O5EiOgBhjUEi9Ip/CwvNo+l0Q1e+EeH59uujkC082q8Lz2cLz/0qTf2deOi8+ni465YUnnbpLc2cLTzqjfGluhdTmFh6FVAAAAAAAABhW6wWgcXoOqwDU3DmsAlBDHclRIUtyJEdyJEdyJEfQ7xRSFVJHd+FRSAUAAAAAAIBhdaQA1I3nsApAzZ3DKgA11JEcFbIkR3IkR3IkR3IE/U4hVSF1dBcehVQAAAAAAAAYVkcKQN14DqsA1Nw5rAJQQx3JUSFLciRHciRHciRH0O8UUhVSR3fhUUgFAAAAAACAYXWkANSN57AKQM2dwyoANdSRHBWyJEdyJEdyJEdyBP1OIVUhdXQXHoVUAAAAAAAAGFZHCkDdeA6rANTcOawCUEMdyVEhS3IkR3IkR3IkR9DvFFIVUkd34VFIBQAAAAAAgGF1pADUjeewCkDNncMqADXUkRwVsiRHciRHciRHcgT9TiFVIXV0Fx6FVAAAAAAAABhWRwpA3XgOqwDU3DmsAlBDHclRIUtyJEdyJEdyJEfQ7xRSFVJHd+FRSAUAAAAAAIBhdaQA1I3nsApAzZ3DKgA11JEcFbIkR3IkR3IkR3IE/U4hVSF1dBcehVQAAAAAAAAYVkcKQN14DqsA1Nw5rAJQQx3JUSFLciRHciRHciRH0O8UUhVSR3fhUUgFAAAAAACAYcUWgJ5Zd0VYc9O54fzTfxju+uVZ4ZlHViikKgCN7TnsOCjSjShHhSzJkRzJUTVHi8/4kRzJkUIq9CGFVIXU0V14FFIBAAAAAABgWLEFoN89eFm4+pITwpf+Zp9wzA+/Fe64flF47tGVvXcOqwDU3DmsAlBDHclRIUtyJEdyJEdyJEfQ7xRSFVJHd+FRSAUAAAAAAIBhtaMAdMWSfw+f/Ku/CF878G/Dovk/Cnf/8uyw8ZErd3MOOzdMrzknOzCsbMM57KrvDYSZl8YXgFZPGwizlpfPYVeF0ycVf68DYb/5q4MCkAJQUUdy9NiJciRHciRHciRHQE4hVSF1dBcehVQAAAAAAAAYVqsFoDuuOz38avVppbnmtHDz1QvCwrmzw4R9/jqccMKcsODk48Pp844K995yXuNz2IsODAMDe4UFtxbOYW+dHWacuCT6HHb0CkB7h9PXlM9hV4czJpVLQApACkAlncnRnnIkR3IkR3IkR0BOIVUhdXQXHoVUAAAAAAAAGFarBaCjD//HMPO7/yeZL2cz/TsHhC//3f8X9vnsp8Pq1avD9ddfG356zA/COQt+0OAcNr0SXbX80/gcdl6YUTxD++5JhXPYk5OPfS1c/esjw+Tyx783P2z+7bKwcN/C1wx8I6zKzmEXhpmV9306LLyrfA57epg18M2w6u4fhynlj087M7yy8aq6q8/9U1g9qAB0b3htxT+HgennZuew6+Z/tvD53wrX1pzDLg6HVT727XDdVd8OAzOWFM5hl4bDKx+fEBY9oADUL0W6tuTolmqnQY7KH5ejfs/RgX+/rxxlI0cKqdB/Wk7YQQcdFDZt2lRZeBRSFVJ7tZD6xsu/tfAAAAAAAADQFVotAJ3802nhuB99qzLH/OBfwtRv/m2YuM/eYfny5WHFisvD8cccGS4+95jB57Dp1egmzAr3DnkOuyScOnEgzLikfA57Yfb25LkXFQpAA2Fg4pFhbXYOOz97e+ayRlekuzwrBc28LD+HvfNHYcq+PwoPVgpAyc8z6cfhwewc9szs7VnLm7kiXbEAdE04Y/qxYV1+Dnvt9IGw34Lr83PY68OZkwfCYSvL57BLSmWgSgHoxuzjh6/Kz2EfmBP2mzInrFcA6osiXVtyVOg0yJEcyZEcyZEcQb9rOWGzZ88O69evryw8CqkKqb1aSH3x2cfDF77wBQsPAAAAAAAAHddqAeiROy8ID91+fjKLw0N3LA5rbz0vLD79R+Gze+8Zjjh8dph3wv8NF571b2H9PRcPPodNC0AHnzj0OewlXwkDEw8P9xXPYW87IkyeeES4v1IA+mQ47dfVc9irvzcQpvxs2eAC0KXfCAP7/jA8UDmHXR4W7ptela5cAEp+fHf1HDYt/Uw5+aomCkDnhtkDA2H2ivJZbOEc9spvhYHp55fOYVcmP558XHi0eA5bvCLd1VOTjx8f1lfOYW8Oi6aUr0qnADTei3RtydFQRTo5kqM+zdH9t/6HHMlR3+cI+lnLCTv22GPD7bffnhVKFVIVUnu5kPrEY4+E/fff38IDAAAAAABAx7VaAKo/h/3dg5eFyy84Lvz1nn8RvvGVvwkXn3tseOTOC5OPrRx8DttMIfXgeXXnsCeFGQNfDVdVCkBfC1cXzmHX/uyTQxeAGpzHzbq8XAD6ZlhVOId96ORP76YAVPtzlMo/+Vnsin+p+VhNAWjG4tpz2PoCUPHr8jl8lQJQPxTp2pKj3RXp5EiO5EiO5KgvcwT9rOWE3XDDDWHevHnh5Y33ZAuPQqpCai8WUt9LFp+lS5eGT3ziExYeAAAAAAAAOi62APT7hy4P110+L3z7m18MZ88/Mjx0x5LdnMOeGKYP7BkW3DrEOWxTV6RroQB0yMIhzmFbLQDV3SI5O4dNJi3/TKreInnQFenqCkCPnrpPbQFoxtLdn8MqADV3DjsOinQjytEtuynSyZEcyZEcyVFf5gj6WcsJe/XVV8NBBx0UXn/1+dIio5CajELqkAtPlxZSd+7cGQ455JDwoQ99yMIDAAAAAABAx8UWgDauWx4evmNJWH3p3Kz8M9w57L0n7BkGBvaqlFKzc9hbZ4cZJy4JLz4xN8wYGAgzLimfw14YTp04ECbPvSg/hx2+ADRlXvLj7Bx2YZiZ/FwzLxtZAWjKKVcPWwBaN/+zYWD6eZVz2GunD1QLQC8uDoclv/5hK8vnsEuytysFoD8szd4+fJUC0HgoAHUmR9VytxzJkRzJkRzJEfS7ESXs7LPPDsuXLw+vvvBQvugopCqkDrHwdGEhddeuXeH2228PEydObLjopAMAAAAAAABjKbYAlJ7DPvvIivD7dVeEjY+UzmKHPYe9+MDac7KJs8N9lXPYeVkJqPyxUvmnfA67+wLQ5tuPClOyr/tGWJWew975w/ztfPb9UXiwiQLQK3f/JP+6fwqrd3dFuuevCWcUbp982PTCFenSc9j7jgv7lX/tgW+H64q3SE7PYdceX/h4MlPmhPUKQH1ZpBtRjtJbjhf/nHJUGjmSIzmSI4VU6EsjSlh6ldSpU6eG1159JfmH/7qWFx6FVIXUTi48W7ZsCbNmzRry6qjpAAAAAAAAwFhqRwFoXJzDPtPqOWz5LLb5c9j0Fsn7nXZD8+ewCkBNncMm/5M9lnu9SNdyjgpZkiM5kiM5kiM5gn434oTdd9994cc//nHY8uZL2WKikKqQ2nDh6bJCavqk6dRTTw1/9md/1nDBKQ8AAAAAAACMpY4UgLrxHHa0C0D3/zTsN7BPOHNtC+ewCkDDnsMq0smRHMmRHMmRHAGpqIRdeumlYd68eeHNN15J/vG+bfQWnnzR6aqFRyG1uYWnSwqpu5LZsWN7WLp0adh7770bLjblmTx5cv4IBwAAAAAAgLHRkQJQN57Dtr0AtDgcVnMeuE848/4Wz2EVgIY8h1Wkq82SHMmRHMmRHMkR9LvohF1zzTXhyCOPDE8//XQS5N9kC0lfvBBSSG1u4emCQuqunTvD5s2bw5w5c8Jee+3VcKEpDgAAAAAAAIy1jhSAuvEcdrSvSDeSc1gFoIbnsIp0eY4KWZIjOZIjOZIjOYJ+15aEbdiwIUydOjUsWrQoPPF48o/iK08n/2jfVflHvTS35fOr0iT/uG9O/nFP56Xf3Z58fjp3VKfwj/zLyT/y5XnlmfI/9rX/6L+S/INfmjXhleQf/XTK//C/mvzDX5r7w6uVYmh1EXitZgGoXQj+mCwEpVkX/pgsBOUpLgav/2F9eL2yIBQWhc3JYpDMm5uTBSFdFLIpLAzZlBaGmgUim2RxSCddIApTUyKtWzAqi0Y2hUWjPMnisSVZPEpTXTyqsymbrW8WFpHyVBaTdCGpLibVeTWf18K75UUlX1i2JQtKOtu3lhaV7cmiUpwd7yYLS3nSBSabLclCU5x3kic8pYWmNO9WZteOwoKTzY6wM/nv/9/e/btGkcdxHIYgsohFuiBYuJ12lilFTQgWwVJSWaWy0XptbPwDUlraWtwVFkdAEHKdJwpn5A7uSC6a1XjG/I5rDJ9j9mb34jpZ4TaZmY3PA58/IDAv0rz5bvIi6tzcXPNV1LGxsTh9+nTmP5m953VUAAAAAAAAilDIACgd/xgAGQAZ0hnS6UhHLTrSkY6AXhxoYQ8ePIjJycmYmJiIWq3WHAI6V8Qlr6EmI+mRkZE4d+5cDAwMZP6D2XuDg4PplwwAAAAAAAD5KmQAlI5/DIAMgAzpDOl0pKMWHelIR0AvDqWwer0eZ86ciWq16lwhNzQ0FCdOnMj8p5J1lUol/XoBAAAAAAAgf4UMgNLxjwGQAZAhnSGdjnTUoiMd6QjoxaEWdvbs2cyonSvTeRkVAAAAAACAohUyAErHPwZABkCGdIZ0OtJRi450pCOgF7kUlrw+mRW3c0UfAAAAAAAAlEEhA6B0/GMAZABkSGdIpyMdtehIRzoCepFrYefPn8+M3Lk8L3m5FwAAAAAAAMpkfHw8VldX8x0ApeMfAyADoKMyACqkI0M6HelIRzrSEdCmMAAAAAAAAICCXb9+Pebn5/MdAKXjHwMgA6CDHAAtv/0jLl++XMgAqJCODOl0pCMd6UhHQJvCAAAAAAAAAAp269atePLkSb4DoHT8YwBkAHSQA6C//vw1RkdHCxkAFdKRIZ2OdKQjHekIaFMYAAAAAAAAQMHu3bsX9+/fj/rvPxmkGgD19QBoeno6hoeHCxkAFdKRIZ2OdKQjHekIaFMYAAAAAAAAQMGePXsWN2/ejA9vZg1SDYD6dgC0u7sbd+/ejVOnThUyACqkI0M6HelIRzrSEdCmMAAAAAAAAIASmJycjJezL+LV7I8GqQZAfTkAWlpairGxsRgYGChsAJR7R4Z0OtKRjnSkI6BNYQAAAAAAAAAlMDMzE7VaLTZW6gapBkB9NwD6vLMTU1NTUa1WM8c/yeUh944M6XSkIx3pSEdAm8IAAAAAAAAASuL27dvx+PHjeP/6l8MfAKXjHwMgA6CDGAA9f/48RkdH932NLrm85NqRIZ2OdKQjHekIaFMYAAAAAAAAQEk0Go1/fyr55Yt4N/ezQaoBUF8MgBYXF2N8fDyOHz+eOfxJbnBwMP3KD1+uHRnS6UhHOtKRjoA2g1QAAAAAAACAEqnX63Hjxo3my3Rry/PN8c6hDIDS8Y8BkAHQ/x0A7ezsNF+iS8Y/J0+ezBz+tC5vuXVkSKcjHelIRzoC2lQGAAAAAAAAUDLr6+vNn0u+c+dO1BcXYvn103g1+4NBqgFQKQZAu593YmVlJaampuLSpUtdX6JLrlKppF92vnLpaE9LOtKRjnSkIx3B984gFQAAAAAAAKCkHj16FBMTE1Gr1eLhw4fx2+zT2Fh5nXGLXa7+361m3+bqm2/c29hc2++W9r2ttXextd7t/u5y72NrY//b3ljuch9ie7PbrXS/reRW2/fxq1vb/7aTW+9yG19co3Ufk9v8xm1lXyO57S/uU+Z9/Po+7b1Gl/sUCwsLMT093RymXblyJarVaubgp/OKpqP9L7uf1mW1s/c6uuk8HWWcjnTUeR3ddJ6OMq5/O4LvgdIAAAAAAAAASqzRaMTMzExzCDQyMhIXL150rpBLvr/h4eEYGhqKY8eOZY59Ou/q1avpl1wsHbmynI6c6/36uSM46gxSAQAAAAAAAPrEtWvXMkcWzpXxLly4kH655aIj10+nI+d6v7J2BEeRQSoAAAAAAABAn6lUKpmDC+fKcv1AR67s1w905Mp+QL5UBwAAAAAAANCHkp+ezRpeOFfk9dsrdDpyZTwdOdf7eRUVimGQCgAAAAAAAHAEJMML54q4oyTr73MujztKsv4+5/I4oHgGqQAAAAAAAAAAAAD0xCAVAAAAAAAAAAAAgJ4YpAIAAAAAAAAAAADQE4NUAAAAAAAAAAAAAHpikAoAAAAAAAAAAABATwxSAQAAAAAAAAAAAOhBxD+WEwdyWjb8fwAAAABJRU5ErkJggg==;movable=0;resizable=0;rotatable=0;deletable=0;editable=0;locked=1;connectable=0;" vertex="1" parent="WIyWlLk6GJQsqaUBKTNV-1">
          <mxGeometry x="10" y="191" width="3294.88" height="1870" as="geometry" />
        </mxCell>
        <mxCell id="r9GU1ullkdQJTktmOcHx-3" value="" style="endArrow=diamondThin;endFill=1;endSize=24;html=1;rounded=0;" edge="1" parent="WIyWlLk6GJQsqaUBKTNV-1">
          <mxGeometry width="160" relative="1" as="geometry">
            <mxPoint x="1250" y="290" as="sourcePoint" />
            <mxPoint x="3099" y="310" as="targetPoint" />
            <Array as="points">
              <mxPoint x="1250" y="350" />
              <mxPoint x="3099" y="360" />
            </Array>
          </mxGeometry>
        </mxCell>
        <mxCell id="r9GU1ullkdQJTktmOcHx-4" value="" style="endArrow=diamondThin;endFill=1;endSize=24;html=1;rounded=0;" edge="1" parent="WIyWlLk6GJQsqaUBKTNV-1">
          <mxGeometry width="160" relative="1" as="geometry">
            <mxPoint x="2930" y="360" as="sourcePoint" />
            <mxPoint x="2930" y="310" as="targetPoint" />
          </mxGeometry>
        </mxCell>
        <mxCell id="r9GU1ullkdQJTktmOcHx-7" value="" style="endArrow=diamondThin;endFill=1;endSize=24;html=1;rounded=0;" edge="1" parent="WIyWlLk6GJQsqaUBKTNV-1">
          <mxGeometry width="160" relative="1" as="geometry">
            <mxPoint x="2598" y="359" as="sourcePoint" />
            <mxPoint x="2598" y="309" as="targetPoint" />
          </mxGeometry>
        </mxCell>
        <mxCell id="r9GU1ullkdQJTktmOcHx-8" value="" style="endArrow=diamondThin;endFill=1;endSize=24;html=1;rounded=0;" edge="1" parent="WIyWlLk6GJQsqaUBKTNV-1">
          <mxGeometry width="160" relative="1" as="geometry">
            <mxPoint x="2330" y="354" as="sourcePoint" />
            <mxPoint x="2330" y="304" as="targetPoint" />
          </mxGeometry>
        </mxCell>
        <mxCell id="r9GU1ullkdQJTktmOcHx-9" value="" style="endArrow=diamondThin;endFill=1;endSize=24;html=1;rounded=0;" edge="1" parent="WIyWlLk6GJQsqaUBKTNV-1">
          <mxGeometry width="160" relative="1" as="geometry">
            <mxPoint x="2280" y="361" as="sourcePoint" />
            <mxPoint x="3099" y="901" as="targetPoint" />
            <Array as="points">
              <mxPoint x="2280" y="951" />
              <mxPoint x="3099" y="951" />
            </Array>
          </mxGeometry>
        </mxCell>
        <mxCell id="r9GU1ullkdQJTktmOcHx-10" value="" style="endArrow=diamondThin;endFill=1;endSize=24;html=1;rounded=0;" edge="1" parent="WIyWlLk6GJQsqaUBKTNV-1">
          <mxGeometry width="160" relative="1" as="geometry">
            <mxPoint x="2930" y="951" as="sourcePoint" />
            <mxPoint x="2930" y="901" as="targetPoint" />
          </mxGeometry>
        </mxCell>
        <mxCell id="r9GU1ullkdQJTktmOcHx-11" value="" style="endArrow=diamondThin;endFill=1;endSize=24;html=1;rounded=0;" edge="1" parent="WIyWlLk6GJQsqaUBKTNV-1">
          <mxGeometry width="160" relative="1" as="geometry">
            <mxPoint x="2598" y="950" as="sourcePoint" />
            <mxPoint x="2598" y="900" as="targetPoint" />
          </mxGeometry>
        </mxCell>
        <mxCell id="r9GU1ullkdQJTktmOcHx-12" value="" style="endArrow=diamondThin;endFill=1;endSize=24;html=1;rounded=0;" edge="1" parent="WIyWlLk6GJQsqaUBKTNV-1">
          <mxGeometry width="160" relative="1" as="geometry">
            <mxPoint x="2330" y="945" as="sourcePoint" />
            <mxPoint x="2330" y="895" as="targetPoint" />
          </mxGeometry>
        </mxCell>
        <mxCell id="r9GU1ullkdQJTktmOcHx-13" value="" style="endArrow=diamondThin;endFill=1;endSize=24;html=1;rounded=0;" edge="1" parent="WIyWlLk6GJQsqaUBKTNV-1">
          <mxGeometry width="160" relative="1" as="geometry">
            <mxPoint x="2280" y="937" as="sourcePoint" />
            <mxPoint x="3099" y="1477" as="targetPoint" />
            <Array as="points">
              <mxPoint x="2280" y="1527" />
              <mxPoint x="3099" y="1527" />
            </Array>
          </mxGeometry>
        </mxCell>
        <mxCell id="r9GU1ullkdQJTktmOcHx-14" value="" style="endArrow=diamondThin;endFill=1;endSize=24;html=1;rounded=0;" edge="1" parent="WIyWlLk6GJQsqaUBKTNV-1">
          <mxGeometry width="160" relative="1" as="geometry">
            <mxPoint x="2930" y="1527" as="sourcePoint" />
            <mxPoint x="2930" y="1477" as="targetPoint" />
          </mxGeometry>
        </mxCell>
        <mxCell id="r9GU1ullkdQJTktmOcHx-15" value="" style="endArrow=diamondThin;endFill=1;endSize=24;html=1;rounded=0;" edge="1" parent="WIyWlLk6GJQsqaUBKTNV-1">
          <mxGeometry width="160" relative="1" as="geometry">
            <mxPoint x="2598" y="1526" as="sourcePoint" />
            <mxPoint x="2598" y="1476" as="targetPoint" />
          </mxGeometry>
        </mxCell>
        <mxCell id="r9GU1ullkdQJTktmOcHx-16" value="" style="endArrow=diamondThin;endFill=1;endSize=24;html=1;rounded=0;" edge="1" parent="WIyWlLk6GJQsqaUBKTNV-1">
          <mxGeometry width="160" relative="1" as="geometry">
            <mxPoint x="2330" y="1521" as="sourcePoint" />
            <mxPoint x="2330" y="1471" as="targetPoint" />
          </mxGeometry>
        </mxCell>
        <mxCell id="r9GU1ullkdQJTktmOcHx-17" value="" style="endArrow=diamondThin;endFill=1;endSize=24;html=1;rounded=0;" edge="1" parent="WIyWlLk6GJQsqaUBKTNV-1">
          <mxGeometry width="160" relative="1" as="geometry">
            <mxPoint x="2280" y="1514" as="sourcePoint" />
            <mxPoint x="2940" y="2054" as="targetPoint" />
            <Array as="points">
              <mxPoint x="2280" y="2104" />
              <mxPoint x="2940" y="2104" />
            </Array>
          </mxGeometry>
        </mxCell>
        <mxCell id="r9GU1ullkdQJTktmOcHx-19" value="" style="endArrow=diamondThin;endFill=1;endSize=24;html=1;rounded=0;" edge="1" parent="WIyWlLk6GJQsqaUBKTNV-1">
          <mxGeometry width="160" relative="1" as="geometry">
            <mxPoint x="2598" y="2103" as="sourcePoint" />
            <mxPoint x="2598" y="2053" as="targetPoint" />
          </mxGeometry>
        </mxCell>
        <mxCell id="r9GU1ullkdQJTktmOcHx-20" value="" style="endArrow=diamondThin;endFill=1;endSize=24;html=1;rounded=0;" edge="1" parent="WIyWlLk6GJQsqaUBKTNV-1">
          <mxGeometry width="160" relative="1" as="geometry">
            <mxPoint x="2330" y="2103" as="sourcePoint" />
            <mxPoint x="2330" y="2053" as="targetPoint" />
          </mxGeometry>
        </mxCell>
        <mxCell id="r9GU1ullkdQJTktmOcHx-21" value="Use" style="endArrow=open;endSize=12;dashed=1;html=1;rounded=0;" edge="1" parent="WIyWlLk6GJQsqaUBKTNV-1" target="r9GU1ullkdQJTktmOcHx-28">
          <mxGeometry width="160" relative="1" as="geometry">
            <mxPoint x="662" y="290" as="sourcePoint" />
            <mxPoint x="822" y="290" as="targetPoint" />
            <Array as="points">
              <mxPoint x="662" y="340" />
              <mxPoint x="822" y="340" />
            </Array>
          </mxGeometry>
        </mxCell>
        <mxCell id="r9GU1ullkdQJTktmOcHx-22" value="Use" style="endArrow=open;endSize=12;dashed=1;html=1;rounded=0;" edge="1" parent="WIyWlLk6GJQsqaUBKTNV-1">
          <mxGeometry width="160" relative="1" as="geometry">
            <mxPoint x="320" y="290" as="sourcePoint" />
            <mxPoint x="190" y="290" as="targetPoint" />
            <Array as="points">
              <mxPoint x="320" y="330" />
              <mxPoint x="190" y="330" />
            </Array>
          </mxGeometry>
        </mxCell>
        <mxCell id="r9GU1ullkdQJTktmOcHx-23" value="Use" style="endArrow=open;endSize=12;dashed=1;html=1;rounded=0;" edge="1" parent="WIyWlLk6GJQsqaUBKTNV-1">
          <mxGeometry width="160" relative="1" as="geometry">
            <mxPoint x="1080" y="870" as="sourcePoint" />
            <mxPoint x="950" y="870" as="targetPoint" />
            <Array as="points">
              <mxPoint x="1080" y="910" />
              <mxPoint x="950" y="910" />
            </Array>
          </mxGeometry>
        </mxCell>
        <mxCell id="r9GU1ullkdQJTktmOcHx-25" value="Use" style="endArrow=open;endSize=12;dashed=1;html=1;rounded=0;" edge="1" parent="WIyWlLk6GJQsqaUBKTNV-1">
          <mxGeometry width="160" relative="1" as="geometry">
            <mxPoint x="120" y="870" as="sourcePoint" />
            <mxPoint x="30" y="1960" as="targetPoint" />
            <Array as="points">
              <mxPoint x="120" y="900" />
              <mxPoint x="-10" y="900" />
              <mxPoint x="-10" y="1960" />
            </Array>
          </mxGeometry>
        </mxCell>
        <mxCell id="r9GU1ullkdQJTktmOcHx-26" value="Use" style="endArrow=open;endSize=12;dashed=1;html=1;rounded=0;" edge="1" parent="WIyWlLk6GJQsqaUBKTNV-1">
          <mxGeometry width="160" relative="1" as="geometry">
            <mxPoint x="830" y="1450" as="sourcePoint" />
            <mxPoint x="700" y="1450" as="targetPoint" />
            <Array as="points">
              <mxPoint x="830" y="1490" />
              <mxPoint x="700" y="1490" />
            </Array>
          </mxGeometry>
        </mxCell>
        <mxCell id="r9GU1ullkdQJTktmOcHx-27" value="" style="endArrow=diamondThin;endFill=1;endSize=24;html=1;rounded=0;" edge="1" parent="WIyWlLk6GJQsqaUBKTNV-1">
          <mxGeometry width="160" relative="1" as="geometry">
            <mxPoint x="480" y="290" as="sourcePoint" />
            <mxPoint x="640" y="790" as="targetPoint" />
            <Array as="points">
              <mxPoint x="480" y="400" />
              <mxPoint x="640" y="400" />
            </Array>
          </mxGeometry>
        </mxCell>
        <mxCell id="r9GU1ullkdQJTktmOcHx-28" value="" style="line;strokeWidth=1;fillColor=none;align=left;verticalAlign=middle;spacingTop=-1;spacingLeft=3;spacingRight=3;rotatable=0;labelPosition=right;points=[];portConstraint=eastwest;strokeColor=inherit;" vertex="1" parent="WIyWlLk6GJQsqaUBKTNV-1">
          <mxGeometry x="802" y="286" width="40" height="8" as="geometry" />
        </mxCell>
        <mxCell id="r9GU1ullkdQJTktmOcHx-30" value="" style="endArrow=none;html=1;rounded=0;" edge="1" parent="WIyWlLk6GJQsqaUBKTNV-1">
          <mxGeometry width="50" height="50" relative="1" as="geometry">
            <mxPoint x="640" y="290" as="sourcePoint" />
            <mxPoint x="640" y="400" as="targetPoint" />
          </mxGeometry>
        </mxCell>
        <mxCell id="r9GU1ullkdQJTktmOcHx-31" value="" style="endArrow=diamondThin;endFill=1;endSize=24;html=1;rounded=0;" edge="1" parent="WIyWlLk6GJQsqaUBKTNV-1">
          <mxGeometry width="160" relative="1" as="geometry">
            <mxPoint x="890" y="1360" as="sourcePoint" />
            <mxPoint x="640" y="870" as="targetPoint" />
            <Array as="points">
              <mxPoint x="890" y="980" />
              <mxPoint x="640" y="980" />
            </Array>
          </mxGeometry>
        </mxCell>
        <mxCell id="r9GU1ullkdQJTktmOcHx-32" value="" style="endArrow=none;html=1;rounded=0;" edge="1" parent="WIyWlLk6GJQsqaUBKTNV-1">
          <mxGeometry width="50" height="50" relative="1" as="geometry">
            <mxPoint x="890" y="980" as="sourcePoint" />
            <mxPoint x="1130" y="870" as="targetPoint" />
            <Array as="points">
              <mxPoint x="1130" y="980" />
            </Array>
          </mxGeometry>
        </mxCell>
        <mxCell id="r9GU1ullkdQJTktmOcHx-33" value="" style="endArrow=none;html=1;rounded=0;" edge="1" parent="WIyWlLk6GJQsqaUBKTNV-1">
          <mxGeometry width="50" height="50" relative="1" as="geometry">
            <mxPoint x="200" y="870" as="sourcePoint" />
            <mxPoint x="640" y="980" as="targetPoint" />
            <Array as="points">
              <mxPoint x="200" y="980" />
            </Array>
          </mxGeometry>
        </mxCell>
        <mxCell id="r9GU1ullkdQJTktmOcHx-35" value="" style="endArrow=diamondThin;endFill=0;endSize=24;html=1;rounded=0;" edge="1" parent="WIyWlLk6GJQsqaUBKTNV-1">
          <mxGeometry width="160" relative="1" as="geometry">
            <mxPoint x="1080" y="290" as="sourcePoint" />
            <mxPoint x="980" y="790" as="targetPoint" />
            <Array as="points">
              <mxPoint x="1080" y="440" />
              <mxPoint x="980" y="440" />
            </Array>
          </mxGeometry>
        </mxCell>
        <mxCell id="r9GU1ullkdQJTktmOcHx-37" value="" style="endArrow=diamondThin;endFill=0;endSize=24;html=1;rounded=0;" edge="1" parent="WIyWlLk6GJQsqaUBKTNV-1">
          <mxGeometry width="160" relative="1" as="geometry">
            <mxPoint x="980" y="440" as="sourcePoint" />
            <mxPoint x="980" y="290" as="targetPoint" />
          </mxGeometry>
        </mxCell>
        <mxCell id="r9GU1ullkdQJTktmOcHx-38" value="" style="endArrow=diamondThin;endFill=0;endSize=24;html=1;rounded=0;" edge="1" parent="WIyWlLk6GJQsqaUBKTNV-1">
          <mxGeometry width="160" relative="1" as="geometry">
            <mxPoint x="980" y="440" as="sourcePoint" />
            <mxPoint x="160" y="290" as="targetPoint" />
            <Array as="points">
              <mxPoint x="160" y="440" />
            </Array>
          </mxGeometry>
        </mxCell>
        <mxCell id="r9GU1ullkdQJTktmOcHx-42" value="" style="endArrow=diamondThin;endFill=0;endSize=24;html=1;rounded=0;" edge="1" parent="WIyWlLk6GJQsqaUBKTNV-1">
          <mxGeometry width="160" relative="1" as="geometry">
            <mxPoint x="1260" y="240" as="sourcePoint" />
            <mxPoint x="700" y="1370" as="targetPoint" />
            <Array as="points">
              <mxPoint x="1320" y="240" />
              <mxPoint x="1320" y="1310" />
              <mxPoint x="700" y="1310" />
            </Array>
          </mxGeometry>
        </mxCell>
        <mxCell id="r9GU1ullkdQJTktmOcHx-43" value="" style="endArrow=diamondThin;endFill=1;endSize=24;html=1;rounded=0;" edge="1" parent="WIyWlLk6GJQsqaUBKTNV-1">
          <mxGeometry width="160" relative="1" as="geometry">
            <mxPoint x="380" y="780" as="sourcePoint" />
            <mxPoint x="890" y="290" as="targetPoint" />
            <Array as="points">
              <mxPoint x="380" y="590" />
              <mxPoint x="890" y="590" />
            </Array>
          </mxGeometry>
        </mxCell>
        <mxCell id="r9GU1ullkdQJTktmOcHx-44" value="" style="endArrow=diamondThin;endFill=1;endSize=24;html=1;rounded=0;" edge="1" parent="WIyWlLk6GJQsqaUBKTNV-1">
          <mxGeometry width="160" relative="1" as="geometry">
            <mxPoint x="380" y="880" as="sourcePoint" />
            <mxPoint x="30" y="1980" as="targetPoint" />
            <Array as="points">
              <mxPoint x="380" y="1090" />
              <mxPoint x="-40" y="1090" />
              <mxPoint x="-40" y="1980" />
            </Array>
          </mxGeometry>
        </mxCell>
        <mxCell id="r9GU1ullkdQJTktmOcHx-45" value="Use" style="endArrow=open;endSize=12;dashed=1;html=1;rounded=0;" edge="1" parent="WIyWlLk6GJQsqaUBKTNV-1">
          <mxGeometry width="160" relative="1" as="geometry">
            <mxPoint x="120" y="290" as="sourcePoint" />
            <mxPoint x="120" y="1370" as="targetPoint" />
            <Array as="points">
              <mxPoint x="120" y="430" />
              <mxPoint x="-20" y="430" />
              <mxPoint x="-20" y="1010" />
              <mxPoint x="120" y="1010" />
            </Array>
          </mxGeometry>
        </mxCell>
        <mxCell id="r9GU1ullkdQJTktmOcHx-46" value="Use" style="endArrow=open;endSize=12;dashed=1;html=1;rounded=0;" edge="1" parent="WIyWlLk6GJQsqaUBKTNV-1">
          <mxGeometry width="160" relative="1" as="geometry">
            <mxPoint x="1260" y="270" as="sourcePoint" />
            <mxPoint x="150" y="1370" as="targetPoint" />
            <Array as="points">
              <mxPoint x="1300" y="270" />
              <mxPoint x="1290" y="1140" />
              <mxPoint x="150" y="1150" />
            </Array>
          </mxGeometry>
        </mxCell>
        <mxCell id="r9GU1ullkdQJTktmOcHx-47" value="" style="endArrow=diamondThin;endFill=0;endSize=24;html=1;rounded=0;" edge="1" parent="WIyWlLk6GJQsqaUBKTNV-1">
          <mxGeometry width="160" relative="1" as="geometry">
            <mxPoint x="130" y="1450" as="sourcePoint" />
            <mxPoint x="330" y="1450" as="targetPoint" />
            <Array as="points">
              <mxPoint x="130" y="1530" />
              <mxPoint x="330" y="1530" />
            </Array>
          </mxGeometry>
        </mxCell>
      </root>
    </mxGraphModel>
  </diagram>
</mxfile>
